<?xml version="1.0" standalone="no"?>
<!DOCTYPE svg PUBLIC "-//W3C//DTD SVG 1.1//EN" "http://www.w3.org/Graphics/SVG/1.1/DTD/svg11.dtd" >
<svg>
<metadata>
Created by FontForge 20120731 at Sat Feb 10 22:40:58 2018
 By www-data
</metadata>
<defs>
<font id="AganS55" horiz-adv-x="611" >
  <font-face 
    font-family="Agane` S"
    font-weight="400"
    font-stretch="normal"
    units-per-em="1000"
    panose-1="0 0 0 0 0 0 0 0 0 0"
    ascent="750"
    descent="-250"
    x-height="510"
    cap-height="653"
    bbox="-169 -250 1072 870"
    underline-thickness="50"
    underline-position="-50"
    unicode-range="U+000A-FB02"
  />
<missing-glyph horiz-adv-x="350" 
 />
    <glyph glyph-name=".notdef" horiz-adv-x="350" 
 />
    <glyph glyph-name="NULL.001" horiz-adv-x="0" 
 />
    <glyph glyph-name="NULL.001" horiz-adv-x="0" 
 />
    <glyph glyph-name="nonmarkingreturn" unicode="&#xd;" horiz-adv-x="350" 
 />
    <glyph glyph-name="space" unicode=" " horiz-adv-x="278" 
 />
    <glyph glyph-name="F" unicode="F" horiz-adv-x="476" 
d="M183 0h-100v653h347l-15 -89h-232v-204l235 1v-89l-235 -1v-271zM183 0h-100v653h347l-15 -89h-232v-204l235 1v-89l-235 -1v-271z" />
    <glyph glyph-name="a" unicode="a" horiz-adv-x="558" 
d="M281 522q55 -3 98 -23q18 -9 36 -22t32 -32t22.5 -44.5t8.5 -59.5v-341h-88l-12 62l-10 -12t-29 -25.5t-46.5 -25t-61.5 -11.5q-83 0 -134 37.5t-51 120.5q0 48 23 79.5t56.5 50t71 25.5t66.5 7h121v34q-4 46 -24.5 69t-50 30.5t-64 2t-64.5 -15t-52 -20t-28 -14.5v80
q28 13 58 24q26 9 58 16.5t64 7.5zM239 64q60 0 98 28.5t47 74.5v73h-53q-19 0 -50.5 -1.5t-61.5 -9.5t-52 -26.5t-22 -52.5q0 -21 9 -37t22.5 -27t30.5 -16.5t32 -5.5z" />
    <glyph glyph-name="b" unicode="b" 
d="M348 522q51 0 91.5 -21.5t68.5 -58.5t42.5 -85.5t14.5 -102.5t-14.5 -102.5t-42.5 -84.5t-68.5 -57.5t-91.5 -21.5q-49 0 -82.5 13t-53.5 29q-24 18 -38 43v-1l-20 -72h-74v634h94v-190q31 41 77.5 59.5t96.5 18.5zM327 64q28 0 53 11.5t44 35t30 59.5t11 84t-11 84
t-30 60t-44 36t-53 12q-30 0 -57.5 -12t-48.5 -36t-34 -60t-13 -84t13 -84t34 -59.5t48.5 -35t57.5 -11.5z" />
    <glyph glyph-name="c" unicode="c" horiz-adv-x="469" 
d="M300 522q32 0 55 -3.5t38 -7.5q18 -5 30 -11v-71q-45 15 -93.5 17t-89.5 -16t-67.5 -60t-26.5 -115q0 -74 26.5 -116t67.5 -59.5t90 -14.5t93 20v-72q-12 -8 -30 -13q-15 -5 -38 -8.5t-55 -3.5q-38 0 -82 11.5t-82.5 41.5t-64 82t-25.5 132q0 81 25.5 133t64 81.5
t82.5 41t82 11.5z" />
    <glyph glyph-name="d" unicode="d" 
d="M263 522q50 0 96.5 -18.5t77.5 -59.5v190h94v-634h-74l-20 72v1q-14 -25 -38 -43q-20 -16 -53.5 -29t-82.5 -13q-51 0 -91.5 21.5t-68.5 57.5t-42.5 84.5t-14.5 102.5t14.5 102.5t42.5 85.5t68.5 58.5t91.5 21.5zM284 64q30 0 57.5 11.5t48.5 35t34 59.5t13 84t-13 84
t-34 60t-48.5 36t-57.5 12q-28 0 -53 -12t-44 -36t-30 -60t-11 -84t11 -84t30 -59.5t44 -35t53 -11.5z" />
    <glyph glyph-name="e" unicode="e" horiz-adv-x="557" 
d="M321 -12q-86 0 -139.5 25.5t-83.5 65.5t-41 89.5t-11 97.5t15.5 94t45 82t72.5 58t99 22q67 0 112 -23.5t72 -61t38 -83t11 -88.5v-32h-365q4 -48 22 -85q8 -16 20 -31.5t29.5 -27.5t40.5 -19t53 -7q32 0 60.5 7.5t50.5 16.5q26 11 48 25l1 -86l-11.5 -6.5t-31.5 -13.5
t-47.5 -13t-59.5 -6zM411 304q0 25 -7.5 50.5t-23.5 46t-41 33t-61 12.5q-31 0 -55.5 -12.5t-41.5 -33t-26 -46t-9 -50.5h265z" />
    <glyph glyph-name="f" unicode="f" horiz-adv-x="335" 
d="M316 558q-39 4 -61 -0.5t-33.5 -17t-14.5 -32.5t-3 -45v-4h96l-11 -76h-85v-383h-94v383h-89v76h89v4q0 35 6.5 61t17 45t24.5 31.5t28 20.5q33 18 77 19q14 0 24.5 -1t18.5 -3l15 -3l-5 -75v0z" />
    <glyph glyph-name="g" unicode="g" 
d="M531 510v-437q0 -54 -13.5 -100t-45 -79.5t-84 -52.5t-130.5 -19q-32 0 -60.5 5.5t-51.5 13.5q-26 9 -49 20l-13 83q21 -13 48 -23q23 -9 55 -16t71 -7q67 0 103.5 18.5t53.5 46t19.5 60t2.5 59.5q-32 -43 -71.5 -62.5t-91.5 -19.5q-44 0 -85 16.5t-73 49.5t-51 81.5
t-19 113.5q0 64 19 112.5t51 81.5t73 50t85 17q50 0 81.5 -13.5t49.5 -30.5q21 -19 32 -44l13 76h81zM291 76q33 0 60 14.5t46 39.5t29.5 59t10.5 72t-10.5 71.5t-29.5 59t-46 40t-60 14.5q-32 0 -59 -14.5t-46 -40t-29.5 -59t-10.5 -71.5t10.5 -72t29.5 -59t46 -39.5
t59 -14.5z" />
    <glyph glyph-name="h" unicode="h" horiz-adv-x="612" 
d="M340 522q100 0 146 -59t46 -168v-295h-95v269q0 91 -23 134t-81 43q-40 0 -69.5 -15t-49.5 -42.5t-30 -66t-10 -85.5v-237h-94v634h94v-205q24 41 70 67t96 26z" />
    <glyph glyph-name="i" unicode="i" horiz-adv-x="283" 
d="M190 0h-94v510h94v-510zM203 632q0 -26 -18 -44t-43 -18q-26 0 -44 18t-18 44q0 25 18 43t44 18q25 0 43 -18t18 -43z" />
    <glyph glyph-name="j" unicode="j" horiz-adv-x="277" 
d="M135 570q-26 0 -43.5 18.5t-17.5 43.5q0 26 17.5 43.5t43.5 17.5q25 0 43.5 -17.5t18.5 -43.5q0 -25 -18.5 -43.5t-43.5 -18.5zM182 -30q0 -73 -36.5 -110.5t-102.5 -37.5q-29 0 -59 8v78q9 -2 17.5 -3.5t17.5 -1.5q69 0 69 82v525h94v-540z" />
    <glyph glyph-name="k" unicode="k" horiz-adv-x="527" 
d="M322 284l186 -284h-116l-141 235h-77v-235h-94v634h94v-299h77l142 175h108z" />
    <glyph glyph-name="l" unicode="l" horiz-adv-x="308" 
d="M258 0q-16 -6 -36 -9t-37 -3q-51 0 -78 30t-27 87v529h94v-527q0 -21 7.5 -31.5t25.5 -10.5q10 0 26.5 1.5t24.5 3.5v-70z" />
    <glyph glyph-name="m" unicode="m" horiz-adv-x="892" 
d="M632 522q37 0 70 -8.5t57.5 -33.5t38.5 -70.5t14 -118.5v-291h-95v301q0 24 -3 49.5t-12.5 47t-27.5 35t-47 13.5q-37 0 -62.5 -16.5t-41.5 -43.5t-23 -62t-7 -71v-253h-95v301q0 24 -3 49.5t-13 47t-27.5 35t-46.5 13.5q-37 0 -62.5 -16.5t-41.5 -43.5t-23 -62t-7 -71
v-253h-94v510h78l15 -75l8 14t26.5 30t49 29.5t75.5 13.5q39 0 67 -15.5t45.5 -34.5t25 -34.5l7.5 -15.5q10 24 27.5 43t38.5 31.5t44.5 19t44.5 6.5z" />
    <glyph glyph-name="o" unicode="o" 
d="M304 522q39 0 84.5 -11.5t84.5 -41.5t65.5 -82t26.5 -133t-26.5 -132.5t-65.5 -81t-84.5 -41t-84.5 -11.5q-38 0 -83 11.5t-84 41t-65 81t-26 132.5t26 133t65 82t84 41.5t83 11.5zM304 64q33 0 62.5 11.5t51 35.5t34.5 59.5t13 83.5t-13 84t-34.5 60t-51 36t-62.5 12
q-32 0 -60.5 -12t-50 -36t-34 -60t-12.5 -84t12.5 -83.5t34 -59.5t50 -35.5t60.5 -11.5z" />
    <glyph glyph-name="p" unicode="p" 
d="M348 -12q-50 0 -96.5 18.5t-77.5 59.5v-202h-94v646h79l15 -72v-1q14 24 38 42q20 16 53.5 29.5t82.5 13.5q51 0 91.5 -21.5t68.5 -57.5t42.5 -84.5t14.5 -102.5t-14.5 -102.5t-42.5 -85.5t-68.5 -58.5t-91.5 -21.5zM327 446q-30 0 -57.5 -11.5t-48.5 -35t-34 -59.5
t-13 -84t13 -84t34 -60t48.5 -36t57.5 -12q28 0 53 12t44 36t30 60t11 84t-11 84t-30 59.5t-44 35t-53 11.5z" />
    <glyph glyph-name="q" unicode="q" 
d="M263 -12q-51 0 -91.5 21.5t-68.5 58.5t-42.5 85.5t-14.5 102.5t14.5 102.5t42.5 84.5t68.5 57.5t91.5 21.5q49 0 82.5 -13.5t53.5 -29.5q24 -18 38 -42v1l15 72h79v-646h-94v202q-31 -41 -77.5 -59.5t-96.5 -18.5zM284 446q-28 0 -53 -11.5t-44 -35t-30 -59.5t-11 -84
t11 -84t30 -60t44 -36t53 -12q30 0 57.5 12t48.5 36t34 60t13 84t-13 84t-34 59.5t-48.5 35t-57.5 11.5z" />
    <glyph glyph-name="r" unicode="r" horiz-adv-x="389" 
d="M365 431q-7 2 -15 4q-7 2 -15.5 3.5t-16.5 1.5q-43 0 -71 -19.5t-44 -49.5t-22.5 -67t-6.5 -72v-232h-94v510h80l11 -79q14 25 31 44.5t40 31.5t53 14.5t70 -7.5v-83z" />
    <glyph glyph-name="s" unicode="s" horiz-adv-x="444" 
d="M347 401q-59 45 -124 45q-36 0 -57.5 -14.5t-21.5 -49.5q0 -18 8.5 -30.5t22.5 -21.5t32 -16t38 -14q26 -9 53 -20t48.5 -28.5t35 -44t13.5 -67.5q0 -39 -14.5 -68t-39 -47.5t-56 -27.5t-64.5 -9q-50 0 -98 20t-82 58l30 66q32 -32 72.5 -50t79.5 -18q38 0 62.5 15.5
t25.5 51.5q0 19 -8.5 33t-22.5 24.5t-33 18t-39 15.5q-26 9 -52 20t-47 28t-34 43t-13 64q0 39 13.5 66.5t36.5 45t53 25.5t63 8q41 0 79.5 -13.5t70.5 -37.5z" />
    <glyph glyph-name="t" unicode="t" horiz-adv-x="395" 
d="M221 384v-238q0 -81 69 -81q29 0 59 15v-73q-41 -19 -87 -19q-66 0 -102.5 37.5t-36.5 110.5v248h-91v77h91v150l98 23v-173h135v-77h-135z" />
    <glyph glyph-name="u" unicode="u" horiz-adv-x="612" 
d="M272 -12q-100 0 -146 59t-46 168v295h95v-269q0 -91 23 -134t81 -43q40 0 69.5 15t49.5 42.5t30 66t10 85.5v237h94v-510h-79l-15 81q-24 -41 -70 -67t-96 -26z" />
    <glyph glyph-name="v" unicode="v" horiz-adv-x="509" 
d="M493 510l-183 -510h-112l-182 510h95l144 -416l142 416h96z" />
    <glyph glyph-name="w" unicode="w" horiz-adv-x="836" 
d="M820 510l-164 -510h-109l-129 426l-133 -426h-109l-160 510h101l114 -423q14 48 31 102t35 109.5t35 109.5t31 102h112l128 -423l119 423h98z" />
    <glyph glyph-name="y" unicode="y" horiz-adv-x="506" 
d="M490 510l-191 -483q-22 -58 -57 -103q-15 -19 -35 -37.5t-45 -32.5t-55 -23t-66 -9v78q53 0 84.5 20t48.5 45q19 28 27 65l-194 480h108l136 -416l131 416h108z" />
    <glyph glyph-name="z" unicode="z" horiz-adv-x="508" 
d="M450 510v-84l-295 -349h307v-77h-416v84v0l295 350h-281v76h390z" />
    <glyph glyph-name="n" unicode="n" horiz-adv-x="612" 
d="M340 522q100 0 146 -59t46 -168v-295h-95v269q0 91 -23 134t-81 43q-40 0 -69.5 -15t-49.5 -42.5t-30 -66t-10 -85.5v-237h-94v510h79l15 -81q24 41 70 67t96 26z" />
    <glyph glyph-name="period" unicode="." horiz-adv-x="278" 
d="M83 112h112v-112h-112v112z" />
    <glyph glyph-name="X" unicode="X" horiz-adv-x="626" 
d="M267 339l-236 315h121l168 -256l155 256h120l-222 -315q0 -1 10.5 -16t27.5 -39t39 -54.5t45 -61.5q54 -74 123 -168h-122l-176 264l-190 -264h-122z" />
    <glyph glyph-name="x" unicode="x" horiz-adv-x="497" 
d="M16 0l171 266l-158 244h108l111 -182l111 182h108l-158 -244l172 -266h-116l-117 199l-117 -199h-115v0z" />
    <glyph glyph-name="N" unicode="N" horiz-adv-x="685" 
d="M597 0h-126l-283 528v-528h-100v653h138l271 -514v514h100v-653z" />
    <glyph glyph-name="A" unicode="A" horiz-adv-x="678" 
d="M570 0l-73 168h-315l-73 -168h-97l273 653h106l275 -653h-96zM217 252h244l-126 306z" />
    <glyph glyph-name="comma" unicode="," horiz-adv-x="280" 
d="M20 -127l62 238h115l-87 -238h-90z" />
    <glyph glyph-name="aacute" unicode="&#xe1;" horiz-adv-x="553" 
d="M294 724h105l-132 -144h-67zM281 522q55 -3 98 -23q18 -9 36 -22t32 -32t22.5 -44.5t8.5 -59.5v-341h-88l-12 62l-10 -12t-29 -25.5t-46.5 -25t-61.5 -11.5q-83 0 -134 37.5t-51 120.5q0 48 23 79.5t56.5 50t71 25.5t66.5 7h121v34q0 36 -16 56.5t-36 31.5q-23 12 -51 16
q-38 0 -71 -8t-57 -18q-28 -11 -52 -26v80q28 13 58 24q26 9 58 16.5t64 7.5zM239 64q60 0 98 28.5t47 74.5v73h-53q-19 0 -50.5 -1.5t-61.5 -9.5t-52 -26.5t-22 -52.5q0 -21 9 -37t22.5 -27t30.5 -16.5t32 -5.5z" />
    <glyph glyph-name="agrave" unicode="&#xe0;" horiz-adv-x="553" 
d="M346 579h-67l-132 144h104zM281 522q-32 0 -64 -7.5t-58 -16.5q-30 -11 -58 -24v-80q24 15 52 26q24 10 57 18t71 8q28 -4 51 -16q20 -11 36 -31.5t16 -56.5v-34h-121q-29 0 -66.5 -7t-71 -25.5t-56.5 -50t-23 -79.5q0 -83 51 -120.5t134 -37.5q34 0 61.5 11.5t46.5 25
t29 25.5l10 12l12 -62h88v341q0 34 -8.5 59.5t-22.5 44.5t-32 32t-36 22q-43 20 -98 23zM239 64q-15 0 -32 5.5t-30.5 16.5t-22.5 27t-9 37q0 34 22 52.5t52 26.5t61.5 9.5t50.5 1.5h53v-73q-9 -46 -47 -74.5t-98 -28.5z" />
    <glyph glyph-name="egrave" unicode="&#xe8;" horiz-adv-x="557" 
d="M347 579h-67l-132 144h104zM321 -12q-86 0 -139.5 25.5t-83.5 65.5t-41 89.5t-11 97.5t15.5 94t45 82t72.5 58t99 22q67 0 112 -23.5t72 -61t38 -83t11 -88.5v-32h-365q4 -48 22 -85q8 -16 20 -31.5t29.5 -27.5t40.5 -19t53 -7q32 0 60.5 7.5t50.5 16.5q26 11 48 25
l1 -86l-11.5 -6.5t-31.5 -13.5t-47.5 -13t-59.5 -6zM411 304q0 25 -7.5 50.5t-23.5 46t-41 33t-61 12.5q-31 0 -55.5 -12.5t-41.5 -33t-26 -46t-9 -50.5h265z" />
    <glyph glyph-name="eacute" unicode="&#xe9;" horiz-adv-x="557" 
d="M304 724h105l-132 -144h-67zM321 -12q-86 0 -139.5 25.5t-83.5 65.5t-41 89.5t-11 97.5t15.5 94t45 82t72.5 58t99 22q67 0 112 -23.5t72 -61t38 -83t11 -88.5v-32h-365q4 -48 22 -85q8 -16 20 -31.5t29.5 -27.5t40.5 -19t53 -7q32 0 60.5 7.5t50.5 16.5q26 11 48 25
l1 -86l-11.5 -6.5t-31.5 -13.5t-47.5 -13t-59.5 -6zM411 304q0 25 -7.5 50.5t-23.5 46t-41 33t-61 12.5q-31 0 -55.5 -12.5t-41.5 -33t-26 -46t-9 -50.5h265z" />
    <glyph glyph-name="igrave" unicode="&#xec;" horiz-adv-x="279" 
d="M206 579h-67l-132 144h104zM181 0h-94v510h94v-510z" />
    <glyph glyph-name="iacute" unicode="&#xed;" horiz-adv-x="281" 
d="M167 724h107l-134 -144h-67zM181 0h-94v510h94v-510z" />
    <glyph glyph-name="oacute" unicode="&#xf3;" 
d="M336 724h105l-132 -144h-67zM304 522q39 0 84.5 -11.5t84.5 -41.5t65.5 -82t26.5 -133t-26.5 -132.5t-65.5 -81t-84.5 -41t-84.5 -11.5q-38 0 -83 11.5t-84 41t-65 81t-26 132.5t26 133t65 82t84 41.5t83 11.5zM304 64q33 0 62.5 11.5t51 35.5t34.5 59.5t13 83.5t-13 84
t-34.5 60t-51 36t-62.5 12q-32 0 -60.5 -12t-50 -36t-34 -60t-12.5 -84t12.5 -83.5t34 -59.5t50 -35.5t60.5 -11.5z" />
    <glyph glyph-name="ograve" unicode="&#xf2;" 
d="M366 579h-67l-132 144h104zM304 522q-38 0 -83 -11.5t-84 -41.5t-65 -82t-26 -133t26 -132.5t65 -81t84 -41t83 -11.5q39 0 84.5 11.5t84.5 41t65.5 81t26.5 132.5t-26.5 133t-65.5 82t-84.5 41.5t-84.5 11.5zM304 64q-32 0 -60.5 11.5t-50 35.5t-34 59.5t-12.5 83.5
t12.5 84t34 60t50 36t60.5 12q33 0 62.5 -12t51 -36t34.5 -60t13 -84t-13 -83.5t-34.5 -59.5t-51 -35.5t-62.5 -11.5z" />
    <glyph glyph-name="uacute" unicode="&#xfa;" horiz-adv-x="612" 
d="M335 724h107l-134 -144h-67zM272 -12q-100 0 -146 59t-46 168v295h95v-269q0 -91 23 -134t81 -43q40 0 69.5 15t49.5 42.5t30 66t10 85.5v237h94v-510h-79l-15 81q-24 -41 -70 -67t-96 -26z" />
    <glyph glyph-name="ugrave" unicode="&#xf9;" horiz-adv-x="612" 
d="M345 579h-67l-132 144h104zM272 -12q50 0 96 26t70 67l15 -81h79v510h-94v-237q0 -47 -10 -85.5t-30 -66t-49.5 -42.5t-69.5 -15q-58 0 -81 43t-23 134v269h-95v-295q0 -109 46 -168t146 -59z" />
    <glyph glyph-name="quotesingle" unicode="'" horiz-adv-x="272" 
d="M95 699h82v-238h-82v238z" />
    <glyph glyph-name="yacute" unicode="&#xfd;" horiz-adv-x="506" 
d="M256 581h-70l94 144h108zM382 510l-131 -416l-136 416h-108l194 -480q-8 -37 -27 -65q-17 -25 -48.5 -45t-84.5 -20v-78q36 0 66 9t55 23t45 32.5t35 37.5q35 45 57 103l191 483h-108z" />
    <glyph glyph-name="exclam" unicode="!" horiz-adv-x="389" 
d="M235 194h-77l-15 459h107zM250 54q0 -23 -15.5 -38.5t-37.5 -15.5q-23 0 -38.5 15.5t-15.5 38.5q0 22 15.5 37.5t38.5 15.5q22 0 37.5 -15.5t15.5 -37.5z" />
    <glyph glyph-name="question" unicode="?" horiz-adv-x="437" 
d="M395 529q2 -14 3.5 -26.5t0.5 -25.5q-1 -38 -16 -68.5t-36 -58t-45.5 -54t-45.5 -56.5q-13 -18 -17.5 -35t-4.5 -38l-89 3q0 24 3.5 42.5t11 35.5t20 34t30.5 38q14 16 29.5 33t28 36t21 40.5t8.5 45.5q0 19 -5.5 36.5t-17.5 31t-31 21.5t-47 8q-20 0 -42.5 -3.5t-44 -9
t-39 -11t-26.5 -8.5v96q13 4 31 9t39 9.5t43.5 7.5t43.5 3q30 0 61.5 -8t58.5 -24.5t47 -42t27 -61.5zM192 107q22 0 37.5 -15.5t15.5 -37.5q0 -23 -15.5 -38.5t-37.5 -15.5q-23 0 -38.5 15.5t-15.5 38.5q0 22 15.5 37.5t38.5 15.5z" />
    <glyph glyph-name="zero" unicode="0" horiz-adv-x="532" 
d="M263 665q49 0 90 -14.5t71 -52.5t46.5 -104t16.5 -168t-16.5 -168t-46.5 -103.5t-71 -52t-90 -14.5t-90 14.5t-71 52t-46.5 103.5t-16.5 168t16.5 168t46.5 104t71 52.5t90 14.5zM263 72q62 0 89.5 60.5t27.5 193.5t-27.5 194t-89.5 61q-57 0 -86 -61t-29 -194t29 -193.5
t86 -60.5z" />
    <glyph glyph-name="one" unicode="1" horiz-adv-x="561" 
d="M352 653v-653h-100v518l-95 -78l-48 77l156 136h87zM140 83h331v-83h-331v83z" />
    <glyph glyph-name="two" unicode="2" horiz-adv-x="532" 
d="M468 83v-83h-429v42q0 62 23 106.5t57.5 79t75 61.5t75 53.5t57.5 55.5t23 67q0 52 -28 79.5t-81 27.5q-39 0 -76 -20.5t-55 -52.5l-72 42q14 27 35.5 49.5t48 39t57 26t62.5 9.5q43 0 81.5 -11.5t67.5 -35.5t46.5 -62t17.5 -91q0 -46 -22.5 -82t-57 -66t-74 -56.5
t-74 -53.5t-57 -57t-22.5 -67h321z" />
    <glyph glyph-name="three" unicode="3" horiz-adv-x="521" 
d="M322 337q55 -11 92.5 -52t37.5 -106q0 -52 -18 -88.5t-48.5 -59t-70 -33t-82.5 -10.5q-60 0 -113 28q-19 10 -35.5 21.5t-33.5 28.5l59 61q8 -11 28 -23.5t46 -21t54.5 -10.5t52 7.5t38.5 32.5t15 65q0 35 -14.5 58t-35.5 37t-45 19.5t-43 5.5h-65v83h62q18 0 42 4
t45.5 15.5t36 31.5t14.5 53q0 39 -15 61t-38 30.5t-51 6t-54 -10.5t-46 -19t-28 -21l-58 61q16 16 32.5 27t35.5 20q51 26 112 26q42 0 81 -10t69 -31.5t48 -55.5t18 -82q0 -61 -37 -100t-91 -49h3v0z" />
    <glyph glyph-name="four" unicode="4" horiz-adv-x="523" 
d="M499 234v-86h-82v-148h-100v148h-298v85l256 420h142v-419h82zM317 234v332l-199 -333z" />
    <glyph glyph-name="five" unicode="5" horiz-adv-x="549" 
d="M443 360q29 -29 42.5 -67t13.5 -85q0 -45 -16.5 -85.5t-44.5 -70.5q-29 -30 -73 -47q-20 -8 -43 -12.5t-49 -4.5q-32 0 -61.5 8t-54.5 20t-44.5 26.5t-32.5 28.5l67 65q25 -26 56.5 -42.5t69.5 -16.5q65 0 102 40q17 16 26 40t9 51q0 58 -31 89q-34 34 -97 34
q-22 0 -49.5 -5t-47.5 -20h1l-7.5 -7.5t-5.5 -7.5q-3 -4 -5 -9l-85 19l21 352h360v-89h-270q-3 -40 -6.5 -81t-6.5 -81q3 2 5.5 2t6.5 2q23 8 44 11.5t45 3.5q51 0 92 -15t69 -46z" />
    <glyph glyph-name="six" unicode="6" horiz-adv-x="527" 
d="M256 -11q-80 4 -132 58q-47 48 -62 137q-12 71 -8 152q11 209 118 285q34 24 72 33.5t74 10t67 -6.5t52 -16l-26 -74q-17 8 -41.5 11t-53.5 3q-47 0 -79.5 -23t-52.5 -58t-29.5 -75.5t-9.5 -76.5q16 17 37 30q18 11 44 21t60 10q47 0 83.5 -16t61 -43.5t37 -64
t12.5 -76.5q0 -46 -9.5 -79t-24.5 -55.5t-33 -37t-34 -23.5q-33 -19 -59.5 -22.5t-34.5 -3.5q-15 -1 -29 0zM159 203q2 -62 28 -97.5t82 -35.5q48 0 77.5 35.5t27.5 98.5v-1q0 61 -28.5 92.5t-76.5 31.5q-112 0 -110 -124z" />
    <glyph glyph-name="seven" unicode="7" horiz-adv-x="531" 
d="M466 653v-87l-244 -566h-102l240 564h-311v89h417z" />
    <glyph glyph-name="eight" unicode="8" horiz-adv-x="527" 
d="M353 349l10 -4.5t25 -13.5t33 -22.5t33 -31.5t25 -41.5t10 -51.5q0 -38 -9.5 -66.5t-25 -49.5t-35 -35t-40.5 -23q-48 -21 -110 -22q-66 0 -117 21q-22 9 -42.5 23t-36.5 35t-25.5 50t-8.5 67q1 42 22.5 71t47.5 49q30 23 69 38l-19 7.5t-42.5 27t-42.5 52t-19 80.5
q0 29 9 51t24 38.5t34.5 27.5t39.5 19q48 17 108 20q55 -3 98 -20q18 -8 36 -19t32 -27.5t22.5 -38.5t8.5 -51q0 -41 -17.5 -71t-38.5 -49.5t-39 -29.5t-19 -10zM158 490q0 -23 19.5 -43t42.5 -35q27 -18 63 -32q0 -1 12 6.5t27 23.5t27 41t12 58q0 26 -12 41t-27.5 22
t-31 8.5t-21.5 1.5h-18.5t-38 -7.5t-37.5 -26.5t-17 -58zM269 71q31 1 57 13q21 11 39 33t18 67q0 29 -21.5 52t-47.5 39q-31 18 -69 32q-28 -15 -50 -34q-19 -17 -34.5 -41.5t-15.5 -56.5q0 -42 19.5 -63.5t42.5 -30.5q27 -11 62 -10z" />
    <glyph glyph-name="nine" unicode="9" horiz-adv-x="527" 
d="M276 664q80 -4 132 -58q47 -48 62 -137q12 -71 8 -152q-11 -209 -118 -285q-35 -24 -72.5 -33.5t-73.5 -10t-67 6.5t-52 16l26 74q17 -8 41.5 -11t53.5 -3q46 0 79 23t53 58t29.5 75.5t9.5 76.5q-16 -18 -37 -31q-18 -11 -44 -20.5t-60 -9.5q-47 0 -83.5 16t-61 43.5
t-37 64t-12.5 76.5q0 46 9.5 79t24.5 55.5t33 37t34 23.5q33 19 59.5 22.5t34.5 3.5q14 1 29 0zM373 450q-2 62 -28 97.5t-82 35.5q-48 0 -77.5 -35.5t-27.5 -98.5v1q0 -61 28.5 -92.5t76.5 -31.5q112 0 110 124z" />
    <glyph glyph-name="quotedbl" unicode="&#x22;" horiz-adv-x="549" 
d="M159 699h83v-240h-83v240zM304 701h86v-240h-86v240z" />
    <glyph glyph-name="B" unicode="B" horiz-adv-x="582" 
d="M354 332q0 -1 11.5 -3t28 -7.5t36.5 -15.5t36.5 -26.5t28 -40t11.5 -55.5q0 -63 -24 -99.5t-62 -55t-85.5 -24t-95.5 -5.5h-156v653h170q48 0 91 -8t75 -29t51 -56.5t19 -90.5q0 -43 -21 -70t-46 -42t-46.5 -20zM184 376h85q22 0 43.5 5.5t38.5 18t27 32.5t10 48t-10 46
t-27.5 27.5t-40.5 13t-48 3.5h-78v-194zM265 81q26 0 50.5 4.5t43 15.5t30 31t11.5 52t-11.5 53.5t-31 34t-45.5 17.5t-54 5h-74v-213h81z" />
    <glyph glyph-name="C" unicode="C" horiz-adv-x="572" 
d="M365 665q35 0 67.5 -4.5t56.5 -9.5q28 -6 52 -14v-86q-42 11 -86.5 17.5t-87.5 5t-82 -14.5t-68.5 -41.5t-46.5 -75t-17 -116.5t17 -117t46.5 -75.5t68.5 -41.5t82 -14.5t87.5 5.5t86.5 18v-82q-24 -9 -52 -16q-24 -6 -56.5 -10.5t-67.5 -4.5q-48 0 -103 14.5t-101.5 52
t-77 103t-30.5 168.5q0 68 14 120t38 89.5t56 62.5t66.5 40t70 21t67.5 6z" />
    <glyph glyph-name="D" unicode="D" horiz-adv-x="684" 
d="M83 0v653h192q72 0 135.5 -22t110.5 -63.5t74.5 -101t27.5 -134.5q0 -70 -22 -130.5t-62.5 -105.5t-98 -70.5t-129.5 -25.5h-228zM183 87h120q43 0 82 18.5t68 51.5t46 77.5t17 97.5t-15.5 96t-43.5 73.5t-65.5 47t-80.5 16.5h-128v-478z" />
    <glyph glyph-name="E" unicode="E" horiz-adv-x="513" 
d="M194 294v-206h248v-88h-348v653h347l-15 -89h-232v-181h221v-89h-221v0z" />
    <glyph glyph-name="equal" unicode="=" horiz-adv-x="600" 
d="M47 402h506v-88h-506v88zM47 192h506v-88h-506v88z" />
    <glyph glyph-name="G" unicode="G" horiz-adv-x="687" 
d="M370 357h228l-1 -338q-45 -12 -103 -22t-118.5 -9t-118.5 16.5t-103.5 53.5t-73 103t-27.5 165t27.5 165.5t73 104.5t103.5 54.5t118 14.5t117.5 -15t102.5 -33v-91q-36 15 -81.5 28t-94 17t-95 -4t-82.5 -35t-58.5 -77t-22.5 -129q0 -69 15 -116.5t42.5 -76.5t65.5 -42
t84 -13q68 0 100 3q18 2 30 4v191h-128v81z" />
    <glyph glyph-name="H" unicode="H" horiz-adv-x="690" 
d="M596 653v-653h-101v272h-301v-272h-100v653h100v-293h301v293h101z" />
    <glyph glyph-name="I" unicode="I" horiz-adv-x="278" 
d="M189 653v-653h-100v653h100z" />
    <glyph glyph-name="J" unicode="J" horiz-adv-x="325" 
d="M255 654v-476q0 -44 -13 -79q-15 -37 -40 -60q-22 -24 -59 -38q-36 -14 -76 -14q-12 0 -24 1t-22 3v94q6 -1 13 -2q6 -1 14.5 -2t19.5 0q40 2 63 23q24 22 24 74l-1 476h101z" />
    <glyph glyph-name="K" unicode="K" horiz-adv-x="605" 
d="M335 368l254 -368h-116l-224 322h-55v-322h-100v653h100v-243h55l179 243h119l-212 -285v0z" />
    <glyph glyph-name="L" unicode="L" horiz-adv-x="475" 
d="M455 0h-367v654h100v-566h267v-88z" />
    <glyph glyph-name="M" unicode="M" horiz-adv-x="893" 
d="M251 653l200 -535l188 535h161h-161h161v-653h-100v555l-96 -278q-42 -122 -97 -277h-113l-204 555v-555h-100v653h161z" />
    <glyph glyph-name="O" unicode="O" horiz-adv-x="735" 
d="M369 665q49 0 104 -14.5t101.5 -52t77 -103t30.5 -167.5q0 -69 -14 -121t-38 -90t-55.5 -62.5t-66.5 -39.5t-71 -21t-68 -6t-68.5 6t-71.5 21t-67 39.5t-56 62.5t-38.5 90t-14.5 121q0 102 31 167.5t78 103t102.5 52t104.5 14.5zM369 77q45 0 83 13t65.5 43t42.5 78
t15 118q0 68 -15 115t-42.5 76.5t-65.5 42.5t-83 13q-46 0 -84.5 -13t-66 -42.5t-43 -77t-15.5 -115.5q0 -69 15.5 -117t43 -78t66 -43t84.5 -13z" />
    <glyph glyph-name="P" unicode="P" horiz-adv-x="529" 
d="M239 653q54 0 101.5 -10.5t83 -35t56.5 -64.5t21 -100q0 -58 -21 -98t-55.5 -65t-79 -36t-91.5 -11h-71v-233h-100v653h156zM246 322q28 0 55 6t48 20t33.5 37t12.5 58q0 36 -12.5 59.5t-34 37t-50.5 19t-61 5.5h-54v-242h63z" />
    <glyph glyph-name="R" unicode="R" horiz-adv-x="583" 
d="M553 0h-108l-103 198l-5.5 10t-15.5 22t-25 22.5t-33 10.5h-80v-263h-100v653h155q42 0 88 -3t84.5 -21.5t64 -58.5t25.5 -113q0 -51 -23 -81t-50 -46q-33 -18 -73 -26q23 -5 46 -16.5t39 -44.5zM244 352q28 0 54.5 1.5t47 11.5t33 31.5t12.5 60.5q0 40 -12.5 62t-34 32
t-50.5 11.5t-61 1.5h-50v-212h61z" />
    <glyph glyph-name="Q" unicode="Q" horiz-adv-x="736" 
d="M683 326q0 -69 -14.5 -121.5t-38.5 -90t-56 -62.5t-67 -39l162 -136h-125l-133 112q-2 0 -17 -0.5t-25 -0.5q-47 0 -102.5 14.5t-103 52t-79 103t-31.5 168.5t31.5 168.5t79 103.5t103 52.5t102.5 14.5q48 0 103.5 -14.5t102 -52.5t77.5 -103.5t31 -168.5zM160 326
q0 -69 16 -116.5t44 -77t66.5 -42.5t82.5 -13q45 0 83 13t65 43t42.5 77.5t15.5 116.5q0 68 -15.5 115.5t-42.5 77t-65 43t-83 13.5q-44 0 -82.5 -13.5t-66.5 -43.5t-44 -77.5t-16 -115.5z" />
    <glyph glyph-name="S" unicode="S" horiz-adv-x="525" 
d="M402 503q-35 26 -77.5 41t-82.5 15q-47 0 -75.5 -19t-28.5 -61q0 -22 10.5 -37.5t28 -27t40.5 -20t49 -17.5q34 -12 69 -25.5t63.5 -35.5t46 -55.5t17.5 -83.5q0 -49 -19 -84.5t-50 -59t-71.5 -34.5t-83.5 -11q-64 0 -125 24.5t-105 70.5l38 83q39 -41 92 -63t104 -22
q49 0 81 20t33 65q0 24 -11 41.5t-30 30t-43.5 22t-49.5 18.5q-33 11 -66.5 25t-60.5 35.5t-43.5 53.5t-16.5 79q0 48 18 82.5t47.5 56.5t67.5 32.5t79 10.5q54 0 104 -17t88 -46z" />
    <glyph glyph-name="T" unicode="T" horiz-adv-x="521" 
d="M510 653v-89h-201v-564h-100v564h-198v89h499z" />
    <glyph glyph-name="U" unicode="U" horiz-adv-x="703" 
d="M91 235v419h100v-416q0 -32 9.5 -61t29.5 -51.5t50.5 -36t72.5 -13.5t72 13.5t49.5 36t29 51.5t9.5 61v416h100v-419q0 -82 -39 -137t-98 -82.5t-127 -27.5t-126 27.5t-96 82.5t-36 137z" />
    <glyph glyph-name="V" unicode="V" horiz-adv-x="667" 
d="M555 653h106l-264 -653h-127l-264 653h105l223 -563l221 563v0z" />
    <glyph glyph-name="W" unicode="W" horiz-adv-x="938" 
d="M829 654h107l-214 -654h-132l-124 565l-117 -565h-136l-211 654h106l173 -554l114 554h149l119 -554l166 554v0z" />
    <glyph glyph-name="Y" unicode="Y" horiz-adv-x="625" 
d="M493 653h121l-249 -383v-270h-100v270l-254 383h121l181 -286l180 286v0z" />
    <glyph glyph-name="Z" unicode="Z" horiz-adv-x="531" 
d="M478 653v-90l-325 -475h337v-88h-458v91l332 474h-324v88h438v0z" />
    <glyph glyph-name="braceleft" unicode="{" horiz-adv-x="322" 
d="M303 695q-11 0 -27.5 -1.5t-32 -7.5t-27 -18.5t-11.5 -33.5v-202q0 -33 -9.5 -54t-23 -33.5t-28.5 -19t-25 -12.5q10 -6 25 -14.5t28.5 -22t23 -33.5t9.5 -50v-200q0 -21 7.5 -33.5t21 -19t31 -8.5t38.5 -2v-64h-38q-19 0 -44.5 2.5t-50.5 22.5h1q-25 17 -38.5 47
t-13.5 71v191q0 11 -2 22q-3 20 -17 37q-15 14 -63 14v70q26 0 40.5 4t22.5 12q7 8 11 18t6 19q2 11 2 21v199q0 42 13.5 71.5t36.5 46.5q22 17 59 20t75 3v-62z" />
    <glyph glyph-name="braceright" unicode="}" horiz-adv-x="322" 
d="M19 -73q10 0 27 1.5t32.5 7.5t27 18.5t11.5 33.5v202q0 33 9.5 54t23 33.5t28 19t25.5 12.5q-11 6 -25.5 14t-28 21.5t-23 34t-9.5 50.5v200q0 21 -7.5 33.5t-21 19t-31 8.5t-38.5 2v64h38q19 0 44.5 -2.5t50.5 -22.5h-1q25 -17 38.5 -47t13.5 -71v-191q0 -11 2 -22
q2 -9 5.5 -19t11.5 -18q15 -14 63 -14v-70q-26 0 -40.5 -4t-22.5 -12t-11.5 -18t-5.5 -19q-2 -11 -2 -21v-199q0 -42 -13.5 -71.5t-36.5 -46.5q-22 -17 -59 -20t-75 -3v62z" />
    <glyph glyph-name="bracketleft" unicode="[" horiz-adv-x="300" 
d="M256 676h-96v-733h96v-77h-183v887h183v-77z" />
    <glyph glyph-name="bracketright" unicode="]" horiz-adv-x="299" 
d="M44 -57h97v733h-97v77h182v-887h-182v77z" />
    <glyph glyph-name="semicolon" unicode=";" horiz-adv-x="240" 
d="M47 410v108h110v-108h-110zM-22 -127l62 238h115l-87 -238h-90z" />
    <glyph glyph-name="colon" unicode=":" horiz-adv-x="275" 
d="M83 0v106h109v-106h-109zM83 403v107h109v-107h-109z" />
    <glyph glyph-name="hyphen" unicode="-" horiz-adv-x="333" 
d="M38 307h257v-76h-257v76z" />
    <glyph glyph-name="plus" unicode="+" horiz-adv-x="610" 
d="M563 213h-217v-213h-88v213h-211v83h211v214h89v-214h216v-83z" />
    <glyph glyph-name="parenleft" unicode="(" horiz-adv-x="360" 
d="M241 -139q-89 101 -132 213.5t-43 229.5q-1 118 41.5 233t125.5 218h105q-89 -96 -131.5 -212t-40.5 -237q2 -120 46.5 -235t133.5 -211h-103z" />
    <glyph glyph-name="parenright" unicode=")" horiz-adv-x="360" 
d="M119 754q89 -101 132 -213.5t43 -229.5q1 -118 -41.5 -233t-125.5 -218h-105q89 96 131.5 212t40.5 237q-2 120 -46.5 235t-133.5 211h103z" />
    <glyph glyph-name="slash" unicode="/" horiz-adv-x="278" 
d="M215 710h88l-240 -722h-88z" />
    <glyph glyph-name="backslash" unicode="\" horiz-adv-x="278" 
d="M-25 710h88l240 -722h-88z" />
    <glyph glyph-name="ampersand" unicode="&#x26;" horiz-adv-x="719" 
d="M568 117q32 -33 57 -59q10 -11 20.5 -21.5t18 -19t12.5 -13l5 -4.5h-107l-60 63q-23 -21 -55 -38q-27 -14 -67 -25.5t-93 -11.5q-67 3 -119 26q-22 10 -43.5 24.5t-38 36.5t-26.5 51.5t-10 68.5q0 41 18.5 74t44.5 58t53.5 41.5t45.5 24.5q-9 10 -22 26.5t-25 36.5
t-20 42t-8 45q0 44 16.5 76t43 53t60 31.5t68.5 10.5q34 0 67 -11t58.5 -32t41.5 -51t17 -67q0 -21 -6.5 -39.5t-18 -35.5t-26 -32t-29.5 -27q-36 -29 -82 -52l154 -186q15 18 28 44q11 23 21 58t14 86h81q-1 -41 -11 -84q-8 -37 -26.5 -81.5t-51.5 -86.5zM338 635
q-21 0 -41 -6t-35.5 -18t-24.5 -28.5t-7 -37.5q0 -14 10 -34.5t23 -38.5q15 -22 34 -44q9 4 32.5 14.5t47.5 27t42 37.5t17 45q-2 21 -10.5 37t-22 26t-30.5 15t-35 5zM292 76q42 0 73 8t51 18q24 11 39 26l-168 205q-68 -28 -98.5 -68t-30.5 -79q0 -22 9.5 -42t27 -35
t42 -24t55.5 -9z" />
    <glyph glyph-name="registered" unicode="&#xae;" horiz-adv-x="807" 
d="M404 712q75 0 141 -28.5t115.5 -77.5t78.5 -115.5t29 -142.5q0 -74 -29 -139.5t-78.5 -114.5t-115.5 -78t-141 -29t-141.5 29t-116 78t-78.5 114.5t-29 139.5q0 76 29 142.5t78.5 115.5t116 77.5t141.5 28.5zM404 69q57 0 108.5 22t90 59.5t61 88.5t22.5 109
q0 59 -22.5 111t-61 91t-90 61.5t-108.5 22.5q-58 0 -109.5 -22.5t-90 -61.5t-61 -91t-22.5 -111q0 -58 22.5 -109t61 -88.5t90 -59.5t109.5 -22zM558 160h-74l-72 163h-66v-163h-70v378h150q42 0 64 -15t32 -32q11 -20 13 -46q0 -22 -6 -37.5t-15.5 -26t-21.5 -16.5t-24 -9
zM346 383h62q20 0 30.5 7.5t15.5 17.5q6 11 7 26q-1 14 -7 25q-5 9 -15.5 17t-30.5 8h-62v-101z" />
    <glyph glyph-name="at" unicode="@" horiz-adv-x="830" 
d="M414 715q76 0 143 -28.5t117 -77.5t78.5 -115.5t28.5 -141.5q0 -31 -9 -71.5t-29 -77t-52.5 -62t-79.5 -25.5q-27 0 -45 7.5t-29 18.5t-16 24.5t-7 24.5q-22 -25 -49.5 -41t-62.5 -19q-73 -6 -116.5 23t-61 77t-11 106t33.5 110t72.5 88.5t106.5 41.5q43 5 81.5 -18
t59.5 -62l21 29l46 -11l-58 -301q6 -29 28.5 -34.5t46.5 11.5t43 57.5t19 104.5q0 62 -23.5 116.5t-64 95t-95 63.5t-115.5 23t-115 -23t-94 -63.5t-63 -95t-23 -116.5t23 -116t63 -94.5t94 -63.5t115 -23q12 0 28 0.5t32.5 2t31.5 3.5t26 6l-23 -66q-12 -4 -26 -7
q-13 -2 -30 -4t-40 -2q-76 0 -142.5 28.5t-116 77.5t-78.5 115.5t-29 141.5t29 141.5t78.5 115.5t116 77.5t142.5 28.5zM398 208q34 3 60.5 23.5t44 49.5t26 63t6.5 64q-4 41 -35.5 66.5t-71.5 24.5q-41 -1 -69 -20.5t-45.5 -48.5t-24 -63t-4.5 -63q4 -46 35 -73t78 -23z
" />
    <glyph glyph-name="bar" unicode="|" horiz-adv-x="218" 
d="M67 -250v1000h84v-1000h-84z" />
    <glyph glyph-name="underscore" unicode="_" horiz-adv-x="500" 
d="M500 -75v-50h-500v50h500z" />
    <glyph glyph-name="bullet" unicode="&#x2022;" horiz-adv-x="505" 
d="M128 477q50 50 123 50q38 0 68.5 -12.5t56.5 -37.5q52 -52 53 -126q-1 -72 -53 -124q-26 -26 -56.5 -39.5t-68.5 -13.5t-68 13.5t-55 39.5q-52 52 -52 124q0 74 52 126z" />
    <glyph glyph-name="quotedblleft" unicode="&#x201c;" horiz-adv-x="562" 
d="M189 700h87l-69 -244h-111zM375 700h91l-69 -244h-112z" />
    <glyph glyph-name="less" unicode="&#x3c;" horiz-adv-x="605" 
d="M554 426l-394 -173l394 -173v-88l-508 223v76l508 223v-88z" />
    <glyph glyph-name="greater" unicode="&#x3e;" horiz-adv-x="600" 
d="M46 80l394 173l-394 173v88l508 -223v-76l-508 -223v88z" />
    <glyph glyph-name="caron" unicode="&#x2c7;" horiz-adv-x="278" 
d="M185 583h-91l-100 144h80l66 -98l65 98h79z" />
    <glyph glyph-name="quotedblright" unicode="&#x201d;" horiz-adv-x="562" 
d="M373 456h-87l69 244h111zM187 456h-91l69 244h112z" />
    <glyph glyph-name="divide" unicode="&#xf7;" horiz-adv-x="600" 
d="M47 297h506v-88h-506v88zM224 460q0 32 22.5 54.5t54.5 22.5q15 0 28.5 -6.5t24 -17t17 -24.5t6.5 -29q0 -14 -6 -28t-16.5 -24.5t-24 -17t-28.5 -6.5q-16 0 -30.5 6t-25 16.5t-16.5 24.5t-6 29zM224 46q0 32 22.5 54t54.5 22q30 0 53 -22.5t23 -53.5q0 -14 -6 -28
t-16.5 -25t-24 -17.5t-28.5 -6.5q-16 0 -30.5 6.5t-25 17t-16.5 24.5t-6 29z" />
    <glyph glyph-name="ellipsis" unicode="&#x2026;" horiz-adv-x="999" 
d="M111 0v115h114v-115h-114zM443 0v115h112v-115h-112zM776 0v115h112v-115h-112z" />
    <glyph glyph-name="logicalnot" unicode="&#xac;" horiz-adv-x="601" 
d="M554 402v-294h-86v208h-421v86h507z" />
    <glyph glyph-name="guillemotleft" unicode="&#xab;" horiz-adv-x="563" 
d="M51 269l143 202h88l-130 -202l130 -202h-88zM253 269l143 202h88l-130 -202l130 -202h-88z" />
    <glyph glyph-name="guillemotright" unicode="&#xbb;" horiz-adv-x="556" 
d="M505 269l-143 -202h-88l130 202l-130 202h88zM303 269l-143 -202h-88l130 202l-130 202h88z" />
    <glyph glyph-name="circumflex" unicode="&#x2c6;" horiz-adv-x="281" 
d="M93 710h91l100 -144h-80l-66 98l-65 -98h-79z" />
    <glyph glyph-name="questiondown" unicode="&#xbf;" horiz-adv-x="474" 
d="M49 -17q-2 14 -3.5 26.5t-0.5 25.5q1 38 16 68.5t36 58t45.5 54t45.5 56.5q13 18 17.5 35t4.5 38l89 -3q0 -24 -3.5 -42.5t-11 -35.5t-20 -34t-30.5 -38q-14 -16 -29.5 -33t-28 -36t-21 -40.5t-8.5 -45.5q0 -19 5.5 -36.5t17.5 -31t31 -21.5t47 -8q20 0 42.5 3.5t44 9
t39 11t26.5 8.5v-96q-13 -4 -31 -9t-39 -9.5t-43.5 -7.5t-43.5 -3q-30 0 -61.5 8t-58.5 24.5t-47 42t-27 61.5zM252 405q-22 0 -37.5 15.5t-15.5 37.5q0 23 15.5 38.5t37.5 15.5q23 0 38.5 -15.5t15.5 -38.5q0 -22 -15.5 -37.5t-38.5 -15.5z" />
    <glyph glyph-name="exclamdown" unicode="&#xa1;" horiz-adv-x="387" 
d="M158 318l-15 -459h107l-15 459h-77zM143 458q0 23 15.5 38.5t37.5 15.5q23 0 38.5 -15.5t15.5 -38.5q0 -22 -15.5 -37.5t-38.5 -15.5q-22 0 -37.5 15.5t-15.5 37.5z" />
    <glyph glyph-name="OE" unicode="&#x152;" horiz-adv-x="946" 
d="M878 87v-87h-392v1q-26 -7 -52 -10t-49 -3q-51 0 -109.5 17t-108 58t-82 111t-32.5 176q0 68 15 121t40.5 93.5t59.5 68t70.5 45t74.5 25.5t72 8q23 0 49 -2.5t52 -9.5h392l-16 -89h-276v-204h265v-89h-265v-230h292zM385 76q27 0 52.5 3t48.5 14v508q1 0 -4.5 3t-17.5 7
t-31.5 7.5t-47.5 3.5q-48 0 -89 -18.5t-71.5 -53.5t-48 -85.5t-17.5 -114.5q0 -66 17.5 -117t48 -86t71.5 -53t89 -18z" />
    <glyph glyph-name="acircumflex" unicode="&#xe2;" horiz-adv-x="553" 
d="M221 725h91l100 -144h-80l-66 98l-65 -98h-79zM281 522q55 -3 98 -23q18 -9 36 -22t32 -32t22.5 -44.5t8.5 -59.5v-341h-88l-12 62l-10 -12t-29 -25.5t-46.5 -25t-61.5 -11.5q-83 0 -134 37.5t-51 120.5q0 48 23 79.5t56.5 50t71 25.5t66.5 7h121v34q0 36 -16 56.5
t-36 31.5q-23 12 -51 16q-38 0 -71 -8t-57 -18q-28 -11 -52 -26v80q28 13 58 24q26 9 58 16.5t64 7.5zM239 64q60 0 98 28.5t47 74.5v73h-53q-19 0 -50.5 -1.5t-61.5 -9.5t-52 -26.5t-22 -52.5q0 -21 9 -37t22.5 -27t30.5 -16.5t32 -5.5z" />
    <glyph glyph-name="adieresis" unicode="&#xe4;" horiz-adv-x="553" 
d="M132 688h88v-99h-88v99zM317 688h88v-99h-88v99zM281 522q-32 0 -64 -7.5t-58 -16.5q-30 -11 -58 -24v-80q24 15 52 26q24 10 57 18t71 8q28 -4 51 -16q20 -11 36 -31.5t16 -56.5v-34h-121q-29 0 -66.5 -7t-71 -25.5t-56.5 -50t-23 -79.5q0 -83 51 -120.5t134 -37.5
q34 0 61.5 11.5t46.5 25t29 25.5l10 12l12 -62h88v341q0 34 -8.5 59.5t-22.5 44.5t-32 32t-36 22q-43 20 -98 23zM239 64q-15 0 -32 5.5t-30.5 16.5t-22.5 27t-9 37q0 34 22 52.5t52 26.5t61.5 9.5t50.5 1.5h53v-73q-9 -46 -47 -74.5t-98 -28.5z" />
    <glyph glyph-name="atilde" unicode="&#xe3;" horiz-adv-x="553" 
d="M427 658q-19 -43 -41.5 -56t-46.5 -10.5t-49 14t-50 18t-48.5 1t-44.5 -36.5l-31 43q21 43 45.5 55.5t50.5 9t51.5 -15.5t49.5 -18.5t45 0.5t37 41zM281 522q55 -3 98 -23q18 -9 36 -22t32 -32t22.5 -44.5t8.5 -59.5v-341h-88l-12 62l-10 -12t-29 -25.5t-46.5 -25
t-61.5 -11.5q-83 0 -134 37.5t-51 120.5q0 48 23 79.5t56.5 50t71 25.5t66.5 7h121v34q0 36 -16 56.5t-36 31.5q-23 12 -51 16q-38 0 -71 -8t-57 -18q-28 -11 -52 -26v80q28 13 58 24q26 9 58 16.5t64 7.5zM239 64q60 0 98 28.5t47 74.5v73h-53q-19 0 -50.5 -1.5t-61.5 -9.5
t-52 -26.5t-22 -52.5q0 -21 9 -37t22.5 -27t30.5 -16.5t32 -5.5z" />
    <glyph glyph-name="aring" unicode="&#xe5;" horiz-adv-x="553" 
d="M370 793q31 -32 32 -79q-2 -49 -32 -78q-35 -33 -80 -33q-47 0 -80 33q-31 28 -31 78q0 48 31 79q30 29 80 32q48 -3 80 -32zM337 670q18 16 18 44t-18 46t-47 18q-27 0 -45 -18q-19 -18 -19 -46t19 -44q18 -19 45 -19q29 0 47 19zM281 522q55 -3 98 -23q18 -9 36 -22
t32 -32t22.5 -44.5t8.5 -59.5v-341h-88l-12 62l-10 -12t-29 -25.5t-46.5 -25t-61.5 -11.5q-83 0 -134 37.5t-51 120.5q0 48 23 79.5t56.5 50t71 25.5t66.5 7h121v34q0 36 -16 56.5t-36 31.5q-23 12 -51 16q-38 0 -71 -8t-57 -18q-28 -11 -52 -26v80q28 13 58 24
q26 9 58 16.5t64 7.5zM239 64q60 0 98 28.5t47 74.5v73h-53q-19 0 -50.5 -1.5t-61.5 -9.5t-52 -26.5t-22 -52.5q0 -21 9 -37t22.5 -27t30.5 -16.5t32 -5.5z" />
    <glyph glyph-name="ecircumflex" unicode="&#xea;" horiz-adv-x="557" 
d="M232 725h91l100 -144h-80l-66 98l-65 -98h-79zM321 -12q-86 0 -139.5 25.5t-83.5 65.5t-41 89.5t-11 97.5t15.5 94t45 82t72.5 58t99 22q67 0 112 -23.5t72 -61t38 -83t11 -88.5v-32h-365q4 -48 22 -85q8 -16 20 -31.5t29.5 -27.5t40.5 -19t53 -7q32 0 60.5 7.5
t50.5 16.5q26 11 48 25l1 -86l-11.5 -6.5t-31.5 -13.5t-47.5 -13t-59.5 -6zM411 304q0 25 -7.5 50.5t-23.5 46t-41 33t-61 12.5q-31 0 -55.5 -12.5t-41.5 -33t-26 -46t-9 -50.5h265z" />
    <glyph glyph-name="edieresis" unicode="&#xeb;" horiz-adv-x="557" 
d="M144 687h88v-99h-88v99zM329 687h88v-99h-88v99zM321 -12q-86 0 -139.5 25.5t-83.5 65.5t-41 89.5t-11 97.5t15.5 94t45 82t72.5 58t99 22q67 0 112 -23.5t72 -61t38 -83t11 -88.5v-32h-365q4 -48 22 -85q8 -16 20 -31.5t29.5 -27.5t40.5 -19t53 -7q32 0 60.5 7.5
t50.5 16.5q26 11 48 25l1 -86l-11.5 -6.5t-31.5 -13.5t-47.5 -13t-59.5 -6zM411 304q0 25 -7.5 50.5t-23.5 46t-41 33t-61 12.5q-31 0 -55.5 -12.5t-41.5 -33t-26 -46t-9 -50.5h265z" />
    <glyph glyph-name="icircumflex" unicode="&#xee;" horiz-adv-x="278" 
d="M93 725h91l100 -144h-80l-66 98l-65 -98h-79zM185 0h-94v510h94v-510z" />
    <glyph glyph-name="idieresis" unicode="&#xef;" horiz-adv-x="293" 
d="M10 687h88v-99h-88v99v0zM195 687h88v-99h-88v99v0zM191 0h-94v510h94v-510z" />
    <glyph glyph-name="ntilde" unicode="&#xf1;" horiz-adv-x="612" 
d="M141 587q6 20 14.5 38.5t20.5 33t28 23t37 8.5q20 0 42 -6t40 -13q13 -4 23 -7t19 -3q15 0 24 4t14 10t7.5 13t5.5 14h58q-5 -20 -15 -38.5t-24.5 -33.5t-31.5 -24t-35 -9q-17 0 -33 5t-31.5 11t-31.5 11.5t-32 7.5q-13 0 -21 -5t-13 -12t-8 -15t-6 -13h-51zM340 522
q-50 0 -96 -26t-70 -67l-15 81h-79v-510h94v237q0 47 10 85.5t30 66t49.5 42.5t69.5 15q58 0 81 -43t23 -134v-269h95v295q0 109 -46 168t-146 59z" />
    <glyph glyph-name="ocircumflex" unicode="&#xf4;" 
d="M260 725h91l100 -144h-80l-66 98l-65 -98h-79zM304 522q39 0 84.5 -11.5t84.5 -41.5t65.5 -82t26.5 -133t-26.5 -132.5t-65.5 -81t-84.5 -41t-84.5 -11.5q-38 0 -83 11.5t-84 41t-65 81t-26 132.5t26 133t65 82t84 41.5t83 11.5zM304 64q33 0 62.5 11.5t51 35.5
t34.5 59.5t13 83.5t-13 84t-34.5 60t-51 36t-62.5 12q-32 0 -60.5 -12t-50 -36t-34 -60t-12.5 -84t12.5 -83.5t34 -59.5t50 -35.5t60.5 -11.5z" />
    <glyph glyph-name="odieresis" unicode="&#xf6;" 
d="M168 687h88v-99h-88v99zM353 687h88v-99h-88v99zM304 522q-38 0 -83 -11.5t-84 -41.5t-65 -82t-26 -133t26 -132.5t65 -81t84 -41t83 -11.5q39 0 84.5 11.5t84.5 41t65.5 81t26.5 132.5t-26.5 133t-65.5 82t-84.5 41.5t-84.5 11.5zM304 64q-32 0 -60.5 11.5t-50 35.5
t-34 59.5t-12.5 83.5t12.5 84t34 60t50 36t60.5 12q33 0 62.5 -12t51 -36t34.5 -60t13 -84t-13 -83.5t-34.5 -59.5t-51 -35.5t-62.5 -11.5z" />
    <glyph glyph-name="otilde" unicode="&#xf5;" 
d="M136 587q6 20 14.5 38.5t20.5 33t28 23t37 8.5q20 0 42 -6t40 -13q13 -4 23 -7t19 -3q15 0 24 4t14 10t7.5 13t5.5 14h58q-5 -20 -15 -38.5t-24.5 -33.5t-31.5 -24t-35 -9q-17 0 -33 5t-31.5 11t-31.5 11.5t-32 7.5q-13 0 -21 -5t-13 -12t-8 -15t-6 -13h-51zM304 522
q-38 0 -83 -11.5t-84 -41.5t-65 -82t-26 -133t26 -132.5t65 -81t84 -41t83 -11.5q39 0 84.5 11.5t84.5 41t65.5 81t26.5 132.5t-26.5 133t-65.5 82t-84.5 41.5t-84.5 11.5zM304 64q-32 0 -60.5 11.5t-50 35.5t-34 59.5t-12.5 83.5t12.5 84t34 60t50 36t60.5 12
q33 0 62.5 -12t51 -36t34.5 -60t13 -84t-13 -83.5t-34.5 -59.5t-51 -35.5t-62.5 -11.5z" />
    <glyph glyph-name="ucircumflex" unicode="&#xfb;" horiz-adv-x="612" 
d="M257 725h91l100 -144h-80l-66 98l-65 -98h-79zM272 -12q-100 0 -146 59t-46 168v295h95v-269q0 -91 23 -134t81 -43q40 0 69.5 15t49.5 42.5t30 66t10 85.5v237h94v-510h-79l-15 81q-24 -41 -70 -67t-96 -26z" />
    <glyph glyph-name="udieresis" unicode="&#xfc;" horiz-adv-x="612" 
d="M166 688h88v-99h-88v99zM351 688h88v-99h-88v99zM272 -12q50 0 96 26t70 67l15 -81h79v510h-94v-237q0 -47 -10 -85.5t-30 -66t-49.5 -42.5t-69.5 -15q-58 0 -81 43t-23 134v269h-95v-295q0 -109 46 -168t146 -59z" />
    <glyph glyph-name="asciitilde" unicode="~" 
d="M542 271q-22 -49 -46.5 -71.5t-51 -28t-54.5 2t-56.5 18.5t-57 21.5t-56 11.5t-54 -12t-50.5 -49l-47 66q24 49 51.5 71t56 27t58 -3t59 -20t57.5 -22.5t53.5 -10.5t48.5 14.5t41 53.5z" />
    <glyph glyph-name="asciicircum" unicode="^" horiz-adv-x="604" 
d="M335 699l209 -398h-92l-154 307l-146 -307h-92l201 398h74z" />
    <glyph glyph-name="grave" unicode="`" horiz-adv-x="282" 
d="M7 724h108l94 -144h-70z" />
    <glyph glyph-name="periodcentered" unicode="&#xb7;" horiz-adv-x="278" 
d="M80 337q0 25 17 42t42 17t42 -17t17 -42t-17 -42t-42 -17t-42 17t-17 42z" />
    <glyph glyph-name="quotesinglbase" unicode="&#x201a;" horiz-adv-x="286" 
d="M141 -133h-89l70 245h112z" />
    <glyph glyph-name="dieresis" unicode="&#xa8;" horiz-adv-x="293" 
d="M10 687h88v-99h-88v99zM195 687h88v-99h-88v99z" />
    <glyph glyph-name="quoteleft" unicode="&#x2018;" horiz-adv-x="286" 
d="M145 701h89l-70 -245h-112z" />
    <glyph glyph-name="quoteright" unicode="&#x2019;" horiz-adv-x="286" 
d="M141 456h-89l70 245h112z" />
    <glyph glyph-name="quotedblbase" unicode="&#x201e;" horiz-adv-x="552" 
d="M373 -130h-87l69 244h111zM187 -130h-91l69 244h112z" />
    <glyph glyph-name="degree" unicode="&#xb0;" horiz-adv-x="411" 
d="M205 705q31 0 58.5 -11.5t47.5 -31t31.5 -45.5t11.5 -56t-11.5 -56.5t-31.5 -46t-47.5 -31t-58.5 -11.5t-58 11.5t-47 31t-31.5 46t-11.5 56.5t11.5 56t31.5 45.5t47 31t58 11.5zM206 480q34 0 58 24t24 57q0 16 -6.5 30.5t-17.5 25t-26 17t-32 6.5t-31.5 -6.5t-26 -17
t-18 -25t-6.5 -30.5q0 -33 24.5 -57t57.5 -24z" />
    <glyph glyph-name="dollar" unicode="$" horiz-adv-x="531" 
d="M232 -88v854h58v-854h-58zM236 -12q-41 0 -85.5 10t-89.5 28l28 82q14 -8 35 -14q18 -5 45.5 -9t65.5 -4q24 0 45.5 9t38 24.5t26 36t9.5 42.5q0 24 -12.5 44t-31.5 37t-42.5 31.5t-45.5 26.5q-27 16 -52.5 35t-45.5 42t-32 53t-12 69q0 53 22.5 87.5t54 55t64.5 28.5
t55 8q30 0 55.5 -6.5t45.5 -14.5q22 -10 41 -21l-26 -78q-54 24 -84.5 26.5t-31.5 2.5q-53 0 -79 -24t-26 -64q0 -24 12 -43t30.5 -35t40 -28.5t41.5 -23.5q27 -14 52.5 -34.5t46 -47t33 -58t13.5 -68.5q0 -52 -18 -90.5t-47.5 -64t-66 -38t-72.5 -12.5z" />
    <glyph glyph-name="asterisk" unicode="*" horiz-adv-x="558" 
d="M327 699l-9 -147q40 16 71 27q26 10 48 18t22 9l27 -81l-139 -49q11 -14 25.5 -33.5t28.5 -37.5q16 -21 33 -43l-68 -62l-87 131q-16 -26 -31 -51q-13 -21 -26 -43t-22 -37l-75 61l88 115l-141 49l27 81l140 -53l-7 146h95z" />
    <glyph glyph-name="notequal" unicode="&#x2260;" horiz-adv-x="833" 
 />
    <glyph glyph-name="tilde" unicode="&#x2dc;" horiz-adv-x="271" 
d="M-31 587q6 20 14.5 38.5t20.5 33t28 23t37 8.5q20 0 42 -6t40 -13q13 -4 23 -7t19 -3q15 0 24 4t14 10t7.5 13t5.5 14h58q-5 -20 -15 -38.5t-24.5 -33.5t-31.5 -24t-35 -9q-17 0 -33 5t-31.5 11t-31.5 11.5t-32 7.5q-13 0 -21 -5t-13 -12t-8 -15t-6 -13h-51z" />
    <glyph glyph-name="radical" unicode="&#x221a;" horiz-adv-x="833" 
 />
    <glyph glyph-name="Euro" unicode="&#x20ac;" horiz-adv-x="643" 
d="M448 581q-73 0 -126 -38t-74 -127h294l-13 -51h-290q-1 -10 -1.5 -19t-0.5 -20t0.5 -20.5t1.5 -18.5h276l-13 -51h-255q21 -90 74.5 -127.5t126.5 -37.5q32 0 62 4t53 9q26 6 49 14v-79q-20 -9 -46 -16q-22 -6 -52.5 -11t-65.5 -4q-42 0 -90 11t-91 38.5t-76.5 75.5
t-46.5 123h-91l11 51h74q-1 9 -1.5 18.5t-0.5 20.5t0.5 20t1.5 19h-85l11 51h80q13 74 46.5 122.5t76.5 76.5t91 39t90 11q35 0 65.5 -4.5t52.5 -9.5q26 -6 46 -14v-80q-23 7 -49 12q-23 5 -53 8.5t-62 3.5z" />
    <glyph glyph-name="sterling" unicode="&#xa3;" horiz-adv-x="532" 
d="M358 582q-35 0 -56 -10t-33 -30t-17 -50t-7 -70v-23h140v-84h-140v-232h221v-83h-406v83h84v232h-84v84h84v33q0 73 20.5 119t52 71t69 34t72.5 9q30 0 53.5 -4t40.5 -9q19 -5 34 -12l-11 -75q-12 4 -29 8q-14 3 -36 6t-52 3z" />
    <glyph glyph-name="section" unicode="&#xa7;" horiz-adv-x="514" 
d="M441 276q0 -33 -19.5 -64t-45.5 -54q34 -27 48 -55.5t13 -57.5q0 -37 -18 -66.5t-48 -50.5t-69.5 -32t-82.5 -11q-27 0 -49 4t-39 9q-19 5 -34 13l17 74q18 -6 46.5 -11.5t59.5 -5.5q24 0 46 3t39.5 11t28 22.5t10.5 38.5q0 23 -9 37.5t-24 23.5t-33.5 16t-37.5 15
q-26 10 -54 23.5t-50.5 32.5t-37 43.5t-14.5 57.5q0 34 16 64t45 51q-23 22 -36 53.5t-13 64.5q0 34 13.5 60.5t37 44t53.5 26.5t63 9q40 0 69.5 -5t48.5 -10q22 -6 37 -14l-10 -71q-15 6 -34 10q-17 4 -41 7.5t-55 3.5q-33 0 -53.5 -7t-30.5 -19t-10 -28t7 -34
q13 -22 36.5 -37.5t51.5 -29t56.5 -27t52 -31t38.5 -41t15 -56.5zM180 263q8 -15 21.5 -25t29.5 -16.5t33 -11.5t32 -10q21 8 37.5 28.5t17.5 46.5q0 17 -20 33t-44.5 28t-44.5 19.5l-20 7.5q-35 -9 -49 -36.5t7 -62.5v-1z" />
    <glyph glyph-name="Adieresis" unicode="&#xc4;" horiz-adv-x="678" 
d="M200 811h88v-99h-88v99v0zM385 811h88v-99h-88v99v0zM570 0h96l-275 653h-106l-273 -653h97l73 168h315zM217 252l118 306l126 -306h-244z" />
    <glyph glyph-name="brokenbar" unicode="&#xa6;" horiz-adv-x="216" 
d="M149 312h-82v364h82v-364zM67 -167v364h82v-364h-82z" />
    <glyph glyph-name="minus" unicode="&#x2212;" horiz-adv-x="600" 
d="M47 297h506v-88h-506v88z" />
    <glyph glyph-name="Odieresis" unicode="&#xd6;" horiz-adv-x="735" 
d="M231 811h88v-99h-88v99zM416 811h88v-99h-88v99zM369 665q-49 0 -104.5 -14.5t-102.5 -52t-78 -103t-31 -167.5q0 -69 14.5 -121t38.5 -90t56 -62.5t67 -39.5t71.5 -21t68.5 -6t68 6t71 21t66.5 39.5t55.5 62.5t38 90t14 121q0 102 -30.5 167.5t-77 103t-101.5 52
t-104 14.5zM369 77q-46 0 -84.5 13t-66 43t-43 78t-15.5 117q0 68 15.5 115.5t43 77t66 42.5t84.5 13q45 0 83 -13t65.5 -42.5t42.5 -76.5t15 -115q0 -70 -15 -118t-42.5 -78t-65.5 -43t-83 -13z" />
    <glyph glyph-name="Udieresis" unicode="&#xdc;" horiz-adv-x="722" 
d="M227 811h88v-99h-88v99zM412 811h88v-99h-88v99zM100 235v419h100v-416q0 -32 9.5 -61t29.5 -51.5t50.5 -36t72.5 -13.5t72 13.5t49.5 36t29 51.5t9.5 61v416h100v-419q0 -82 -39 -137t-98 -82.5t-127 -27.5t-126 27.5t-96 82.5t-36 137z" />
    <glyph glyph-name="Edieresis" unicode="&#xcb;" horiz-adv-x="513" 
d="M158 811h88v-99h-88v99v0zM343 811h88v-99h-88v99v0zM194 294h221v89h-221v181h232l15 89h-347v-653h348v88h-248v206z" />
    <glyph glyph-name="Idieresis" unicode="&#xcf;" horiz-adv-x="293" 
d="M10 811h88v-99h-88v99v0zM195 811h88v-99h-88v99v0zM97 654v-654h100v654h-100z" />
    <glyph glyph-name="ae" unicode="&#xe6;" horiz-adv-x="886" 
d="M477 224v-4q2 -14 9 -39t26 -49t52 -42t87 -18q32 0 60 5.5t49 12.5q25 8 46 19v-88l-12.5 -5.5t-33.5 -11.5t-49 -11t-60 -5q-79 0 -131 22.5t-84 59.5q-14 -14 -34 -28.5t-45.5 -26.5t-57 -19.5t-69.5 -7.5q-40 0 -74 9.5t-58.5 29t-38.5 50t-14 72.5q0 49 20.5 79
t52 46.5t70 22.5t74.5 6h115v26q0 18 -3 37t-12 34.5t-26.5 25.5t-46.5 10q-46 0 -85 -8t-88 -31v80q35 17 81 30t92 13q44 0 86 -16.5t70 -48.5q27 29 67.5 47t95.5 18q65 0 109.5 -22.5t72 -59.5t39.5 -84t12 -95v-35h-364zM608 436q-32 0 -55.5 -9t-39.5 -24.5
t-24.5 -36.5t-11.5 -44v-4v-10h264q0 25 -7.5 48.5t-23.5 41t-41 28t-61 10.5zM377 224h-53h-49.5t-60 -6.5t-50.5 -22t-20 -46.5q0 -21 9 -35.5t23 -23.5t30.5 -13.5t31.5 -4.5q60 0 95 27t44 73v-1v53z" />
    <glyph glyph-name="scaron" unicode="&#x161;" horiz-adv-x="417" 
d="M265 582h-91l-100 144h80l66 -98l65 98h79zM145 381q0 -18 8 -30t21 -20.5t30 -15t35 -12.5q26 -9 52.5 -19.5t48 -28t35 -44.5t13.5 -69q0 -67 -43 -108q-17 -16 -36 -25.5t-36 -14t-31 -5.5t-21 -1q-43 -1 -77 13t-58 31q-28 19 -49 44l68 50l19 -18q3 -3 11.5 -9
t21 -13t28.5 -12t34 -5q30 0 53.5 18.5t23.5 51.5q0 19 -8 32t-20.5 21.5t-29 14.5t-34.5 11q-25 8 -58.5 23.5t-52.5 35.5q-19 21 -29 45t-10 53q0 41 17.5 70t46.5 47.5t65.5 25.5t74 4t72.5 -17t61 -37l-49 -63l-25 12q-12 6 -25 11q-11 4 -25.5 7.5t-29.5 4.5
q-7 0 -22.5 -1.5t-31 -7.5t-27 -18t-11.5 -32z" />
    <glyph glyph-name="Scaron" unicode="&#x160;" horiz-adv-x="525" 
d="M267 679h-91l-100 144h80l66 -98l65 98h79zM402 503q-35 26 -77.5 41t-82.5 15q-47 0 -75.5 -19t-28.5 -61q0 -22 10.5 -37.5t28 -27t40.5 -20t49 -17.5q34 -12 69 -25.5t63.5 -35.5t46 -55.5t17.5 -83.5q0 -49 -19 -84.5t-50 -59t-71.5 -34.5t-83.5 -11q-64 0 -125 24.5
t-105 70.5l38 83q39 -41 92 -63t104 -22q49 0 81 20t33 65q0 24 -11 41.5t-30 30t-43.5 22t-49.5 18.5q-33 11 -66.5 25t-60.5 35.5t-43.5 53.5t-16.5 79q0 48 18 82.5t47.5 56.5t67.5 32.5t79 10.5q54 0 104 -17t88 -46z" />
    <glyph glyph-name="plusminus" unicode="&#xb1;" horiz-adv-x="615" 
d="M61 89h507v-89h-507v89zM47 359h213v149h93v-149h212v-89h-212v-147h-94v147h-212v89z" />
    <glyph glyph-name="Aring" unicode="&#xc5;" horiz-adv-x="678" 
d="M334 870q43 0 72.5 -29.5t29.5 -73.5q0 -43 -29.5 -72.5t-72.5 -29.5q-44 0 -73.5 29.5t-29.5 72.5q0 44 29.5 73.5t73.5 29.5zM335 704q26 0 44 18t18 44q0 27 -18 45.5t-44 18.5q-27 0 -45.5 -18.5t-18.5 -45.5q0 -26 18.5 -44t45.5 -18zM497 168h-315l-73 -168h-97
l273 653h106l275 -653h-96zM461 252l-126 306l-118 -306h244z" />
    <glyph glyph-name="Atilde" unicode="&#xc3;" horiz-adv-x="678" 
d="M480 778q-19 -43 -41.5 -56t-46.5 -10.5t-49 14t-50 18t-48.5 1t-44.5 -36.5l-31 43q21 43 45.5 55.5t50.5 9t51.5 -15.5t49.5 -18.5t45 0.5t37 41zM497 168h-315l-73 -168h-97l273 653h106l275 -653h-96zM461 252l-126 306l-118 -306h244z" />
    <glyph glyph-name="Yacute" unicode="&#xdd;" horiz-adv-x="627" 
d="M341 856h105l-132 -144h-67zM615 653l-249 -383v-270h-100v270l-254 383h121l181 -286l180 286h121z" />
    <glyph glyph-name="Agrave" unicode="&#xc0;" horiz-adv-x="678" 
d="M379 712h-67l-132 144h104zM570 0h96l-275 653h-106l-273 -653h97l73 168h315zM217 252l118 306l126 -306h-244z" />
    <glyph glyph-name="Aacute" unicode="&#xc1;" horiz-adv-x="678" 
d="M357 856h105l-132 -144h-67zM497 168h-315l-73 -168h-97l273 653h106l275 -653h-96zM461 252l-126 306l-118 -306h244z" />
    <glyph glyph-name="Egrave" unicode="&#xc8;" horiz-adv-x="513" 
d="M343 712h-67l-132 144h104zM194 294h221v89h-221v181h232l15 89h-347v-653h348v88h-248v206z" />
    <glyph glyph-name="Eacute" unicode="&#xc9;" horiz-adv-x="513" 
d="M300 856h105l-132 -144h-67zM194 88h248v-88h-348v653h347l-15 -89h-232v-181h221v-89h-221v-206z" />
    <glyph glyph-name="Ydieresis" unicode="&#x178;" horiz-adv-x="627" 
d="M178 811h88v-99h-88v99v0zM363 811h88v-99h-88v99v0zM494 653l-180 -286l-181 286h-121l254 -383v-270h100v270l249 383h-121z" />
    <glyph glyph-name="ydieresis" unicode="&#xff;" horiz-adv-x="506" 
d="M115 687h88v-99h-88v99zM300 687h88v-99h-88v99zM382 510l-131 -416l-136 416h-108l194 -480q-8 -37 -27 -65q-17 -25 -48.5 -45t-84.5 -20v-78q36 0 66 9t55 23t45 32.5t35 37.5q35 45 57 103l191 483h-108z" />
    <glyph glyph-name="Igrave" unicode="&#xcc;" horiz-adv-x="279" 
d="M206 704h-67l-132 144h104zM89 653v-653h100v653h-100z" />
    <glyph glyph-name="zcaron" unicode="&#x17e;" horiz-adv-x="502" 
d="M294 582h-91l-100 144h80l66 -98l65 98h79zM447 510v-84l-295 -349h307l-16 -77h-400v84v0l295 350h-281v76h390z" />
    <glyph glyph-name="Zcaron" unicode="&#x17d;" horiz-adv-x="531" 
d="M325 711h-91l-100 144h80l66 -98l65 98h79zM478 563l-325 -475h337v-88h-458v91l332 474h-324v88h438v-90z" />
    <glyph glyph-name="Iacute" unicode="&#xcd;" horiz-adv-x="279" 
d="M167 856h105l-132 -144h-67zM189 653v-653h-100v653h100z" />
    <glyph glyph-name="Oacute" unicode="&#xd3;" horiz-adv-x="735" 
d="M402 856h105l-132 -144h-67zM369 665q49 0 104 -14.5t101.5 -52t77 -103t30.5 -167.5q0 -69 -14 -121t-38 -90t-55.5 -62.5t-66.5 -39.5t-71 -21t-68 -6t-68.5 6t-71.5 21t-67 39.5t-56 62.5t-38.5 90t-14.5 121q0 102 31 167.5t78 103t102.5 52t104.5 14.5zM369 77
q45 0 83 13t65.5 43t42.5 78t15 118q0 68 -15 115t-42.5 76.5t-65.5 42.5t-83 13q-46 0 -84.5 -13t-66 -42.5t-43 -77t-15.5 -115.5q0 -69 15.5 -117t43 -78t66 -43t84.5 -13z" />
    <glyph glyph-name="Uacute" unicode="&#xda;" horiz-adv-x="722" 
d="M396 856h105l-132 -144h-67zM100 235v419h100v-416q0 -32 9.5 -61t29.5 -51.5t50.5 -36t72.5 -13.5t72 13.5t49.5 36t29 51.5t9.5 61v416h100v-419q0 -82 -39 -137t-98 -82.5t-127 -27.5t-126 27.5t-96 82.5t-36 137z" />
    <glyph glyph-name="Ograve" unicode="&#xd2;" horiz-adv-x="735" 
d="M436 712h-67l-132 144h104zM369 665q-49 0 -104.5 -14.5t-102.5 -52t-78 -103t-31 -167.5q0 -69 14.5 -121t38.5 -90t56 -62.5t67 -39.5t71.5 -21t68.5 -6t68 6t71 21t66.5 39.5t55.5 62.5t38 90t14 121q0 102 -30.5 167.5t-77 103t-101.5 52t-104 14.5zM369 77
q-46 0 -84.5 13t-66 43t-43 78t-15.5 117q0 68 15.5 115.5t43 77t66 42.5t84.5 13q45 0 83 -13t65.5 -42.5t42.5 -76.5t15 -115q0 -70 -15 -118t-42.5 -78t-65.5 -43t-83 -13z" />
    <glyph glyph-name="Ugrave" unicode="&#xd9;" horiz-adv-x="722" 
d="M423 712h-67l-132 144h104zM101 235v419h100v-416q0 -32 9.5 -61t29.5 -51.5t50.5 -36t72.5 -13.5t72 13.5t49.5 36t29 51.5t9.5 61v416h100v-419q0 -82 -39 -137t-98 -82.5t-127 -27.5t-126 27.5t-96 82.5t-36 137z" />
    <glyph glyph-name="emdash" unicode="&#x2014;" horiz-adv-x="1001" 
d="M0 307h1001v-73h-1001v73z" />
    <glyph glyph-name="endash" unicode="&#x2013;" horiz-adv-x="501" 
d="M0 305h501v-71h-501v71z" />
    <glyph glyph-name="acute" unicode="&#xb4;" horiz-adv-x="279" 
d="M167 724h105l-132 -144h-67z" />
    <glyph glyph-name="thorn" unicode="&#xfe;" horiz-adv-x="605" 
d="M343 -12q-50 0 -98 19t-76 59v-202h-94v771h94v-197v-1q18 24 44 42q22 16 54.5 29.5t75.5 13.5q51 0 91.5 -21.5t68.5 -57.5t42.5 -84.5t14.5 -102.5t-14.5 -102.5t-42.5 -85.5t-68.5 -58.5t-91.5 -21.5zM322 446q-30 0 -57.5 -11.5t-48.5 -35t-34 -59.5t-13 -84t13 -84
t34 -60t48.5 -36t57.5 -12q28 0 53 12t44 36t30 60t11 84t-11 84t-30 59.5t-44 35t-53 11.5z" />
    <glyph glyph-name="Thorn" unicode="&#xde;" horiz-adv-x="556" 
d="M228 572q54 0 101.5 -10.5t83 -35t56.5 -64.5t21 -100q0 -58 -21 -98t-55.5 -65t-79 -36t-91.5 -11h-98v-152h-100v699h100v-127h83zM235 241q28 0 55 6t48 20t33.5 37t12.5 58q0 36 -12.5 59.5t-34 37t-50.5 19t-61 5.5h-81v-242h90z" />
    <glyph glyph-name="Ntilde" unicode="&#xd1;" horiz-adv-x="722" 
d="M502 779q-19 -43 -41.5 -56t-46.5 -10.5t-49 14t-50 18t-48.5 1t-44.5 -36.5l-31 43q21 43 45.5 55.5t50.5 9t51.5 -15.5t49.5 -18.5t45 0.5t37 41zM597 0h-126l-283 528v-528h-100v653h138l271 -514v514h100v-653z" />
    <glyph glyph-name="daggerdbl" unicode="&#x2021;" horiz-adv-x="558" 
d="M312 435v-182h175v-77h-175v-176h-75v178h-175v75h175v182h-175v75h175v189h75v-189h175v-75h-175z" />
    <glyph glyph-name="copyright" unicode="&#xa9;" horiz-adv-x="834" 
d="M229 358q1 46 16 85t42 66.5t64.5 43t82.5 15.5q26 0 52 -5t56 -14l-6 -70q-30 9 -54 13t-44 4q-59 0 -94.5 -34t-35.5 -104q0 -75 39 -115.5t97 -40.5q36 0 92 23l6 -74q-62 -20 -102 -20q-46 0 -84.5 16t-66.5 46t-44 72t-16 93zM418 725q77 0 145.5 -29.5t120 -80.5
t81.5 -120t30 -148q0 -76 -30 -144t-81.5 -119t-120 -81t-145.5 -30q-78 0 -147 30t-120.5 81t-81.5 119t-30 144q0 79 30 148t81.5 120t120.5 80.5t147 29.5zM418 58q60 0 113 22.5t93 61.5t63.5 92t23.5 113q0 61 -23.5 115.5t-63.5 95t-93 64t-113 23.5t-113.5 -23.5
t-93.5 -64t-63.5 -95t-23.5 -115.5q0 -60 23.5 -113t63.5 -92t93.5 -61.5t113.5 -22.5z" />
    <glyph glyph-name="numbersign" unicode="#" horiz-adv-x="612" 
d="M137 210h-109v81h121q5 32 10 57.5t10 59.5h-114v81h126q8 51 16.5 105.5t16.5 104.5h95l-33 -210h111q8 51 17 105.5t17 104.5h96l-34 -210h101v-81h-113q-5 -32 -9.5 -57.5t-9.5 -59.5h102v-81h-114q-8 -51 -17 -105.5t-17 -104.5h-96l34 210h-111q-8 -51 -17 -105.5
t-17 -104.5h-96zM376 408h-113q-4 -32 -8.5 -57.5t-9.5 -59.5h112z" />
    <glyph glyph-name="trademark" unicode="&#x2122;" horiz-adv-x="891" 
d="M40 699v-71h113v-354h73v354h113v71h-299zM485 700l128 -304l126 304h83v-424h-71v273q-28 -68 -56.5 -137t-55.5 -136h-55l-112 272v-272h-71v424h84z" />
    <glyph glyph-name="AE" unicode="&#xc6;" horiz-adv-x="843" 
d="M768 88v-88h-333h-31v190h-173l-115 -190h-101l399 653h354l-14 -89h-249v-181h250l1 -89h-250l-1 -206h263zM404 488q-32 -54 -62 -105.5t-65 -109.5h126z" />
    <glyph glyph-name="percent" unicode="%" horiz-adv-x="954" 
d="M251 683q22 0 48.5 -8t49 -28t38 -55.5t15.5 -90.5q0 -56 -15.5 -91.5t-38 -55.5t-49 -28t-48.5 -8t-48 8t-49 28t-38.5 55.5t-15.5 91.5q0 55 15.5 90.5t38.5 55.5t49 28t48 8zM251 379q36 0 60 26.5t24 95.5q0 67 -24 93t-60 26q-18 0 -33.5 -6t-27 -20t-18 -36.5
t-6.5 -56.5q0 -35 6.5 -58t18 -37.5t27 -20.5t33.5 -6zM693 387q22 0 48.5 -8t49 -28t38 -55.5t15.5 -90.5q0 -56 -15.5 -91.5t-38 -55.5t-49 -28t-48.5 -8t-48 8t-49 28t-38.5 55.5t-15.5 91.5q0 55 15.5 90.5t38.5 55.5t49 28t48 8zM693 83q36 0 60 26.5t24 95.5
q0 67 -24 93t-60 26q-18 0 -33.5 -6t-27 -20t-18 -36.5t-6.5 -56.5q0 -35 6.5 -58t18 -37.5t27 -20.5t33.5 -6zM653 720h72l-433 -742h-72z" />
    <glyph glyph-name="ordfeminine" unicode="&#xaa;" horiz-adv-x="343" 
d="M157 442q37 0 60.5 17.5t28.5 45.5v44h-32q-11 0 -30 -1t-37.5 -6t-32 -16t-13.5 -32q0 -25 19 -38.5t37 -13.5zM178 734q39 -2 71 -15q26 -11 48.5 -35t22.5 -68v-215l-70 -1l-7 31l-7 -7.5t-19.5 -16.5t-31 -16t-40.5 -7q-55 0 -88.5 25t-33.5 87q0 32 15 53t37 33
t47 17t44 5h80v3q0 23 -10.5 37t-23.5 22q-15 9 -34 12q-26 0 -47.5 -5.5t-37.5 -11.5q-18 -8 -34 -17v59q18 8 38 15q17 6 38.5 11t42.5 5z" />
    <glyph glyph-name="ordmasculine" unicode="&#xba;" horiz-adv-x="363" 
d="M181 711q23 0 50 -7t50.5 -25t39 -49.5t15.5 -80.5q0 -50 -15.5 -81.5t-39 -49.5t-50.5 -25t-50 -7t-50.5 7t-50.5 25t-38.5 49.5t-15.5 81.5q0 49 15.5 80.5t38.5 49.5t50.5 25t50.5 7zM181 442q36 0 61 25.5t25 81.5q0 54 -25 81.5t-61 27.5t-61 -27.5t-25 -81.5
q0 -56 25 -81.5t61 -25.5z" />
    <glyph glyph-name="perthousand" unicode="&#x2030;" horiz-adv-x="1075" 
d="M154 683q22 0 48.5 -8t49 -28t38 -55.5t15.5 -90.5q0 -56 -15.5 -91.5t-38 -55.5t-49 -28t-48.5 -8t-48 8t-49 28t-38.5 55.5t-15.5 91.5q0 55 15.5 90.5t38.5 55.5t49 28t48 8zM154 379q36 0 60 26.5t24 95.5q0 67 -24 93t-60 26q-18 0 -33.5 -6t-27 -20t-18 -36.5
t-6.5 -56.5q0 -35 6.5 -58t18 -37.5t27 -20.5t33.5 -6zM572 353q22 0 48.5 -8t49 -28t38 -55.5t15.5 -90.5q0 -56 -15.5 -91.5t-38 -55.5t-49 -28t-48.5 -8t-48 8t-49 28t-38.5 55.5t-15.5 91.5q0 55 15.5 90.5t38.5 55.5t49 28t48 8zM572 49q36 0 60 26.5t24 95.5
q0 67 -24 93t-60 26q-18 0 -33.5 -6t-27 -20t-18 -36.5t-6.5 -56.5q0 -35 6.5 -58t18 -37.5t27 -20.5t33.5 -6zM921 353q22 0 48.5 -8t49 -28t38 -55.5t15.5 -90.5q0 -56 -15.5 -91.5t-38 -55.5t-49 -28t-48.5 -8t-48 8t-49 28t-38.5 55.5t-15.5 91.5q0 55 15.5 90.5
t38.5 55.5t49 28t48 8zM921 49q36 0 60 26.5t24 95.5q0 67 -24 93t-60 26q-18 0 -33.5 -6t-27 -20t-18 -36.5t-6.5 -56.5q0 -35 6.5 -58t18 -37.5t27 -20.5t33.5 -6zM554 720h72l-433 -742h-72z" />
    <glyph glyph-name="Ccedilla" unicode="&#xc7;" horiz-adv-x="572" 
d="M541 551q-42 11 -86.5 17.5t-87.5 5t-82 -14.5t-68.5 -41.5t-46.5 -75.5t-17 -116q0 -70 17 -117t46.5 -75.5t68.5 -41.5t82 -14.5t87.5 5.5t86.5 18v-82q-20 -8 -46 -14q-22 -5 -51 -10t-61 -6l-23 -30q34 13 63 1.5t43 -35t7 -52.5t-46 -50q-26 -14 -51.5 -16
t-47.5 2.5t-40 12t-29 12.5l18 37l4 -3q43 -22 71.5 -22.5t43.5 10.5t17 28t-8 30.5t-30.5 17.5t-51.5 -10l-13 18l33 49q-47 3 -98.5 19.5t-94 55t-70 102t-27.5 160.5q0 68 14 120t38 89.5t56 62.5t66.5 40t70 21t67.5 6q35 0 67.5 -4.5t56.5 -9.5q28 -6 52 -14v-86v0z
" />
    <glyph glyph-name="cedilla" unicode="&#xb8;" horiz-adv-x="299" 
d="M211 -52q24 10 47 6.5t40.5 -14.5t28 -28.5t10.5 -37.5t-12.5 -39.5t-40.5 -34.5t-55.5 -17.5t-51.5 2t-42.5 12t-28.5 12.5l-5 3l19 40l5 -3q47 -24 77.5 -24.5t47 11t18.5 30.5t-8.5 33.5t-33 19t-55.5 -11.5l-15 20l50 73h43l-38 -52v0z" />
    <glyph glyph-name="cent" unicode="&#xa2;" horiz-adv-x="443" 
d="M415 427q-10 3 -22 7q-11 3 -25.5 5.5t-31.5 4.5l-106 -367q31 -13 62 -13q25 0 47.5 3t39.5 7q19 4 36 11v-72q-12 -8 -30 -13q-15 -5 -38 -8.5t-55 -3.5q-41 0 -84 12l-34 -120h-56l40 141q-24 13 -46 33.5t-38.5 49t-26 65.5t-9.5 85q0 81 25.5 132.5t64 81.5t82.5 41
t82 11h10l32 113h56l-34 -117q28 -6 44 -12l15 -6v-71zM138 254q0 -48 12.5 -84t33.5 -59l96 335q-29 -2 -54.5 -15.5t-45 -38t-31 -59t-11.5 -79.5z" />
    <glyph glyph-name="ccedilla" unicode="&#xe7;" horiz-adv-x="469" 
d="M423 429q-45 15 -93.5 17t-89.5 -16t-67.5 -60t-26.5 -115q0 -74 26.5 -116t67.5 -59.5t90 -14.5t93 20v-72q-12 -8 -30 -13q-15 -5 -38 -8.5t-55 -3.5h-4l-27 -34q24 10 47 6.5t40.5 -14.5t28 -28.5t10.5 -37.5t-12.5 -39.5t-40.5 -34.5t-55.5 -17.5t-51.5 2t-42.5 12
t-28.5 12.5l-5 3l19 40l5 -3q47 -24 77.5 -24.5t47 11t18.5 30.5t-8.5 33.5t-33 19t-55.5 -11.5l-15 20l40 59q-36 6 -73 22t-67 47t-49 78.5t-19 115.5q0 81 25.5 133t64 81.5t82.5 41t82 11.5q32 0 55 -3.5t38 -7.5q18 -5 30 -11v-71v0z" />
    <glyph glyph-name="breve" unicode="&#x2d8;" horiz-adv-x="284" 
d="M231 723h57q0 -28 -12 -52t-32 -42t-48 -28.5t-59 -10.5q-32 0 -59.5 10.5t-48 28.5t-32.5 42t-12 52h59v-1q0 -34 27.5 -57t66.5 -23q19 0 36 6t29.5 17t20 25.5t7.5 31.5v1v0z" />
    <glyph glyph-name="oe" unicode="&#x153;" horiz-adv-x="966" 
d="M885 21l-11.5 -5.5t-31.5 -11.5t-47.5 -11t-59.5 -5q-84 1 -137.5 28t-85.5 70q-20 -29 -46.5 -47.5t-55 -30t-57.5 -16t-54 -4.5q-38 0 -83 11.5t-84 41t-65 81t-26 132.5t26 133t65 82t84 41.5t83 11.5q24 0 51.5 -4t54.5 -14.5t53 -27.5t47 -43q27 41 72.5 65
t114.5 24q65 0 109.5 -22t72 -58t39.5 -82t12 -94v-32h-365q1 -48 19 -85q7 -16 19 -31.5t29.5 -27.5t41.5 -19t56 -7t61 6t51 14q26 9 48 20v-83zM692 446q-36 0 -61 -12.5t-40.5 -33t-23 -46t-7.5 -50.5h265q0 25 -7.5 50.5t-23.5 46t-41 33t-61 12.5zM299 64
q33 0 62.5 11.5t51 35.5t34.5 59.5t13 83.5t-13 84t-34.5 60t-51 36t-62.5 12q-32 0 -60.5 -12t-50 -36t-34 -60t-12.5 -84t12.5 -83.5t34 -59.5t50 -35.5t60.5 -11.5z" />
    <glyph glyph-name="DC2" horiz-adv-x="0" 
 />
    <glyph glyph-name="Lslash" unicode="&#x141;" horiz-adv-x="492" 
d="M188 88h267v-88h-368v233l-63 -36v76l63 36v344h101v-287l203 115v-76l-203 -115v-202v0z" />
    <glyph glyph-name="lslash" unicode="&#x142;" horiz-adv-x="275" 
d="M247 484v-65l-60 -47v-372h-100v292l-62 -49v69l62 48v293h99h1v-215l60 46v0z" />
    <glyph glyph-name="Eth" unicode="&#xd0;" horiz-adv-x="661" 
 />
    <glyph glyph-name="eth" unicode="&#xf0;" horiz-adv-x="833" 
 />
    <glyph glyph-name="dotaccent" unicode="&#x2d9;" horiz-adv-x="284" 
d="M192 699v-99h-100v99h100z" />
    <glyph glyph-name="ring" unicode="&#x2da;" horiz-adv-x="283" 
d="M141 769q45 0 75 -30t30 -74t-30 -73.5t-75 -29.5q-21 0 -40 8t-33.5 22t-22.5 32.5t-8 40.5t8 41t22.5 33t33.5 22t40 8zM141 601q28 0 46.5 19t18.5 45q0 27 -18.5 45.5t-46.5 18.5q-27 0 -46 -18.5t-19 -45.5q0 -26 19 -45t46 -19z" />
    <glyph glyph-name="multiply" unicode="&#xd7;" horiz-adv-x="607" 
d="M67 434l61 62l176 -177l174 177l62 -62l-175 -174l175 -177l-62 -62l-174 177l-176 -177l-61 62l176 177z" />
    <glyph glyph-name="mu" unicode="&#xb5;" horiz-adv-x="612" 
d="M532 510v-510h-79l-15 81q-24 -41 -70 -67t-96 -26q-29 0 -53 5.5t-44 15.5v-145h-95v351v295h95v-269q0 -91 23 -134t81 -43q40 0 69.5 15t49.5 42.5t30 66t10 85.5v237h94z" />
    <glyph glyph-name="oslash" unicode="&#xf8;" horiz-adv-x="733" 
d="M577 426q23 -30 36 -72.5t13 -99.5q0 -81 -26.5 -132.5t-65.5 -81t-84.5 -41t-84.5 -11.5t-85.5 12t-85.5 44l-110 -109l-38 38l110 110q-22 30 -35.5 72t-13.5 99q0 81 26 133t65 82t84 41.5t83 11.5q40 0 87 -12t87 -44l109 110l39 -39zM208 254q0 -57 19 -100l248 248
q-43 44 -110 44q-32 0 -60.5 -12t-50 -36t-34 -60t-12.5 -84zM526 254q0 60 -20 102l-248 -248q21 -22 48.5 -33t58.5 -11q33 0 62.5 11.5t51 35.5t34.5 59.5t13 83.5z" />
    <glyph glyph-name="Otilde" unicode="&#xd5;" horiz-adv-x="735" 
d="M527 777q-19 -43 -41.5 -56t-46.5 -10.5t-49 14t-50 18t-48.5 1t-44.5 -36.5l-31 43q21 43 45.5 55.5t50.5 9t51.5 -15.5t49.5 -18.5t45 0.5t37 41zM369 665q49 0 104 -14.5t101.5 -52t77 -103t30.5 -167.5q0 -69 -14 -121t-38 -90t-55.5 -62.5t-66.5 -39.5t-71 -21
t-68 -6t-68.5 6t-71.5 21t-67 39.5t-56 62.5t-38.5 90t-14.5 121q0 102 31 167.5t78 103t102.5 52t104.5 14.5zM369 77q45 0 83 13t65.5 43t42.5 78t15 118q0 68 -15 115t-42.5 76.5t-65.5 42.5t-83 13q-46 0 -84.5 -13t-66 -42.5t-43 -77t-15.5 -115.5q0 -69 15.5 -117
t43 -78t66 -43t84.5 -13z" />
    <glyph glyph-name="yen" unicode="&#xa5;" horiz-adv-x="597" 
d="M586 509l-175 -281h65v-50h-96l-27 -45v-52h123v-50h-123v-168h-100v168h-134v50h134v52l-28 45h-106v50h74l-182 281h121l169 -279l164 279h121v0z" />
    <glyph glyph-name="Oslash" unicode="&#xd8;" horiz-adv-x="783" 
d="M646 545q26 -38 41.5 -91.5t15.5 -125.5q0 -69 -14 -121t-38 -90t-55.5 -62.5t-66.5 -39.5t-71 -21t-68 -6q-26 0 -55 4t-57.5 13t-56 24t-51.5 38l-77 -78l-40 39l80 81q-27 38 -43 92t-16 127q0 102 31 167.5t78 103t102.5 52t104.5 14.5q26 0 55 -4t57.5 -13t56 -24
t51.5 -38l82 81l38 -38zM181 328q0 -88 26 -145l335 334q-28 32 -66.5 45.5t-85.5 13.5q-46 0 -84.5 -13t-66 -42.5t-43 -77t-15.5 -115.5zM596 329q0 45 -6.5 79.5t-18.5 61.5l-333 -335q28 -31 66.5 -44.5t85.5 -13.5q45 0 83 13t65.5 43t42.5 78t15 118z" />
    <glyph glyph-name="ogonek" unicode="&#x2db;" horiz-adv-x="287" 
d="M72 -142q2 19 14.5 40t30 40.5t37.5 35.5t37 26h16q-25 -40 -40.5 -74.5t-15.5 -60.5q0 -20 8.5 -34t23.5 -14q10 0 27.5 10.5t35.5 24.5q6 -5 11.5 -8t10.5 -5q-28 -42 -52.5 -56t-45.5 -14l-17 -1t-36.5 6t-34.5 26t-10 58z" />
    <glyph glyph-name="paragraph" unicode="&#xb6;" horiz-adv-x="614" 
d="M541 711l-7 -816h-93v733h-104l-7 -733h-93v428h-40q-44 0 -77 16t-55 42.5t-33.5 60.5t-11.5 70t11 70t33.5 61.5t56 46t78.5 21.5h342z" />
    <glyph glyph-name="onehalf" unicode="&#xbd;" horiz-adv-x="841" 
d="M550 709h71l-440 -731h-71zM205 698v-423h-77v315q-14 -12 -30 -25.5t-27 -24.5l-38 64l108 94h64zM808 57v-69h-301v35q-3 33 9 60t33 49.5t47 39.5t51 31q39 22 62 40t23 44q0 30 -24 46.5t-55 16.5q-22 0 -46.5 -12.5t-43.5 -39.5l-60 32q9 20 26 37t38 29t43.5 19
t42.5 7q30 0 57 -9.5t48 -27t33 -42.5t12 -56q0 -32 -13.5 -55t-34 -40t-46 -31t-49.5 -28.5t-44.5 -32.5t-30.5 -43h223z" />
    <glyph glyph-name="onequarter" unicode="&#xbc;" horiz-adv-x="779" 
d="M746 166v-72h-55v-94h-79v94h-202v56l183 285h98v-269h55zM612 166v168q-28 -43 -52.5 -83t-53.5 -85h106zM543 720h71l-443 -742h-70zM205 698v-423h-77v315q-14 -12 -30 -25.5t-27 -24.5l-38 64l108 94h64z" />
    <glyph glyph-name="onesuperior" unicode="&#xb9;" horiz-adv-x="341" 
d="M222 698v-423h-77v315q-14 -12 -30 -25.5t-27 -24.5l-38 64l108 94h64z" />
    <glyph glyph-name="threequarters" unicode="&#xbe;" horiz-adv-x="781" 
d="M748 166v-72h-56v-94h-78v94h-202v56l182 285h98v-269h56zM614 166v168q-28 -43 -53 -83t-54 -85h107zM606 720h70l-442 -742h-71zM319 584q0 -30 -20.5 -54.5t-49.5 -38.5q11 -5 24 -13t24 -20t18 -28.5t7 -38.5q0 -36 -11.5 -62t-31.5 -43.5t-48 -25.5t-62 -8
q-20 1 -44.5 5.5t-41.5 12.5q-13 6 -27.5 16t-28.5 24l53 51q12 -14 32.5 -26.5t49.5 -12.5q2 0 13.5 2.5t25 9t24.5 18t11 30.5q0 13 -3 26t-12 23.5t-24 17.5t-39 7l-66 -1l-4 73h70q11 0 24 4t24.5 10.5t19.5 16t8 21.5q0 27 -11 40.5t-25 19.5q-16 6 -35 6
q-29 0 -51 -12.5t-34 -25.5l-51 51q30 28 56 40q36 18 79 18q30 0 58.5 -7t50.5 -23t35 -41.5t13 -61.5z" />
    <glyph glyph-name="threesuperior" unicode="&#xb3;" horiz-adv-x="354" 
d="M249 488l11.5 -5.5t25 -17.5t25 -31t11.5 -47q-1 -68 -39.5 -102t-110.5 -34q-32 0 -58.5 8t-45.5 19q-23 11 -40 27l52 54q11 -14 35.5 -27.5t50.5 -13.5q19 1 35 9q13 7 24 20.5t11 37.5q0 8 -3 19t-11 21.5t-22.5 17.5t-37.5 7h-70l-5 74h75q10 0 22.5 4t23 10.5
t17.5 15.5t7 19q0 28 -10.5 41.5t-22.5 19.5q-15 6 -33 6q-27 0 -52 -12.5t-36 -25.5l-48 53q32 31 63 43.5t73 12.5q30 0 58 -7.5t49.5 -23.5t34 -41.5t12.5 -61.5q0 -23 -11 -39.5t-24.5 -28t-25 -17l-11.5 -5.5zM319 580q0 36 -13 61.5t-35 41.5t-50.5 23t-58.5 7
q-43 0 -79 -18q-26 -12 -56 -40l51 -51q12 13 34 25.5t51 12.5q19 0 35 -6q14 -6 25 -19.5t11 -40.5q0 -12 -8 -21.5t-19.5 -16t-24.5 -10.5t-24 -4h-70l4 -73l66 1q24 0 39 -7t24 -17.5t12 -23.5t3 -26q0 -19 -11 -30.5t-24.5 -18t-25 -9t-13.5 -2.5q-29 0 -49.5 12.5
t-32.5 26.5l-53 -51q14 -14 28.5 -24t27.5 -16q17 -8 41.5 -12.5t44.5 -5.5q34 0 62 8t48 25.5t31.5 43.5t11.5 62q0 22 -7 38.5t-18 28.5t-24 20t-24 13q29 14 49.5 38.5t20.5 54.5z" />
    <glyph glyph-name="twosuperior" unicode="&#xb2;" horiz-adv-x="367" 
d="M336 344v-69h-301v35q-3 33 9 60t33 49.5t47 39.5t51 31q39 22 62 40t23 44q0 30 -24 46.5t-55 16.5q-22 0 -46.5 -12.5t-43.5 -39.5l-60 32q9 20 26 37t38 29t43.5 19t42.5 7q30 0 57 -9.5t48 -27t33 -42.5t12 -56q0 -33 -13.5 -55.5t-34 -39.5t-46 -31t-49.5 -28.5
t-44.5 -32.5t-30.5 -43h223z" />
    <glyph glyph-name="LF" unicode="&#xa;" horiz-adv-x="0" 
 />
    <glyph glyph-name="fraction" unicode="&#x2044;" horiz-adv-x="167" 
d="M264 720h72l-433 -742h-72z" />
    <glyph glyph-name="germandbls" unicode="&#xdf;" horiz-adv-x="833" 
 />
    <glyph glyph-name="fi" unicode="&#xfb01;" horiz-adv-x="668" 
d="M350 558l5 75l-15 3q-8 2 -18.5 3t-24.5 1q-44 -1 -77 -19q-14 -8 -28 -20.5t-24.5 -31.5t-17 -45t-6.5 -61v-4h-89v-76h89v-383h94v383h85l11 76h-96v4q0 25 3 45t14.5 32.5t33.5 17t61 0.5zM578 0h-94v510h94v-510zM591 632q0 -26 -18 -44t-43 -18q-26 0 -44 18t-18 44
q0 25 18 43t44 18q25 0 43 -18t18 -43z" />
    <glyph glyph-name="fl" unicode="&#xfb02;" horiz-adv-x="709" 
d="M350 558q-39 4 -61 -0.5t-33.5 -17t-14.5 -32.5t-3 -45v-4h96l-11 -76h-85v-383h-94v383h-89v76h89v4q0 35 6.5 61t17 45t24.5 31.5t28 20.5q33 18 77 19q14 0 24.5 -1t18.5 -3l15 -3zM640 -3q-16 -6 -36 -9t-37 -3q-51 0 -78 30t-27 87v529h94v-527q0 -21 7.5 -31.5
t25.5 -10.5q10 0 26.5 1.5t24.5 3.5v-70z" />
    <glyph glyph-name="integral" unicode="&#x222b;" horiz-adv-x="833" 
 />
    <glyph glyph-name="Acircumflex" unicode="&#xc2;" horiz-adv-x="678" 
d="M290 856h91l100 -144h-80l-66 98l-65 -98h-79zM497 168h-315l-73 -168h-97l273 653h106l275 -653h-96zM461 252l-126 306l-118 -306h244z" />
    <glyph glyph-name="Ecircumflex" unicode="&#xca;" horiz-adv-x="513" 
d="M235 856h91l100 -144h-80l-66 98l-65 -98h-79zM194 88h248v-88h-348v653h347l-15 -89h-232v-181h221v-89h-221v-206z" />
    <glyph glyph-name="Icircumflex" unicode="&#xce;" horiz-adv-x="278" 
d="M93 856h91l100 -144h-80l-66 98l-65 -98h-79zM189 654v-654h-100v654h100z" />
    <glyph glyph-name="dagger" unicode="&#x2020;" horiz-adv-x="539" 
d="M218 425h-178v85h178v188h102v-188h179v-85h-179v-425h-102v425z" />
    </font>
</defs>
</svg>
