<?xml version="1.0" standalone="no"?>
<!DOCTYPE svg PUBLIC "-//W3C//DTD SVG 1.1//EN" "http://www.w3.org/Graphics/SVG/1.1/DTD/svg11.dtd" >
<svg>
<metadata>
Created by FontForge 20120731 at Sat Feb 10 22:41:12 2018
 By www-data
</metadata>
<defs>
<font id="Agan65" horiz-adv-x="611" >
  <font-face 
    font-family="Agane`"
    font-weight="700"
    font-stretch="normal"
    units-per-em="1000"
    panose-1="0 0 0 0 0 0 0 0 0 0"
    ascent="750"
    descent="-250"
    x-height="515"
    cap-height="699"
    bbox="-166 -250 1094 935"
    underline-thickness="50"
    underline-position="-50"
    unicode-range="U+000A-FB02"
  />
<missing-glyph horiz-adv-x="350" 
 />
    <glyph glyph-name=".notdef" horiz-adv-x="350" 
 />
    <glyph glyph-name="NULL.001" horiz-adv-x="0" 
 />
    <glyph glyph-name="NULL.001" horiz-adv-x="0" 
 />
    <glyph glyph-name="nonmarkingreturn" unicode="&#xd;" horiz-adv-x="350" 
 />
    <glyph glyph-name="space" unicode=" " horiz-adv-x="278" 
 />
    <glyph glyph-name="F" unicode="F" horiz-adv-x="524" 
d="M221 0h-140v699h412l-23 -111h-249v-171h249v-111h-249v-306z" />
    <glyph glyph-name="a" unicode="a" horiz-adv-x="538" 
d="M266 527q33 0 71 -10.5t71 -34t54 -60.5t20 -90v-332h-98l-3 12t-6.5 27t-6.5 26.5t-3 10.5q-14 -25 -37 -44q-20 -17 -51.5 -30t-77.5 -13q-32 0 -63 9.5t-55.5 28t-40 46.5t-16.5 65q-2 39 10.5 69.5t36 52.5t56.5 35.5t72 18.5q37 5 81 5t79 -2v16q0 43 -19 64.5
t-47.5 28t-62.5 1.5t-65 -14.5t-54.5 -20t-29.5 -15.5v101q1 1 18 8.5t43 16.5t58.5 16.5t65.5 7.5zM330 130q17 22 22.5 49t5.5 57h-58q-23 0 -49 -3t-48 -12t-37 -26.5t-15 -47.5q0 -33 24.5 -48t60.5 -15q31 0 54.5 12.5t39.5 33.5z" />
    <glyph glyph-name="b" unicode="b" 
d="M360 527q59 0 100 -22.5t66.5 -60t37 -86.5t11.5 -103t-11.5 -102.5t-37 -84.5t-66.5 -57.5t-100 -21.5q-43 0 -73 12.5t-50 27.5q-23 18 -38 40l-26 -69h-104v750h134v-301q17 21 40 39q20 14 49 26.5t68 12.5zM318 94q24 0 45 9.5t36.5 29.5t25 50.5t9.5 71.5
t-9.5 72.5t-25 52.5t-36.5 32t-45 11q-48 0 -81.5 -43t-33.5 -125q0 -83 33.5 -122t81.5 -39z" />
    <glyph glyph-name="c" unicode="c" horiz-adv-x="470" 
d="M305 527q31 0 55 -4t41 -9q19 -6 35 -13v-102q-39 16 -84.5 21.5t-84.5 -8t-65 -50.5t-26 -104q0 -71 26 -107t65 -48t84.5 -5t84.5 24v-103q-15 -9 -35 -15q-17 -6 -41.5 -10.5t-55.5 -4.5q-39 0 -86 10t-87.5 39t-67.5 81.5t-27 138.5q0 85 27 138t67.5 82t87.5 39
t87 10z" />
    <glyph glyph-name="d" unicode="d" 
d="M251 527q38 0 67.5 -12.5t49.5 -26.5q23 -18 40 -39v301h134v-750h-104l-26 69q-15 -22 -38 -40q-20 -15 -50.5 -27.5t-72.5 -12.5q-59 0 -100 21.5t-66.5 57.5t-37 84.5t-11.5 102.5t11.5 103t37 86.5t66.5 60t100 22.5zM293 94q48 0 81.5 39t33.5 122q0 82 -33.5 125
t-81.5 43q-24 0 -45 -11t-36.5 -32t-25 -52.5t-9.5 -72.5t9.5 -71.5t25 -50.5t36.5 -29.5t45 -9.5z" />
    <glyph glyph-name="e" unicode="e" horiz-adv-x="555" 
d="M318 -11q-83 0 -137 22t-86.5 59t-45.5 85.5t-13 102.5q0 48 13 96t41.5 86.5t74.5 62.5t112 24q70 0 116.5 -24t74.5 -62.5t39.5 -86.5t11.5 -96v-45h-354q0 -54 38.5 -89t105.5 -35q38 0 70 8t55 18q26 11 48 26v-112q0 -1 -13 -7t-35 -13.5t-52 -13.5t-64 -6zM392 308
q0 17 -4.5 37.5t-17 38.5t-35 30t-58.5 12q-31 0 -52.5 -12t-34.5 -30t-19 -38.5t-6 -37.5h227z" />
    <glyph glyph-name="f" unicode="f" horiz-adv-x="391" 
d="M306 649q-20 0 -30.5 -6.5t-15.5 -16t-6 -21.5t-1 -23v-67h116l-15 -98h-101v-417h-135v417h-99v98h99v92q0 52 19.5 83t49 47t63.5 21t63 4t48.5 -4.5l19.5 -3.5l-14 -111q-8 1 -18 3q-8 1 -19.5 2t-23.5 1z" />
    <glyph glyph-name="g" unicode="g" 
d="M542 515v-492q0 -49 -15.5 -92.5t-49 -77t-85.5 -54t-125 -21.5q-39 0 -71 5.5t-55 12.5q-27 8 -49 19l10 107q22 -11 48 -20q23 -8 52.5 -13.5t64.5 -5.5q58 0 87.5 25.5t41.5 59.5t12 66.5v47.5l-8 -12.5t-26 -28t-47 -28.5t-71 -13q-45 0 -85 13.5t-70 45t-47.5 82.5
t-17.5 125t22 124t55 80.5t71.5 43.5t71.5 13q39 0 68 -11.5t47.5 -25.5t28 -25.5l9.5 -11.5l28 62h105zM408 263q0 81 -32 120.5t-84 39.5t-84 -39.5t-32 -120.5t32 -120t84 -39t84 39t32 120z" />
    <glyph glyph-name="h" unicode="h" 
d="M367 527q46 0 79 -15.5t54.5 -42.5t31.5 -64t10 -80v-325h-134v280q0 74 -20 109t-69 35q-59 0 -87.5 -49t-28.5 -129v-246h-134v750h127v-305q10 11 22 25.5t30.5 27t47 21t71.5 8.5z" />
    <glyph glyph-name="i" unicode="i" horiz-adv-x="289" 
d="M78 0v515h135v-515h-135zM220 677q0 -32 -22 -54t-53 -22q-32 0 -54 22t-22 54q0 31 22 52.5t54 21.5q31 0 53 -21.5t22 -52.5z" />
    <glyph glyph-name="j" unicode="j" horiz-adv-x="301" 
d="M229 677q0 -31 -22.5 -53.5t-53.5 -22.5q-32 0 -53.5 22.5t-21.5 53.5q0 32 21.5 53.5t53.5 21.5q31 0 53.5 -21.5t22.5 -53.5zM-15 -97q28 -3 50 2q19 5 34.5 18t15.5 43v549h135v-561q0 -30 -6 -53t-15.5 -40t-21.5 -29t-25 -19q-30 -18 -67 -20q-34 0 -53 1.5t-30 3.5
q-12 3 -17 6v99z" />
    <glyph glyph-name="k" unicode="k" horiz-adv-x="534" 
d="M342 251q21 -29 45 -61t48.5 -65t48 -65t44.5 -60h-154l-138 196h-30v-196h-134v750h134v-442h29l10.5 15.5t26 38.5t33.5 49.5t33 49.5t25.5 38.5l10.5 15.5h152z" />
    <glyph glyph-name="l" unicode="l" horiz-adv-x="305" 
d="M207 144q1 -17 9 -27t19.5 -14.5t26 -5t30.5 1.5v-103q-14 -3 -24.5 -4.5t-18.5 -2.5q-9 -1 -15 0q-38 0 -68 3t-51 19.5t-32 50t-11 95.5v593h135v-606v0z" />
    <glyph glyph-name="m" unicode="m" horiz-adv-x="890" 
d="M659 527q54 0 86.5 -19t49.5 -50t22.5 -71t5.5 -83v-304h-134v1l-1 307q0 25 -3 46t-11.5 36t-23.5 23.5t-38 8.5q-30 0 -50 -14t-31 -35.5t-15.5 -46.5t-4.5 -47v-279h-132v1h-1v307q0 25 -3.5 46t-12.5 36.5t-25 24t-41 8.5q-28 0 -46 -14t-29 -35.5t-15.5 -47
t-4.5 -47.5v-279h-134v515h101l22 -79l9 14t27 31t45.5 31.5t65.5 14.5q50 0 81 -14t49 -31q21 -20 31 -45q2 3 11 17t28 30.5t49 29.5t73 13z" />
    <glyph glyph-name="o" unicode="o" horiz-adv-x="612" 
d="M305 527q40 0 87 -12t88 -42t68.5 -82t27.5 -133t-27.5 -133t-68.5 -82t-88 -42t-87 -12t-87 12t-87.5 42t-67.5 82t-27 133t27 133t67.5 82t87.5 42t87 12zM305 89q56 0 93.5 44t37.5 125t-37.5 124.5t-93.5 43.5q-54 0 -91 -43.5t-37 -124.5q0 -40 10 -71.5t27 -53
t40.5 -33t50.5 -11.5z" />
    <glyph glyph-name="p" unicode="p" 
d="M363 -11q-39 0 -68 12t-49 27q-23 17 -40 39v-274h-134v722h104l26 -68q15 22 38 40q20 15 50 27.5t73 12.5q59 0 100 -21.5t66.5 -57.5t37 -84.5t11.5 -102.5t-11.5 -103.5t-37 -87t-66.5 -59.5t-100 -22zM321 422q-48 0 -81.5 -39t-33.5 -122q0 -82 33.5 -125t81.5 -43
q24 0 45 11t36.5 32t25 52.5t9.5 72.5t-9.5 71.5t-25 50.5t-36.5 29.5t-45 9.5z" />
    <glyph glyph-name="q" unicode="q" 
d="M251 -11q-59 0 -100 22t-66.5 59.5t-37 87t-11.5 103.5t11.5 102.5t37 84.5t66.5 57.5t100 21.5q42 0 72.5 -12.5t50.5 -27.5q23 -18 38 -40l26 68h104v-722h-134v274q-17 -22 -40 -39q-20 -15 -49.5 -27t-67.5 -12zM293 422q-24 0 -45 -9.5t-36.5 -29.5t-25 -50.5
t-9.5 -71.5t9.5 -72.5t25 -52.5t36.5 -32t45 -11q48 0 81.5 43t33.5 125q0 83 -33.5 122t-81.5 39z" />
    <glyph glyph-name="r" unicode="r" horiz-adv-x="400" 
d="M386 386q-23 5 -41.5 5.5t-34.5 -0.5q-32 -2 -52.5 -14t-31.5 -31.5t-15 -44t-4 -50.5v-251h-135v510h99l21 -112l2.5 11.5t10 28t21.5 35t35.5 32.5t52 20t72.5 -2v-137z" />
    <glyph glyph-name="s" unicode="s" horiz-adv-x="464" 
d="M367 366q-34 26 -74 39t-67 13q-26 0 -41 -9t-15 -32q0 -11 9.5 -19.5t24.5 -15.5t32.5 -12.5t33.5 -11.5q26 -9 53.5 -20t50 -30t36.5 -47t14 -71q0 -42 -15.5 -72.5t-41 -50t-58.5 -29t-68 -9.5q-25 0 -53.5 5.5t-56 17t-53 28t-44.5 37.5l44 98q35 -38 75 -57.5
t73 -19.5q28 0 54 10t27 34q0 13 -9.5 23t-24.5 17.5t-33 14t-35 12.5q-26 9 -52.5 20.5t-48 29.5t-35 45t-13.5 69q0 41 14.5 70.5t38.5 48t55.5 27.5t65.5 9q20 0 44 -4t48.5 -12t48 -19t41.5 -26z" />
    <glyph glyph-name="t" unicode="t" horiz-adv-x="402" 
d="M279 93q29 0 54 5l24 6l1 -104q-18 -3 -38 -6q-17 -2 -40 -3.5t-49 -1.5q-38 4 -67 23q-25 17 -45.5 50.5t-20.5 94.5v260h-98v98h98l1 113l132 33v-146h121v-98h-119v-253q0 -13 3.5 -25.5t10 -22.5t15 -16.5t17.5 -6.5z" />
    <glyph glyph-name="u" unicode="u" 
d="M244 -10q-46 0 -79 15t-54.5 42t-31.5 64t-10 81v323h134v-278q0 -74 20 -109t69 -35q59 0 87.5 49t28.5 129v244h134v-515h-100l-27 72q-10 -11 -22 -25.5t-30.5 -27t-47 -21t-71.5 -8.5z" />
    <glyph glyph-name="v" unicode="v" horiz-adv-x="556" 
d="M544 515l-190 -515h-151l-191 515h132l135 -375l133 375h132zM544 515l-190 -515h-151l-191 515h132l135 -375l133 375h132z" />
    <glyph glyph-name="w" unicode="w" horiz-adv-x="894" 
d="M878 510l-157 -510h-159l-112 394l-111 -394h-152l-176 510h131l127 -370l105 375h151l118 -375l7.5 27.5t19 68.5t25 89t25 89t19.5 68.5l8 27.5h131z" />
    <glyph glyph-name="y" unicode="y" horiz-adv-x="557" 
d="M546 515l-194 -542v1q-1 -2 -7 -17.5t-19 -37.5t-33 -46.5t-48.5 -45.5t-66 -35t-84.5 -14v115q29 0 50 12.5t35 27.5q16 18 27 41l-195 541h148l126 -375l114 375h147z" />
    <glyph glyph-name="z" unicode="z" horiz-adv-x="500" 
d="M455 515v-111l-255 -299h264l-22 -105h-406v110l260 300h-249v105h408z" />
    <glyph glyph-name="n" unicode="n" horiz-adv-x="607" 
d="M374 527q46 0 79 -15.5t54.5 -42.5t31.5 -64t10 -80v-325h-134v280q0 74 -20 109t-69 35q-59 0 -87.5 -49t-28.5 -129v-246h-134v515h100l27 -70q10 11 22 25.5t30.5 27t47 21t71.5 8.5z" />
    <glyph glyph-name="period" unicode="." horiz-adv-x="278" 
d="M69 140h140v-140h-140v140z" />
    <glyph glyph-name="X" unicode="X" horiz-adv-x="667" 
d="M10 0l230 363l-207 336h161l145 -251l146 251h161l-218 -336l229 -363h-161l-157 272l-168 -272h-161v0z" />
    <glyph glyph-name="x" unicode="x" horiz-adv-x="556" 
d="M180 269l-169 246h160l101 -165l4 7t11 18.5t16 26.5l18 30q22 36 50 83h143l-154 -246l187 -269h-165l-110 193l-5 -8.5t-12.5 -22t-17.5 -31t-20 -35.5q-25 -42 -55 -96h-153z" />
    <glyph glyph-name="N" unicode="N" horiz-adv-x="722" 
d="M648 699v-699h-184l-257 525v-525h-133v699h184l257 -524v524h133v0z" />
    <glyph glyph-name="A" unicode="A" horiz-adv-x="707" 
d="M486 165h-265l-60 -165h-152l257 699h175l257 -699h-152zM440 291l-9 25t-22.5 62t-28.5 78t-26 71l-44 -118q-8 -22 -16 -43.5t-14 -38t-9.5 -26.5l-3.5 -10h173z" />
    <glyph glyph-name="comma" unicode="," horiz-adv-x="322" 
d="M20 -120l68 263h151l-97 -263h-122z" />
    <glyph glyph-name="aacute" unicode="&#xe1;" horiz-adv-x="525" 
d="M286 731h128l-133 -146h-84zM469 332q1 53 -20 90t-54 60.5t-71 34t-71 10.5t-67 -7.5t-62 -16.5t-46.5 -16.5t-19.5 -8.5v-101q6 5 30 15.5t56 20t67.5 14.5t65.5 -1.5t49.5 -28t19.5 -64.5v-20q-35 2 -79 4t-81 -3q-79 -9 -122.5 -53.5t-39.5 -122.5q1 -37 14.5 -65
t35.5 -46.5t51 -28t61 -9.5q14 0 36.5 3t45.5 11t44 21t33 34q0 1 3 -8t6.5 -20t6.5 -20.5l3 -9.5h105v332zM345 199q0 -26 -13 -46t-33 -33t-43.5 -19.5t-42.5 -5.5q-25 2 -43.5 19.5t-18.5 49.5q0 29 18 44.5t44 23.5q15 4 33.5 6.5t36.5 3t34.5 0t27.5 -0.5v-42z" />
    <glyph glyph-name="agrave" unicode="&#xe0;" horiz-adv-x="525" 
d="M335 585h-84l-133 146h128zM469 332q1 53 -20 90t-54 60.5t-71 34t-71 10.5t-67 -7.5t-62 -16.5t-46.5 -16.5t-19.5 -8.5v-101q6 5 30 15.5t56 20t67.5 14.5t65.5 -1.5t49.5 -28t19.5 -64.5v-20q-35 2 -79 4t-81 -3q-79 -9 -122.5 -53.5t-39.5 -122.5q1 -37 14.5 -65
t35.5 -46.5t51 -28t61 -9.5q14 0 36.5 3t45.5 11t44 21t33 34q0 1 3 -8t6.5 -20t6.5 -20.5l3 -9.5h105v332zM345 199q0 -26 -13 -46t-33 -33t-43.5 -19.5t-42.5 -5.5q-25 2 -43.5 19.5t-18.5 49.5q0 29 18 44.5t44 23.5q15 4 33.5 6.5t36.5 3t34.5 0t27.5 -0.5v-42z" />
    <glyph glyph-name="egrave" unicode="&#xe8;" horiz-adv-x="555" 
d="M336 585h-84l-133 146h128zM318 -11q-83 0 -137 22t-86.5 59t-45.5 85.5t-13 102.5q0 48 13 96t41.5 86.5t74.5 62.5t112 24q70 0 116.5 -24t74.5 -62.5t39.5 -86.5t11.5 -96v-45h-354q0 -54 38.5 -89t105.5 -35q38 0 70 8t55 18q26 11 48 26v-112q0 -1 -13 -7t-35 -13.5
t-52 -13.5t-64 -6zM392 308q0 17 -4.5 37.5t-17 38.5t-35 30t-58.5 12q-31 0 -52.5 -12t-34.5 -30t-19 -38.5t-6 -37.5h227z" />
    <glyph glyph-name="eacute" unicode="&#xe9;" horiz-adv-x="555" 
d="M266 731h128l-133 -146h-84zM266 731h128l-133 -146h-84zM318 -11q-83 0 -137 22t-86.5 59t-45.5 85.5t-13 102.5q0 48 13 96t41.5 86.5t74.5 62.5t112 24q70 0 116.5 -24t74.5 -62.5t39.5 -86.5t11.5 -96v-45h-354q0 -54 38.5 -89t105.5 -35q38 0 70 8t55 18
q26 11 48 26v-112q0 -1 -13 -7t-35 -13.5t-52 -13.5t-64 -6zM392 308q0 17 -4.5 37.5t-17 38.5t-35 30t-58.5 12q-31 0 -52.5 -12t-34.5 -30t-19 -38.5t-6 -37.5h227z" />
    <glyph glyph-name="igrave" unicode="&#xec;" horiz-adv-x="279" 
d="M210 585h-84l-133 146h128zM79 0v515h135v-515h-135z" />
    <glyph glyph-name="iacute" unicode="&#xed;" horiz-adv-x="275" 
d="M154 731h128l-133 -146h-84zM75 0v515h135v-515h-135z" />
    <glyph glyph-name="oacute" unicode="&#xf3;" horiz-adv-x="612" 
d="M337 731h128l-133 -146h-84zM305 527q-40 0 -87 -12t-87.5 -42t-67.5 -82t-27 -133t27 -133t67.5 -82t87.5 -42t87 -12t87 12t88 42t68.5 82t27.5 133t-27.5 133t-68.5 82t-88 42t-87 12zM305 89q-27 0 -50.5 11.5t-40.5 33t-27 53t-10 71.5q0 81 37 124.5t91 43.5
q56 0 93.5 -43.5t37.5 -124.5t-37.5 -125t-93.5 -44z" />
    <glyph glyph-name="ograve" unicode="&#xf2;" horiz-adv-x="612" 
d="M358 585h-84l-133 146h128zM305 527q-40 0 -87 -12t-87.5 -42t-67.5 -82t-27 -133t27 -133t67.5 -82t87.5 -42t87 -12t87 12t88 42t68.5 82t27.5 133t-27.5 133t-68.5 82t-88 42t-87 12zM305 89q-27 0 -50.5 11.5t-40.5 33t-27 53t-10 71.5q0 81 37 124.5t91 43.5
q56 0 93.5 -43.5t37.5 -124.5t-37.5 -125t-93.5 -44z" />
    <glyph glyph-name="uacute" unicode="&#xfa;" 
d="M342 755h150l-156 -170h-105zM244 -10q-46 0 -79 15t-54.5 42t-31.5 64t-10 81v323h134v-278q0 -74 20 -109t69 -35q59 0 87.5 49t28.5 129v244h134v-515h-100l-27 72q-10 -11 -22 -25.5t-30.5 -27t-47 -21t-71.5 -8.5z" />
    <glyph glyph-name="ugrave" unicode="&#xf9;" 
d="M376 585h-84l-133 146h128zM244 -10q43 0 71.5 8.5t47 21t30.5 27t22 25.5l27 -72h100v515h-134v-244q0 -80 -28.5 -129t-87.5 -49q-49 0 -69 35t-20 109v278h-134v-323q0 -44 10 -81t31.5 -64t54.5 -42t79 -15z" />
    <glyph glyph-name="quotesingle" unicode="'" horiz-adv-x="305" 
d="M95 699h115v-263h-115v263z" />
    <glyph glyph-name="yacute" unicode="&#xfd;" horiz-adv-x="557" 
d="M319 731h128l-133 -146h-84zM399 515l-114 -375l-126 375h-148l195 -541q-11 -23 -27 -41q-14 -15 -35 -27.5t-50 -12.5v-115q47 0 84.5 14t66 35t48.5 45.5t33 46.5t19 37.5t7 17.5v-1l194 542h-147z" />
    <glyph glyph-name="exclam" unicode="!" horiz-adv-x="420" 
d="M156 171l-11 516h133l-13 -516h-109zM281 59q0 -29 -20 -49.5t-49 -20.5t-49.5 20.5t-20.5 49.5t20.5 49t49.5 20t49 -20t20 -49z" />
    <glyph glyph-name="question" unicode="?" horiz-adv-x="492" 
d="M449 496q0 -36 -11.5 -65t-28.5 -54.5t-37.5 -48.5t-37.5 -47t-28.5 -50t-11.5 -57h-126q0 43 11 76.5t27 60.5t35 49.5t35 44.5t27 45t11 52q0 15 -4.5 29.5t-14 26t-25 18.5t-37.5 7q-7 0 -16.5 -1t-20.5 -3q-15 -2 -37.5 -9.5t-43.5 -16.5q-25 -11 -51 -23l-25 106
q14 8 36 19t49.5 20.5t58.5 16.5t63 7q39 0 76 -12.5t69 -44.5q16 -17 29 -39q11 -19 20 -46t9 -61zM231 128q29 0 49 -20t20 -49t-20 -49.5t-49 -20.5t-49.5 20.5t-20.5 49.5t20.5 49t49.5 20z" />
    <glyph glyph-name="zero" unicode="0" horiz-adv-x="573" 
d="M287 710q54 0 101 -15.5t82.5 -56t56 -110.5t20.5 -179t-20.5 -179t-56 -110t-82.5 -55.5t-101 -15.5t-101 15.5t-82 55.5t-55.5 110t-20.5 179t20.5 179t55.5 110.5t82 56t101 15.5zM287 98q65 0 89 63t24 188q0 124 -24.5 187t-88.5 63q-65 0 -89 -63t-24 -187
q0 -125 24 -188t89 -63z" />
    <glyph glyph-name="one" unicode="1" horiz-adv-x="488" 
d="M317 699v-699h-135v508l-89 -78l-66 113l180 156h110zM62 112h375l1 -112h-376v112z" />
    <glyph glyph-name="two" unicode="2" horiz-adv-x="648" 
d="M564 112v-112h-497v65q0 113 81 193v-1q30 31 70.5 55.5t76.5 44.5q59 34 87.5 62.5t28.5 67.5q0 21 -8 41t-21.5 36t-32 25.5t-40.5 9.5q-34 0 -59.5 -13.5t-42.5 -30t-25 -30t-7 -14.5l-116 41q15 36 41 65t59 49.5t71.5 32t78.5 11.5q48 0 92.5 -15t79 -43.5t55.5 -70
t21 -94.5q0 -45 -18.5 -85t-53.5 -73q-32 -29 -71 -50.5t-77 -44t-70 -51t-50 -71.5h347z" />
    <glyph glyph-name="three" unicode="3" horiz-adv-x="571" 
d="M33 150q10 -5 27.5 -14t38.5 -17t45.5 -14t50.5 -6q31 0 59 9t48 24.5t32 36t12 43.5q0 26 -15.5 45.5t-39.5 32t-53 19t-56 6.5h-66l15 111h47q21 1 45.5 5.5t46.5 14t36.5 25t14.5 38.5q0 49 -34.5 70t-86.5 21q-21 0 -42.5 -4t-41 -10.5t-36 -14t-27.5 -13.5l-32 100
q16 10 39 19t51 16.5t60 12t65 4.5q56 0 99 -13.5t72.5 -37.5t44.5 -55.5t15 -67.5q0 -56 -31 -97t-96 -64v-2q31 -6 58.5 -20.5t48.5 -36t33 -50.5t12 -63q0 -47 -20 -86t-56.5 -67.5t-89.5 -44.5t-119 -16q-69 0 -122.5 14.5t-85.5 34.5z" />
    <glyph glyph-name="four" unicode="4" horiz-adv-x="558" 
d="M538 254l-3 -112h-85v-142h-139v142h-300v121l260 436h179v-446zM311 253v299l-174 -299h174z" />
    <glyph glyph-name="five" unicode="5" horiz-adv-x="586" 
d="M295 465q51 0 97 -16t80 -46t54 -73.5t20 -98.5q0 -54 -21 -98.5t-56 -76.5t-81.5 -49.5t-98.5 -17.5q-36 0 -69 9t-61.5 24t-52.5 33t-40 36l86 74q29 -32 64.5 -49.5t64.5 -17.5q47 0 71 20.5t35 45.5q12 29 12 67q0 34 -11 60q-10 23 -32 42t-66 19q-32 0 -53 -12
t-33.5 -26.5t-18 -27l-5.5 -12.5l-113 48l18 377h416v-112l-286 1q-3 -41 -6 -73q-2 -27 -4.5 -49.5t-1.5 -22.5l7 3t19.5 7.5t29.5 8t36 3.5z" />
    <glyph glyph-name="six" unicode="6" horiz-adv-x="556" 
d="M296 -11q-78 0 -127.5 24t-77 71.5t-37.5 117t-10 161.5q5 79 24.5 143t55.5 109.5t89.5 70t126.5 24.5q35 0 61 -4t43 -9q20 -5 35 -12l-18 -112q-43 19 -93 25t-93 -12.5t-71.5 -66.5t-28.5 -136q13 19 34 35q18 13 46 24t67 11q36 0 70 -13t60.5 -38.5t43 -64.5
t16.5 -91q0 -56 -13 -103t-39.5 -81t-67.5 -53.5t-96 -19.5zM191 219q0 -57 21.5 -89t65.5 -32q45 0 68 32t23 89q0 59 -23 91.5t-68 32.5q-44 0 -65.5 -32.5t-21.5 -91.5v0z" />
    <glyph glyph-name="seven" unicode="7" horiz-adv-x="545" 
d="M500 699v-110l-254 -589h-143l244 588h-298v111h451z" />
    <glyph glyph-name="eight" unicode="8" horiz-adv-x="590" 
d="M444 367q22 -12 42.5 -28t36 -35.5t24.5 -44t9 -53.5q0 -41 -11 -72t-29 -54t-41 -38.5t-47 -25.5q-56 -24 -127 -27q-73 3 -130 27q-24 10 -47.5 25.5t-41.5 38.5t-29 54t-11 72q0 29 9 52.5t24 43t35 35t43 28.5q-36 24 -61.5 59t-25.5 83q0 53 17 88.5t43 58
t56.5 34.5t56.5 16.5t44 5t19 0.5q2 0 20.5 -0.5t44 -6t55 -17t55 -34t42 -58t16.5 -87.5q0 -46 -27.5 -81t-63.5 -59zM299 610q-21 0 -37.5 -8t-28.5 -21t-18 -29.5t-6 -32.5q0 -36 31 -61t73 -38q14 4 28.5 13t26.5 21t19.5 27t7.5 32q0 16 -6.5 33t-18.5 31.5t-30 23.5
t-41 9zM302 89q22 0 42.5 9.5t36.5 24.5t25.5 34t9.5 37q0 21 -13 41t-32.5 36.5t-42 28t-40.5 16.5q-20 -6 -38 -19.5t-32 -31t-22.5 -38t-8.5 -39.5t9 -36.5t25 -31.5t37 -22.5t44 -8.5z" />
    <glyph glyph-name="nine" unicode="9" horiz-adv-x="556" 
d="M260 710q78 0 127.5 -24t77 -71.5t37.5 -117.5t10 -161q-5 -79 -24.5 -143t-55.5 -109.5t-89.5 -70t-126.5 -24.5q-35 0 -61 3.5t-43 8.5q-20 5 -35 13l18 112q43 -19 93 -25t93 12.5t71.5 66.5t28.5 136q-14 -20 -35 -35q-18 -14 -45.5 -24.5t-66.5 -10.5q-36 0 -70 13
t-60.5 38.5t-43 64.5t-16.5 91q0 55 13 102.5t39.5 81.5t67 53.5t96.5 19.5zM365 480q0 57 -21.5 89t-65.5 32q-45 0 -68 -32t-23 -89q0 -59 23 -91.5t68 -32.5q44 0 65.5 32.5t21.5 91.5z" />
    <glyph glyph-name="quotedbl" unicode="&#x22;" horiz-adv-x="615" 
d="M159 699h116v-265h-116v265zM337 701h119v-265h-119v265z" />
    <glyph glyph-name="B" unicode="B" 
d="M222 416h89q18 0 36 4.5t32 15t22.5 27t8.5 39.5q0 24 -8.5 40.5t-22.5 26.5t-33.5 14.5t-40.5 4.5h-83v-172zM571 209q0 -58 -24.5 -98t-64.5 -64.5t-92 -35.5t-106 -11h-203v699h217q51 0 96.5 -10t79.5 -33t54.5 -61t21.5 -93v-1q0 -49 -22 -77t-48 -42
q-31 -17 -69 -22q45 -5 80 -23q30 -15 55 -44.5t25 -81.5v-2zM317 111q22 0 42.5 5.5t36.5 17.5t25 31t9 46t-9.5 46.5t-26 31.5t-38.5 17.5t-46 5.5h-88v-201h95z" />
    <glyph glyph-name="C" unicode="C" horiz-adv-x="588" 
d="M380 709q38 0 71.5 -5.5t59.5 -12.5q30 -8 55 -17v-109q-40 15 -83.5 24t-85 7.5t-78.5 -14.5t-65 -42t-44.5 -76t-16.5 -115q0 -69 16.5 -116t44.5 -76.5t65 -42.5t78.5 -13.5t85 9.5t83.5 27v-110q-25 -11 -55 -19q-26 -8 -59.5 -13.5t-71.5 -5.5q-34 0 -72 6.5t-75 22
t-70.5 42t-59.5 66.5t-41 95t-15 128q0 72 15 127t41 95t59.5 66.5t70.5 42.5t75 22.5t72 6.5z" />
    <glyph glyph-name="D" unicode="D" horiz-adv-x="722" 
d="M81 0v699h259q77 0 139 -26.5t105.5 -73.5t67 -111t23.5 -139t-23.5 -139t-67 -110.5t-105.5 -73t-139 -26.5h-259zM223 111h106q47 0 84 19t62.5 51t38.5 75.5t13 92.5t-13 93t-38.5 76t-62.5 51t-84 19h-106v-477z" />
    <glyph glyph-name="E" unicode="E" horiz-adv-x="554" 
d="M221 111h272v-111h-412v699h412l-23 -111h-249v-171h249v-111h-249v-195z" />
    <glyph glyph-name="equal" unicode="=" horiz-adv-x="600" 
d="M554 310h-508v104h508v-104zM554 92h-508v104h508v-104z" />
    <glyph glyph-name="G" unicode="G" horiz-adv-x="720" 
d="M372 400h282v-349q-26 -14 -61 -25t-73 -19.5t-75 -13t-65 -4.5q-34 0 -72 6.5t-75 22t-70.5 42t-59.5 66.5t-41 95.5t-15 128.5q0 111 32 181.5t85 110t120.5 54t139.5 14.5q34 0 70.5 -5t67 -11t50 -11l19.5 -5v-119l-18.5 6t-48 12.5t-66.5 12.5t-74 6
q-52 0 -94.5 -12t-73 -40.5t-47 -76t-16.5 -117.5q0 -63 14.5 -108.5t39.5 -75t59.5 -43.5t73.5 -14q41 0 68 3.5t44 8.5q19 5 31 13v153h-151v113z" />
    <glyph glyph-name="H" unicode="H" horiz-adv-x="718" 
d="M637 699v-699h-140v305h-277v-305h-139v699h139v-283h277v283h140z" />
    <glyph glyph-name="I" unicode="I" horiz-adv-x="277" 
d="M208 699v-699h-139v699h139z" />
    <glyph glyph-name="J" unicode="J" horiz-adv-x="377" 
d="M308 699v-507q0 -66 -22 -106t-54.5 -61.5t-69.5 -28.5t-67 -7q-29 0 -50 3q-12 2 -23 4v107l11 -1.5t27.5 -2t35.5 2t35.5 10.5t27.5 23t11 40v524h138z" />
    <glyph glyph-name="K" unicode="K" horiz-adv-x="652" 
d="M642 0h-156l-203 294h-69v-294h-133v699h133v-294h70l192 294h158l-241 -351z" />
    <glyph glyph-name="L" unicode="L" horiz-adv-x="508" 
d="M500 0h-419v699h139v-588h280v-111z" />
    <glyph glyph-name="M" unicode="M" horiz-adv-x="944" 
d="M651 699h212v-699h-133v565l-195 -565h-126l-195 565v-565h-133v699h212l179 -525l179 525v0z" />
    <glyph glyph-name="O" unicode="O" horiz-adv-x="777" 
d="M389 710q53 0 113 -15.5t110.5 -56t84 -111t33.5 -179.5q0 -110 -33.5 -180t-84 -109.5t-110.5 -54.5t-113 -15t-113 15t-111 54.5t-84.5 109.5t-33.5 180q0 109 33.5 179.5t84.5 111t111 56t113 15.5zM389 98q42 0 78 15t62 45.5t40.5 78t14.5 112.5q0 63 -14.5 110.5
t-40.5 78.5t-62 46.5t-78 15.5t-78 -15.5t-62.5 -47t-41 -78.5t-14.5 -111q0 -65 14.5 -112t41 -77.5t62.5 -45.5t78 -15z" />
    <glyph glyph-name="P" unicode="P" horiz-adv-x="554" 
d="M69 699h199q55 0 103.5 -11t85 -36.5t57.5 -67t21 -103.5q0 -60 -21.5 -101.5t-56.5 -67t-81 -36.5t-94 -11h-74v-265h-139v699zM267 376q27 0 49.5 5.5t39 18t26 33t9.5 49.5q0 60 -35 83t-89 23h-58v-212h58z" />
    <glyph glyph-name="R" unicode="R" horiz-adv-x="601" 
d="M581 0h-157l-74 235q-6 14 -14 25q-8 9 -18.5 17t-27.5 8h-82v-285h-139v699h199q54 0 102.5 -9t85 -32t57.5 -62.5t21 -101.5q0 -32 -9.5 -55t-24 -39.5t-31.5 -27t-31.5 -16.5t-24 -8.5l-9.5 -2.5q25 0 42 -11.5t27.5 -25.5t14.5 -25.5l4 -11.5zM265 401q24 0 46.5 3.5
t40 13.5t28.5 28.5t11 47.5t-9.5 47.5t-26.5 29t-40 14t-50 3.5h-57v-187h57z" />
    <glyph glyph-name="Q" unicode="Q" horiz-adv-x="778" 
d="M731 349q0 -67 -13 -119t-35.5 -91t-53 -66.5t-64.5 -45.5l152 -153h-165l-107 117q-10 -1 -21 -1q-9 -1 -18.5 -1h-16.5q-35 0 -73.5 6.5t-76.5 22t-73 42t-61 66.5t-42 95t-16 128q0 72 15.5 127t42.5 95t61.5 66.5t72.5 42.5t76.5 22.5t73.5 6.5q53 0 113 -15.5
t111 -56t84.5 -110t33.5 -178.5zM193 349q0 -65 15 -112t41 -78t62 -46t78 -15q43 0 78.5 15t61.5 46t40.5 78.5t14.5 112.5q0 63 -14.5 110t-40.5 77.5t-61.5 46t-78.5 15.5q-42 0 -78 -15.5t-62 -46.5t-41 -78t-15 -110z" />
    <glyph glyph-name="S" unicode="S" horiz-adv-x="605" 
d="M486 521q-42 31 -88 48.5t-85 17.5q-43 0 -69.5 -16.5t-26.5 -54.5q0 -20 10.5 -34t27.5 -25t40 -19.5t48 -16.5q37 -12 75 -27t69 -39.5t50.5 -61.5t19.5 -93q0 -55 -21 -95t-55.5 -65.5t-79 -38t-92.5 -12.5q-70 0 -138 27t-118 81l52 113q45 -47 101 -73t107 -26
q45 0 75.5 18.5t31.5 58.5q1 23 -10 39t-29 28t-42 21t-50 17q-37 12 -74 27t-66.5 38.5t-47.5 59.5t-18 90t20 92.5t52.5 63t75 36t87.5 11.5q59 0 115.5 -19.5t101.5 -53.5z" />
    <glyph glyph-name="T" unicode="T" horiz-adv-x="556" 
d="M548 699v-109h-200v-590h-139v590h-201v109h540z" />
    <glyph glyph-name="U" unicode="U" horiz-adv-x="723" 
d="M362 -11q-66 0 -119 20.5t-90 56.5t-57 84.5t-20 104.5v444h140v-460q0 -28 6 -53.5t22.5 -44.5t44.5 -30t73 -11t73 12t44 32t22 46t6 54v455h140v-444q0 -56 -19.5 -104.5t-56.5 -84.5t-89.5 -56.5t-119.5 -20.5z" />
    <glyph glyph-name="V" unicode="V" horiz-adv-x="669" 
d="M518 699h141l-235 -699h-174l-240 699h141l186 -549l181 549v0z" />
    <glyph glyph-name="W" unicode="W" horiz-adv-x="1004" 
d="M857 699h137l-166 -699h-183l-143 558l-143 -558h-183l-166 699h138l115 -549l152 549h174l152 -549l116 549v0z" />
    <glyph glyph-name="Y" unicode="Y" horiz-adv-x="656" 
d="M256 0v270l-245 412h144l173 -286l172 286h145l-253 -412v-270h-136v0z" />
    <glyph glyph-name="Z" unicode="Z" horiz-adv-x="566" 
d="M524 590l-333 -479h339l2 -111h-496l1 111l332 479h-311v109h466v-109z" />
    <glyph glyph-name="braceleft" unicode="{" horiz-adv-x="332" 
d="M245 -17q0 -14 8.5 -21.5t21 -11t26 -4t23.5 -0.5v-77q-45 0 -82 4t-61 22t-39.5 50.5t-15.5 75.5v196q0 9 -2 17l-4 14t-7 12q-8 8 -65 8v42v44q57 0 65 8q5 5 7 12l4 14q2 8 2 17v193q0 43 15.5 75.5t39.5 50.5t61 22t82 4v-71q-10 0 -23.5 -0.5t-26 -4t-21 -11.5
t-8.5 -21v-218q0 -44 -12.5 -64t-29 -28.5t-33 -11t-24.5 -10.5v-1l15.5 -2t34 -13t34 -34t15.5 -65v-212z" />
    <glyph glyph-name="braceright" unicode="}" horiz-adv-x="332" 
d="M87 636q0 13 -8.5 21t-21 11.5t-26 4t-23.5 0.5v77q45 0 82 -4t61 -22t39.5 -50.5t15.5 -75.5v-196q0 -9 2 -17l4 -14t7 -12q8 -8 65 -8v-42v-44q-57 0 -65 -8q-5 -5 -7 -12l-4 -14q-2 -8 -2 -17v-193q0 -43 -15.5 -75.5t-39.5 -50.5t-61 -22t-82 -4v71q10 0 23.5 0.5
t26 4t21 11t8.5 21.5v218q0 43 12.5 63.5t29 29t33 11t24.5 10.5v1l-15.5 2t-34 13t-34 34t-15.5 65v212z" />
    <glyph glyph-name="bracketleft" unicode="[" horiz-adv-x="340" 
d="M296 634h-97v-644h97v-117h-223v877h223v-116z" />
    <glyph glyph-name="bracketright" unicode="]" horiz-adv-x="340" 
d="M44 -11h97v644h-97v117h223v-877h-223v116z" />
    <glyph glyph-name="semicolon" unicode=";" horiz-adv-x="280" 
d="M55 388v140h142v-140h-142zM-22 -158l68 263h151l-97 -263h-122z" />
    <glyph glyph-name="colon" unicode=":" horiz-adv-x="307" 
d="M83 0v138h141v-138h-141zM83 381v139h141v-139h-141z" />
    <glyph glyph-name="hyphen" unicode="-" horiz-adv-x="333" 
d="M35 214v110h263v-110h-263zM35 214v110h263v-110h-263z" />
    <glyph glyph-name="plus" unicode="+" horiz-adv-x="600" 
d="M248 506h104v-201h202v-104h-202v-201h-104v201h-202v104h202v201z" />
    <glyph glyph-name="parenleft" unicode="(" horiz-adv-x="376" 
d="M210 -128q-86 99 -128 209.5t-42 225.5q-1 117 41.5 231t125.5 218h154q-96 -105 -137 -220.5t-39 -226.5q2 -110 44.5 -224t139.5 -220h-148z" />
    <glyph glyph-name="parenright" unicode=")" horiz-adv-x="376" 
d="M166 749q86 -99 128 -209.5t42 -225.5q1 -117 -41.5 -231t-125.5 -218h-154q48 52 82 108t55 112.5t30.5 113.5t8.5 113q-2 110 -44.5 224t-139.5 220h148z" />
    <glyph glyph-name="slash" unicode="/" horiz-adv-x="390" 
d="M370 709l-245 -720h-104l245 720h104z" />
    <glyph glyph-name="backslash" unicode="\" horiz-adv-x="285" 
d="M-35 710h107l244 -723h-105z" />
    <glyph glyph-name="ampersand" unicode="&#x26;" horiz-adv-x="692" 
d="M688 0h-149l-51 53q-15 -8 -37 -19t-50 -21t-59.5 -17t-64.5 -7q-41 0 -80 16.5t-69.5 44.5t-49 66t-18.5 82q0 36 14 65t34.5 52.5t44 40.5t43.5 28q-9 12 -19 27t-18 32t-13.5 35.5t-5.5 36.5q0 45 16.5 78t43.5 54.5t61 32t69 10.5t68 -11.5t59 -33t42.5 -52
t17.5 -68.5q1 -32 -20.5 -63.5t-47.5 -56.5q-31 -29 -70 -56l117 -132q21 29 32.5 56.5t17.5 50.5q7 26 9 51h119q-4 -22 -11 -50.5t-19 -60.5t-29 -66.5t-40 -68.5zM331 580q-15 0 -30 -4.5t-26 -12.5t-18 -19.5t-6 -26.5v-1q0 -8 7.5 -22t16.5 -28q11 -17 25 -34
q11 5 28.5 13.5t34.5 20.5t28.5 26t10.5 30q-2 30 -23.5 44t-47.5 14zM289 108q27 0 58.5 8t66.5 29l-136 156q-48 -23 -70 -53t-22 -59q0 -32 27.5 -56.5t75.5 -24.5z" />
    <glyph glyph-name="registered" unicode="&#xae;" horiz-adv-x="807" 
d="M404 712q75 0 141 -28.5t115.5 -77.5t78.5 -115.5t29 -142.5q0 -74 -29 -139.5t-78.5 -114.5t-115.5 -78t-141 -29t-141.5 29t-116 78t-78.5 114.5t-29 139.5q0 76 29 142.5t78.5 115.5t116 77.5t141.5 28.5zM404 69q57 0 108.5 22t90 59.5t61 88.5t22.5 109
q0 59 -22.5 111t-61 91t-90 61.5t-108.5 22.5q-58 0 -109.5 -22.5t-90 -61.5t-61 -91t-22.5 -111q0 -58 22.5 -109t61 -88.5t90 -59.5t109.5 -22zM558 160h-74l-72 163h-66v-163h-70v378h150q42 0 64 -15t32 -32q11 -20 13 -46q0 -22 -6 -37.5t-15.5 -26t-21.5 -16.5t-24 -9
zM346 383h62q20 0 30.5 7.5t15.5 17.5q6 11 7 26q-1 14 -7 25q-5 9 -15.5 17t-30.5 8h-62v-101z" />
    <glyph glyph-name="at" unicode="@" horiz-adv-x="772" 
d="M402 714q76 0 143 -28.5t117 -77.5t78.5 -115t28.5 -141q0 -32 -9.5 -73.5t-30.5 -78.5t-55 -63t-83 -26q-23 0 -42 6.5t-34 17t-25.5 23t-17.5 24.5q-19 -17 -42 -28t-51 -13q-48 -4 -83 8.5t-57.5 36.5t-33 56.5t-10.5 69.5q0 42 14 85.5t40.5 79t64.5 59.5t85 28h-1
q36 5 70 -12.5t57 -47.5l21 25l58 -15l-57 -284q7 -20 32 -20q15 0 32 8.5t31.5 25.5t23.5 44t9 65q0 57 -21.5 106t-58.5 86t-86.5 58t-105.5 21t-104.5 -21t-85 -58t-57.5 -86t-21 -106t21 -106t57.5 -86t85 -58t104.5 -21q23 0 61 4t75 17l-33 -97q-13 -5 -30 -9
q-14 -3 -33 -5.5t-41 -2.5q-75 0 -141.5 28.5t-116 77.5t-78.5 115.5t-29 141.5t29 141t78.5 115t116 77.5t141.5 28.5zM374 238q26 3 46.5 19.5t34 40t20.5 51t6 51.5q-4 29 -27.5 48t-52.5 19q-32 -1 -54 -17t-35.5 -39.5t-19 -50.5t-3.5 -50q2 -35 26 -55t59 -17z" />
    <glyph glyph-name="bar" unicode="|" horiz-adv-x="241" 
d="M67 -250v1000h107v-1000h-107z" />
    <glyph glyph-name="underscore" unicode="_" horiz-adv-x="500" 
d="M500 -75v-50h-500v50h500z" />
    <glyph glyph-name="bullet" unicode="&#x2022;" horiz-adv-x="524" 
d="M131 483q53 53 129 53q41 0 73 -13.5t59 -39.5q27 -27 41 -59t15 -73q-1 -76 -56 -131q-27 -27 -59 -41t-73 -14q-40 0 -71.5 14t-57.5 41q-55 55 -55 131q0 41 13.5 72.5t41.5 59.5z" />
    <glyph glyph-name="quotedblleft" unicode="&#x201c;" horiz-adv-x="495" 
d="M136 725h120l-75 -269h-147zM337 725h124l-76 -269h-147z" />
    <glyph glyph-name="less" unicode="&#x3c;" horiz-adv-x="600" 
d="M554 6l-508 218v86l508 218v-102l-373 -159l373 -159v-102z" />
    <glyph glyph-name="greater" unicode="&#x3e;" horiz-adv-x="600" 
d="M46 528l508 -218v-86l-508 -218v102l373 159l-373 159v102z" />
    <glyph glyph-name="caron" unicode="&#x2c7;" horiz-adv-x="278" 
d="M91 585l-110 146h89l70 -86l68 86h89l-105 -146h-101z" />
    <glyph glyph-name="quotedblright" unicode="&#x201d;" horiz-adv-x="636" 
d="M421 456h-120l75 269h147zM220 456h-124l76 269h147z" />
    <glyph glyph-name="divide" unicode="&#xf7;" horiz-adv-x="600" 
d="M46 201v104h508v-104h-508zM300 529q35 0 56 -21.5t21 -55.5t-21 -55.5t-56 -21.5t-56 21.5t-21 55.5t21 55.5t56 21.5zM300 -23q-35 0 -56 21.5t-21 55.5t21 55.5t56 21.5t56 -21.5t21 -55.5t-21 -55.5t-56 -21.5z" />
    <glyph glyph-name="ellipsis" unicode="&#x2026;" horiz-adv-x="1031" 
d="M111 147h145v-147h-145v147zM443 147h143v-147h-143v147zM777 147h143v-147h-143v147z" />
    <glyph glyph-name="logicalnot" unicode="&#xac;" horiz-adv-x="600" 
d="M450 310h-404v104h508v-306h-104v202z" />
    <glyph glyph-name="guillemotleft" unicode="&#xab;" horiz-adv-x="556" 
d="M390 474h126l-110 -205l110 -205h-126l-118 205zM167 474h126l-110 -205l110 -205h-126l-118 205z" />
    <glyph glyph-name="guillemotright" unicode="&#xbb;" horiz-adv-x="556" 
d="M166 64h-126l110 205l-110 205h126l118 -205zM389 64h-126l110 205l-110 205h126l118 -205z" />
    <glyph glyph-name="circumflex" unicode="&#x2c6;" horiz-adv-x="281" 
d="M185 711l102 -145h-74l-75 97l-68 -97h-76l102 145h89z" />
    <glyph glyph-name="questiondown" unicode="&#xbf;" horiz-adv-x="492" 
d="M43 12q0 36 11.5 65t28.5 54.5t37.5 48.5t37.5 47t28.5 50t11.5 57h126q0 -43 -11 -76.5t-27 -60.5t-35 -49.5t-35 -44.5t-27 -45.5t-11 -51.5q0 -15 4.5 -29.5t14 -26t25 -18.5t37.5 -7q7 0 16.5 1t20.5 3q15 2 37.5 9.5t43.5 16.5q25 11 51 23l25 -106q-14 -8 -36 -19
t-49.5 -20.5t-58.5 -16.5t-63 -7q-39 0 -76 12.5t-69 44.5q-17 17 -29 39q-11 19 -20 46t-9 61zM261 380q-29 0 -49 20t-20 49t20 49.5t49 20.5t49.5 -20.5t20.5 -49.5t-20.5 -49t-49.5 -20z" />
    <glyph glyph-name="exclamdown" unicode="&#xa1;" horiz-adv-x="420" 
d="M158 336l-13 -516h133l-11 516h-109zM142 448q0 29 20 49.5t49 20.5t49.5 -20.5t20.5 -49.5t-20.5 -49t-49.5 -20t-49 20t-20 49z" />
    <glyph glyph-name="OE" unicode="&#x152;" horiz-adv-x="940" 
d="M874 111v-111h-391q-25 -7 -50.5 -9t-46.5 -2q-34 0 -73 6.5t-77.5 22t-73.5 42.5t-62.5 67t-43.5 95t-16 128q0 109 35 178.5t87 109.5t112.5 55.5t111.5 15.5q23 0 47 -1.5t50 -8.5h391l-23 -111h-249v-170h249v-112h-249v-195h272zM386 98q19 0 39 3.5t37 9.5v477
q-17 6 -36.5 8.5t-39.5 2.5q-41 0 -77.5 -15t-63.5 -45.5t-43 -77.5t-16 -111q0 -65 16 -112t43 -78.5t63.5 -46.5t77.5 -15z" />
    <glyph glyph-name="acircumflex" unicode="&#xe2;" horiz-adv-x="525" 
d="M303 730l105 -146h-89l-68 86l-70 -86h-89l110 146h101zM469 0h-105l-3 9.5t-6.5 20.5t-6.5 20t-3 8q-12 -21 -33 -34t-44 -21t-45.5 -11t-36.5 -3q-32 0 -61 9.5t-51 28t-35.5 46.5t-14.5 65q-4 78 39.5 122.5t122.5 53.5q37 5 81 3t79 -4v20q0 43 -19.5 64.5t-49.5 28
t-65.5 1.5t-67.5 -14.5t-56 -20t-30 -15.5v101q1 1 19.5 8.5t46.5 16.5t62 16.5t67 7.5t71 -10.5t71 -34t54 -60.5t20 -90v-332zM345 241q-11 0 -27.5 0.5t-34.5 0t-36.5 -3t-33.5 -6.5q-26 -8 -44 -23.5t-18 -44.5q0 -32 18.5 -49.5t43.5 -19.5q19 -1 42.5 5.5t43.5 19.5
t33 33t13 46v42z" />
    <glyph glyph-name="adieresis" unicode="&#xe4;" horiz-adv-x="525" 
d="M420 700v-116h-116v116h116zM98 584v116h116v-116h-116zM469 0h-105l-3 9.5t-6.5 20.5t-6.5 20t-3 8q-12 -21 -33 -34t-44 -21t-45.5 -11t-36.5 -3q-32 0 -61 9.5t-51 28t-35.5 46.5t-14.5 65q-4 78 39.5 122.5t122.5 53.5q37 5 81 3t79 -4v20q0 43 -19.5 64.5t-49.5 28
t-65.5 1.5t-67.5 -14.5t-56 -20t-30 -15.5v101q1 1 19.5 8.5t46.5 16.5t62 16.5t67 7.5t71 -10.5t71 -34t54 -60.5t20 -90v-332zM345 241q-11 0 -27.5 0.5t-34.5 0t-36.5 -3t-33.5 -6.5q-26 -8 -44 -23.5t-18 -44.5q0 -32 18.5 -49.5t43.5 -19.5q19 -1 42.5 5.5t43.5 19.5
t33 33t13 46v42z" />
    <glyph glyph-name="atilde" unicode="&#xe3;" horiz-adv-x="525" 
d="M435 667q-21 -46 -44 -63.5t-49 -17.5q-19 0 -38.5 6.5t-39.5 14.5q-19 8 -36.5 14.5t-35.5 6.5t-35.5 -11.5t-36.5 -40.5l-42 53q22 47 47.5 63.5t51.5 16.5q22 0 42.5 -7t41.5 -16q18 -7 35 -13t33 -6t32 13t30 45zM469 0h-105l-3 9.5t-6.5 20.5t-6.5 20t-3 8
q-12 -21 -33 -34t-44 -21t-45.5 -11t-36.5 -3q-32 0 -61 9.5t-51 28t-35.5 46.5t-14.5 65q-4 78 39.5 122.5t122.5 53.5q37 5 81 3t79 -4v20q0 43 -19.5 64.5t-49.5 28t-65.5 1.5t-67.5 -14.5t-56 -20t-30 -15.5v101q1 1 19.5 8.5t46.5 16.5t62 16.5t67 7.5t71 -10.5t71 -34
t54 -60.5t20 -90v-332zM345 241q-11 0 -27.5 0.5t-34.5 0t-36.5 -3t-33.5 -6.5q-26 -8 -44 -23.5t-18 -44.5q0 -32 18.5 -49.5t43.5 -19.5q19 -1 42.5 5.5t43.5 19.5t33 33t13 46v42z" />
    <glyph glyph-name="aring" unicode="&#xe5;" horiz-adv-x="525" 
d="M358 811q16 -17 25 -38.5t10 -47.5q-2 -53 -35 -86q-19 -17 -40.5 -26.5t-47.5 -9.5q-25 0 -47 9t-39 26q-35 35 -35 87t34 86q17 17 39 25t48 10q26 -2 47.5 -10t39.5 -24zM301 698q11 9 11 27t-11 29q-10 11 -31 11q-17 0 -28 -12q-12 -9 -12 -28t15 -31q9 -9 25 -9
q21 0 30 12zM469 0h-105l-3 9.5t-6.5 20.5t-6.5 20t-3 8q-12 -21 -33 -34t-44 -21t-45.5 -11t-36.5 -3q-32 0 -61 9.5t-51 28t-35.5 46.5t-14.5 65q-4 78 39.5 122.5t122.5 53.5q37 5 81 3t79 -4v20q0 43 -19.5 64.5t-49.5 28t-65.5 1.5t-67.5 -14.5t-56 -20t-30 -15.5v101
q1 1 19.5 8.5t46.5 16.5t62 16.5t67 7.5t71 -10.5t71 -34t54 -60.5t20 -90v-332zM345 241q-11 0 -27.5 0.5t-34.5 0t-36.5 -3t-33.5 -6.5q-26 -8 -44 -23.5t-18 -44.5q0 -32 18.5 -49.5t43.5 -19.5q19 -1 42.5 5.5t43.5 19.5t33 33t13 46v42z" />
    <glyph glyph-name="ecircumflex" unicode="&#xea;" horiz-adv-x="555" 
d="M329 730l105 -146h-89l-68 86l-70 -86h-89l110 146h101zM318 -11q-83 0 -137 22t-86.5 59t-45.5 85.5t-13 102.5q0 48 13 96t41.5 86.5t74.5 62.5t112 24q70 0 116.5 -24t74.5 -62.5t39.5 -86.5t11.5 -96v-45h-354q0 -54 38.5 -89t105.5 -35q38 0 70 8t55 18q26 11 48 26
v-112q0 -1 -13 -7t-35 -13.5t-52 -13.5t-64 -6zM392 308q0 17 -4.5 37.5t-17 38.5t-35 30t-58.5 12q-31 0 -52.5 -12t-34.5 -30t-19 -38.5t-6 -37.5h227z" />
    <glyph glyph-name="edieresis" unicode="&#xeb;" horiz-adv-x="555" 
d="M442 701v-116h-116v116h116zM120 585v116h116v-116h-116zM318 -11q-83 0 -137 22t-86.5 59t-45.5 85.5t-13 102.5q0 48 13 96t41.5 86.5t74.5 62.5t112 24q70 0 116.5 -24t74.5 -62.5t39.5 -86.5t11.5 -96v-45h-354q0 -54 38.5 -89t105.5 -35q38 0 70 8t55 18
q26 11 48 26v-112q0 -1 -13 -7t-35 -13.5t-52 -13.5t-64 -6zM392 308q0 17 -4.5 37.5t-17 38.5t-35 30t-58.5 12q-31 0 -52.5 -12t-34.5 -30t-19 -38.5t-6 -37.5h227z" />
    <glyph glyph-name="icircumflex" unicode="&#xee;" horiz-adv-x="278" 
d="M73 0v510h131v-510h-131zM192 730l105 -146h-89l-68 86l-70 -86h-89l110 146h101z" />
    <glyph glyph-name="idieresis" unicode="&#xef;" horiz-adv-x="278" 
d="M300 701v-116h-116v116h116zM-22 585v116h116v-116h-116zM71 0v515h135v-515h-135z" />
    <glyph glyph-name="ntilde" unicode="&#xf1;" horiz-adv-x="607" 
d="M494 675q-21 -46 -44 -63.5t-49 -17.5q-19 0 -38.5 6.5t-39.5 14.5q-19 8 -36.5 14.5t-35.5 6.5t-35.5 -11.5t-36.5 -40.5l-42 53q22 47 47.5 63.5t51.5 16.5q22 0 42.5 -7t41.5 -16q18 -7 35 -13t33 -6t32 13t30 45zM374 527q46 0 79 -15.5t54.5 -42.5t31.5 -64t10 -80
v-325h-134v280q0 74 -20 109t-69 35q-59 0 -87.5 -49t-28.5 -129v-246h-134v515h100l27 -70q10 11 22 25.5t30.5 27t47 21t71.5 8.5z" />
    <glyph glyph-name="ocircumflex" unicode="&#xf4;" horiz-adv-x="612" 
d="M357 730l105 -146h-89l-68 86l-70 -86h-89l110 146h101zM305 527q40 0 87 -12t88 -42t68.5 -82t27.5 -133t-27.5 -133t-68.5 -82t-88 -42t-87 -12t-87 12t-87.5 42t-67.5 82t-27 133t27 133t67.5 82t87.5 42t87 12zM305 89q56 0 93.5 44t37.5 125t-37.5 124.5t-93.5 43.5
q-54 0 -91 -43.5t-37 -124.5q0 -40 10 -71.5t27 -53t40.5 -33t50.5 -11.5z" />
    <glyph glyph-name="odieresis" unicode="&#xf6;" horiz-adv-x="612" 
d="M462 701v-116h-116v116h116zM140 585v116h116v-116h-116zM305 527q40 0 87 -12t88 -42t68.5 -82t27.5 -133t-27.5 -133t-68.5 -82t-88 -42t-87 -12t-87 12t-87.5 42t-67.5 82t-27 133t27 133t67.5 82t87.5 42t87 12zM305 89q56 0 93.5 44t37.5 125t-37.5 124.5
t-93.5 43.5q-54 0 -91 -43.5t-37 -124.5q0 -40 10 -71.5t27 -53t40.5 -33t50.5 -11.5z" />
    <glyph glyph-name="otilde" unicode="&#xf5;" horiz-adv-x="612" 
d="M486 667q-21 -46 -44 -63.5t-49 -17.5q-19 0 -38.5 6.5t-39.5 14.5q-19 8 -36.5 14.5t-35.5 6.5t-35.5 -11.5t-36.5 -40.5l-42 53q22 47 47.5 63.5t51.5 16.5q22 0 42.5 -7t41.5 -16q18 -7 35 -13t33 -6t32 13t30 45zM305 527q40 0 87 -12t88 -42t68.5 -82t27.5 -133
t-27.5 -133t-68.5 -82t-88 -42t-87 -12t-87 12t-87.5 42t-67.5 82t-27 133t27 133t67.5 82t87.5 42t87 12zM305 89q56 0 93.5 44t37.5 125t-37.5 124.5t-93.5 43.5q-54 0 -91 -43.5t-37 -124.5q0 -40 10 -71.5t27 -53t40.5 -33t50.5 -11.5z" />
    <glyph glyph-name="ucircumflex" unicode="&#xfb;" 
d="M360 730l105 -146h-89l-68 86l-70 -86h-89l110 146h101zM244 -10q-46 0 -79 15t-54.5 42t-31.5 64t-10 81v323h134v-278q0 -74 20 -109t69 -35q59 0 87.5 49t28.5 129v244h134v-515h-100l-27 72q-10 -11 -22 -25.5t-30.5 -27t-47 -21t-71.5 -8.5z" />
    <glyph glyph-name="udieresis" unicode="&#xfc;" 
d="M464 701v-116h-116v116h116zM142 585v116h116v-116h-116zM244 -10q-46 0 -79 15t-54.5 42t-31.5 64t-10 81v323h134v-278q0 -74 20 -109t69 -35q59 0 87.5 49t28.5 129v244h134v-515h-100l-27 72q-10 -11 -22 -25.5t-30.5 -27t-47 -21t-71.5 -8.5z" />
    <glyph glyph-name="asciitilde" unicode="~" horiz-adv-x="502" 
d="M542 274q-29 -62 -60.5 -86t-65.5 -24q-26 0 -52 8.5t-52 19.5q-25 10 -49.5 19t-48.5 9q-23 0 -47 -15t-50 -53l-56 80q30 62 64.5 84.5t69.5 22.5q29 0 56.5 -9.5t55.5 -20.5q24 -10 47.5 -18t43.5 -8q22 0 43.5 16.5t41.5 60.5z" />
    <glyph glyph-name="asciicircum" unicode="^" horiz-adv-x="640" 
d="M362 699l218 -414h-130l-133 265l-127 -265h-130l210 414h92z" />
    <glyph glyph-name="grave" unicode="`" horiz-adv-x="349" 
d="M7 723h156l113 -174h-110z" />
    <glyph glyph-name="periodcentered" unicode="&#xb7;" horiz-adv-x="278" 
d="M139 207q-35 0 -56 21.5t-21 55.5t21 55.5t56 21.5t56 -21.5t21 -55.5t-21 -55.5t-56 -21.5z" />
    <glyph glyph-name="quotesinglbase" unicode="&#x201a;" horiz-adv-x="357" 
d="M175 -126h-123l77 270h148z" />
    <glyph glyph-name="dieresis" unicode="&#xa8;" horiz-adv-x="362" 
d="M10 720h122v-132h-122v132zM230 720h122v-132h-122v132z" />
    <glyph glyph-name="quoteleft" unicode="&#x2018;" horiz-adv-x="328" 
d="M154 701h122l-77 -270h-147z" />
    <glyph glyph-name="quoteright" unicode="&#x2019;" horiz-adv-x="329" 
d="M175 431h-123l77 270h148z" />
    <glyph glyph-name="quotedblbase" unicode="&#x201e;" horiz-adv-x="632" 
d="M444 -134h-120l75 269h147zM220 -134h-124l76 269h147z" />
    <glyph glyph-name="degree" unicode="&#xb0;" horiz-adv-x="400" 
d="M200 637q-39 0 -63.5 -24.5t-24.5 -63.5t24.5 -63.5t63.5 -24.5t63.5 24.5t24.5 63.5t-24.5 63.5t-63.5 24.5zM200 710q33 0 62.5 -12.5t51.5 -34.5t34.5 -51.5t12.5 -62.5q0 -34 -12.5 -63.5t-34 -51t-51 -34t-63.5 -12.5q-35 0 -64.5 12t-51 33.5t-33.5 51t-12 64.5
q0 33 12.5 62.5t34.5 51.5t51.5 34.5t62.5 12.5z" />
    <glyph glyph-name="dollar" unicode="$" horiz-adv-x="628" 
d="M562 200q0 -52 -18.5 -90.5t-50 -64.5t-72.5 -39.5t-86 -15.5v-93h-47v93q-63 5 -122.5 32t-104.5 75l52 113q38 -40 84 -65t91 -32v182q-36 12 -71.5 27t-63.5 38.5t-45 59t-17 88.5q0 49 16 85t43 60.5t62.5 38t75.5 17.5v69h47v-67q56 -2 109 -21.5t96 -51.5l-49 -117
q-38 28 -78.5 44.5t-77.5 20.5v-161q4 -1 7 -2l6 -2q37 -12 75 -27t69 -39.5t50.5 -61.5t19.5 -93zM225 516q0 -27 17.5 -44t45.5 -29v142q-29 -5 -46 -22t-17 -47zM425 188q1 37 -25 57t-65 34v-167q39 3 64 21.5t26 54.5z" />
    <glyph glyph-name="asterisk" unicode="*" horiz-adv-x="583" 
d="M353 699l-9 -140l131 52q9 -26 17 -48t16 -48l-130 -47l81 -108q-23 -20 -41 -37t-39 -37l-84 127l-75 -126l-87 73l84 107l-77 27q-14 5 -29 11t-28 11l33 94l132 -50l-8 139h113z" />
    <glyph glyph-name="notequal" unicode="&#x2260;" horiz-adv-x="833" 
 />
    <glyph glyph-name="tilde" unicode="&#x2dc;" horiz-adv-x="281" 
d="M319 661q-21 -46 -44 -63.5t-49 -17.5q-19 0 -38.5 6.5t-39.5 14.5q-19 8 -36.5 14.5t-35.5 6.5t-35.5 -11.5t-36.5 -40.5l-42 53q22 47 47.5 63.5t51.5 16.5q22 0 42.5 -7t41.5 -16q18 -7 35 -13t33 -6t32 13t30 45z" />
    <glyph glyph-name="radical" unicode="&#x221a;" horiz-adv-x="833" 
 />
    <glyph glyph-name="Euro" unicode="&#x20ac;" horiz-adv-x="692" 
d="M477 593q-63 0 -114 -32t-74 -104h306l-23 -87h-297v-43h293l-23 -87h-254q24 -69 73 -102t112 -33q31 0 64 5.5t60 12.5q32 8 61 18l-1 -114q-25 -10 -55 -19q-26 -8 -59 -14t-70 -5q-44 0 -94.5 10.5t-96.5 38t-82 76t-51 126.5h-99l21 87h68v43h-89l21 87h78
q15 77 51 126t82 77t96.5 38.5t94.5 10.5q38 0 70.5 -5.5t58.5 -11.5q29 -8 55 -17l1 -113q-29 8 -60 15q-26 6 -59 11t-65 5z" />
    <glyph glyph-name="sterling" unicode="&#xa3;" horiz-adv-x="612" 
d="M405 649q-32 0 -53 -10t-33 -29.5t-17.5 -49t-7.5 -68.5v-26h160v-116h-160v-234h249v-116h-483v116h100v234h-100v116h100v17q0 86 23 141t58.5 86.5t79 43t84.5 11.5q35 0 64 -5.5t51 -12.5q26 -8 46 -18l-18 -108q-18 8 -40 14q-19 5 -45 9.5t-58 4.5z" />
    <glyph glyph-name="section" unicode="&#xa7;" horiz-adv-x="552" 
d="M479 302q0 -32 -16.5 -62.5t-39.5 -55.5q29 -26 41 -55.5t11 -58.5q0 -41 -19.5 -74.5t-52 -56.5t-75.5 -35.5t-90 -12.5q-29 0 -55 5t-46 12q-24 7 -43 17l26 105q23 -8 56 -15t63 -7q20 0 40 2.5t35.5 9.5t25.5 18.5t10 29.5q0 14 -6 23.5t-15.5 16.5t-22 12.5
t-25.5 10.5l-30 11q-28 11 -57.5 26t-54 35.5t-40 48.5t-15.5 66q0 32 14 62.5t38 53.5q-19 24 -29.5 54.5t-10.5 61.5q0 39 15 69t40.5 50t59.5 30t71 10q42 0 74.5 -6t55.5 -13q26 -9 46 -19l-15 -105q-20 8 -43 15q-20 5 -46.5 10t-56.5 5q-43 0 -62 -12.5t-19 -31.5
q0 -9 5 -22q9 -17 35 -30.5t57 -27.5l10 -5q24 -12 51.5 -26.5t51 -34t38.5 -45t15 -59.5zM210 296q11 -19 37.5 -29t50.5 -17q7 -2 15 -5q17 7 30 21.5t13 34.5q0 10 -7 17.5t-18.5 14t-26 12t-28.5 10.5q-11 4 -20 6.5t-17 7.5q-17 -7 -28 -18.5t-11 -25.5q0 -6 2.5 -14
t8.5 -17z" />
    <glyph glyph-name="Adieresis" unicode="&#xc4;" horiz-adv-x="707" 
d="M514 873v-116h-116v116h116zM192 757v116h116v-116h-116zM486 165h-265l-60 -165h-152l257 699h175l257 -699h-152zM440 291l-9 25t-22.5 62t-28.5 78t-26 71l-44 -118q-8 -22 -16 -43.5t-14 -38t-9.5 -26.5l-3.5 -10h173z" />
    <glyph glyph-name="brokenbar" unicode="&#xa6;" horiz-adv-x="222" 
d="M163 675v-350h-104v350h104zM163 175v-350h-104v350h104z" />
    <glyph glyph-name="minus" unicode="&#x2212;" horiz-adv-x="600" 
d="M46 201v104h508v-104h-508z" />
    <glyph glyph-name="Odieresis" unicode="&#xd6;" horiz-adv-x="777" 
d="M549 873v-116h-116v116h116zM227 757v116h116v-116h-116zM389 710q53 0 113 -15.5t110.5 -56t84 -111t33.5 -179.5q0 -73 -15.5 -128.5t-41.5 -95.5t-60.5 -66.5t-72 -42t-77 -22t-74.5 -6.5q-53 0 -113 15t-111 55.5t-84.5 110.5t-33.5 180q0 109 33.5 179.5t84.5 111
t111 56t113 15.5zM389 98q42 0 78 15t62 45.5t40.5 78t14.5 112.5q0 63 -14.5 110.5t-40.5 78.5t-62 46.5t-78 15.5t-78 -15.5t-62.5 -47t-41 -78.5t-14.5 -111q0 -65 14.5 -112t41 -77.5t62.5 -45.5t78 -15z" />
    <glyph glyph-name="Udieresis" unicode="&#xdc;" horiz-adv-x="723" 
d="M524 873v-116h-116v116h116zM202 757v116h116v-116h-116zM362 -11q-66 0 -119 20.5t-90 56.5t-57 84.5t-20 104.5v444h140v-460q0 -28 6 -53.5t22.5 -44.5t44.5 -30t73 -11t73 12t44 32t22 46t6 54v455h140v-444q0 -56 -19.5 -104.5t-56.5 -84.5t-89.5 -56.5
t-119.5 -20.5z" />
    <glyph glyph-name="Edieresis" unicode="&#xcb;" horiz-adv-x="554" 
d="M449 873v-116h-116v116h116zM127 757v116h116v-116h-116zM221 111h272v-111h-412v699h412l-23 -111h-249v-171h249v-111h-249v-195z" />
    <glyph glyph-name="Idieresis" unicode="&#xcf;" horiz-adv-x="278" 
d="M300 872v-116h-116v116h116zM-22 756v116h116v-116h-116zM208 699v-699h-139v699h139z" />
    <glyph glyph-name="ae" unicode="&#xe6;" horiz-adv-x="893" 
d="M487 214v-4q4 -15 16 -34.5t32.5 -37.5t50 -30.5t68.5 -12.5q28 0 57 7t52 16q27 10 53 23v-103q0 -1 -13 -8.5t-35 -16.5t-51.5 -16.5t-62.5 -7.5q-78 0 -132 21t-90 56q-42 -35 -99 -56t-118 -21q-32 0 -62 9.5t-53.5 28t-38 46t-15.5 64.5q-2 39 9.5 69.5t34 52.5
t54.5 35.5t71 18.5q37 5 70.5 4t68.5 -3q0 20 -3 38t-13 31.5t-29.5 21.5t-52.5 8q-44 0 -77 -7.5t-56 -16.5t-34.5 -16.5l-11.5 -7.5l1 111q19 11 45 21q23 8 56 15t77 7q25 0 52 -3t51.5 -9t46 -15.5t36.5 -22.5q29 23 68.5 36.5t90.5 13.5q65 0 111.5 -21.5t76.5 -57
t44.5 -81.5t14.5 -94v-51h-361zM601 413q-25 0 -45 -9t-34.5 -24t-23.5 -33t-11 -36h228q-2 18 -11 36t-23.5 33t-34.5 24t-45 9zM242 94q19 -1 39.5 5.5t36.5 19.5t26 33t10 46v42q-23 1 -52.5 0.5t-59.5 -9.5q-26 -8 -44.5 -23.5t-18.5 -44.5q0 -32 19 -49.5t44 -19.5z
" />
    <glyph glyph-name="scaron" unicode="&#x161;" horiz-adv-x="447" 
d="M191 584l-105 146h89l68 -86l70 86h89l-110 -146h-101zM175 379q0 -21 16.5 -36.5t41 -29t53.5 -27t53.5 -32t41 -43t16.5 -59.5q0 -37 -13 -67t-36.5 -51.5t-55.5 -33t-69 -11.5q-56 0 -103 26t-89 76l90 58q7 -8 18 -18.5t24.5 -19.5t29.5 -15t33 -6q24 0 36.5 11.5
t12.5 27.5q0 29 -20 42.5t-48 25.5q-25 11 -52.5 25t-50 34.5t-37.5 49t-15 67.5t15 68t41 48t61 28.5t74 9.5t69.5 -10t51.5 -22q25 -14 43 -32l-66 -78q1 0 -5 5.5t-18.5 13t-31.5 14.5t-43 8q-11 0 -23 -2t-22 -7.5t-16.5 -14.5t-6.5 -23z" />
    <glyph glyph-name="Scaron" unicode="&#x160;" horiz-adv-x="592" 
d="M228 735l-105 146h89l68 -86l70 86h89l-110 -146h-101zM227 515q0 -31 23.5 -51t59 -36t76.5 -32.5t76.5 -41t59 -61t23.5 -92.5q0 -47 -17.5 -84t-47.5 -66h1q-22 -22 -47.5 -34.5t-49.5 -18.5t-43 -7.5t-28 -1.5q-52 0 -98 19t-81 42.5t-55.5 42.5l-20.5 19l102 69
q18 -21 42 -38q20 -14 47.5 -25.5t60.5 -11.5q18 0 35 6.5t30.5 18.5t21.5 28.5t8 36.5q0 30 -24 49.5t-60 34.5t-78.5 31.5t-78.5 40.5t-60 61t-24 95q0 54 22.5 92.5t60 63t86 35.5t99.5 10q44 0 80 -12.5t62 -26.5q31 -17 56 -38l-72 -92q-18 15 -40 26q-19 10 -45 18
t-56 8q-9 1 -26.5 -2t-35 -11.5t-31 -24t-13.5 -39.5z" />
    <glyph glyph-name="plusminus" unicode="&#xb1;" horiz-adv-x="600" 
d="M248 506h104v-132h202v-104h-202v-133h-104v133h-202v104h202v132zM46 104h508v-104h-508v104z" />
    <glyph glyph-name="Aring" unicode="&#xc5;" horiz-adv-x="707" 
d="M242 828q0 22 8.5 41.5t23 34t34 23t41.5 8.5t41.5 -8.5t33.5 -23t22.5 -34t8.5 -41.5q0 -45 -30.5 -75.5t-75.5 -30.5q-22 0 -41.5 8.5t-34 22.5t-23 33.5t-8.5 41.5zM296 828q0 -22 15 -37t38 -15q22 0 37 15t15 37q0 23 -15 38t-37 15q-23 0 -38 -15t-15 -38zM486 165
h-265l-60 -165h-152l257 699h175l257 -699h-152zM440 291l-9 25t-22.5 62t-28.5 78t-26 71l-44 -118q-8 -22 -16 -43.5t-14 -38t-9.5 -26.5l-3.5 -10h173z" />
    <glyph glyph-name="Atilde" unicode="&#xc3;" horiz-adv-x="707" 
d="M537 851q-21 -46 -44 -63.5t-49 -17.5q-19 0 -38.5 6.5t-39.5 14.5q-19 8 -36.5 14.5t-35.5 6.5t-35.5 -11.5t-36.5 -40.5l-42 53q22 47 47.5 63.5t51.5 16.5q22 0 42.5 -7t41.5 -16q18 -7 35 -13t33 -6t32 13t30 45zM486 165h-265l-60 -165h-152l257 699h175l257 -699
h-152zM440 291l-9 25t-22.5 62t-28.5 78t-26 71l-44 -118q-8 -22 -16 -43.5t-14 -38t-9.5 -26.5l-3.5 -10h173z" />
    <glyph glyph-name="Yacute" unicode="&#xdd;" horiz-adv-x="656" 
d="M352 890h128l-133 -146h-84zM256 0h136v270l253 412h-145l-172 -286l-173 286h-144l245 -412v-270z" />
    <glyph glyph-name="Agrave" unicode="&#xc0;" horiz-adv-x="707" 
d="M390 744h-84l-133 146h128zM546 0h152l-257 699h-175l-257 -699h152l60 165h265zM267 291l3.5 10t9.5 26.5t14 38t16 43.5l44 118q11 -30 26 -71t28.5 -78t22.5 -62l9 -25h-173z" />
    <glyph glyph-name="Aacute" unicode="&#xc1;" horiz-adv-x="707" 
d="M356 890h128l-133 -146h-84zM546 0h152l-257 699h-175l-257 -699h152l60 165h265zM267 291l3.5 10t9.5 26.5t14 38t16 43.5l44 118q24 -66 43 -118q8 -22 16 -43.5t14 -38t9.5 -26.5l3.5 -10h-173z" />
    <glyph glyph-name="Egrave" unicode="&#xc8;" horiz-adv-x="554" 
d="M361 744h-84l-133 146h128zM221 306h249v111h-249v171h249l23 111h-412v-699h412v111h-272v195z" />
    <glyph glyph-name="Eacute" unicode="&#xc9;" horiz-adv-x="554" 
d="M285 890h128l-133 -146h-84zM221 306h249v111h-249v171h249l23 111h-412v-699h412v111h-272v195z" />
    <glyph glyph-name="Ydieresis" unicode="&#x178;" horiz-adv-x="656" 
d="M489 873v-116h-116v116h116zM167 757v116h116v-116h-116zM256 270l-245 412h144l173 -286l172 286h145l-253 -412v-270h-136v270z" />
    <glyph glyph-name="ydieresis" unicode="&#xff;" horiz-adv-x="557" 
d="M439 701v-116h-116v116h116zM117 585v116h116v-116h-116zM546 515l-194 -542v1q-1 -2 -7 -17.5t-19 -37.5t-33 -46.5t-48.5 -45.5t-66 -35t-84.5 -14v115q29 0 50 12.5t35 27.5q16 18 27 41l-195 541h148l126 -375l114 375h147z" />
    <glyph glyph-name="Igrave" unicode="&#xcc;" horiz-adv-x="275" 
d="M218 744h-84l-133 146h128zM75 699v-699h139v699h-139z" />
    <glyph glyph-name="zcaron" unicode="&#x17e;" horiz-adv-x="490" 
d="M194 584l-105 146h89l68 -86l70 86h89l-110 -146h-101zM462 515v-111l-255 -299h264v-105h-428v110l260 300h-249v105h408z" />
    <glyph glyph-name="Zcaron" unicode="&#x17d;" horiz-adv-x="566" 
d="M229 735l-105 146h89l68 -86l70 86h89l-110 -146h-101zM524 590l-333 -479h339l-1 -111h-493l1 111l332 479h-311v109h466v-109z" />
    <glyph glyph-name="Iacute" unicode="&#xcd;" horiz-adv-x="275" 
d="M146 890h128l-133 -146h-84zM72 699v-699h139v699h-139z" />
    <glyph glyph-name="Oacute" unicode="&#xd3;" horiz-adv-x="777" 
d="M416 890h128l-133 -146h-84zM389 710q-53 0 -113 -15.5t-111 -56t-84.5 -111t-33.5 -179.5q0 -110 33.5 -180t84.5 -109.5t111 -54.5t113 -15t113 15t110.5 54.5t84 109.5t33.5 180q0 109 -33.5 179.5t-84 111t-110.5 56t-113 15.5zM389 98q-42 0 -78 15t-62.5 45.5
t-41 77.5t-14.5 112q0 64 14.5 111t41 78.5t62.5 47t78 15.5t78 -15.5t62 -46.5t40.5 -78.5t14.5 -110.5q0 -65 -14.5 -112.5t-40.5 -78t-62 -45.5t-78 -15z" />
    <glyph glyph-name="Uacute" unicode="&#xda;" horiz-adv-x="723" 
d="M366 890h128l-133 -146h-84zM362 -11q-66 0 -119 20.5t-90 56.5t-57 84.5t-20 104.5v444h140v-460q0 -28 6 -53.5t22.5 -44.5t44.5 -30t73 -11t73 12t44 32t22 46t6 54v455h140v-444q0 -56 -19.5 -104.5t-56.5 -84.5t-89.5 -56.5t-119.5 -20.5z" />
    <glyph glyph-name="Ograve" unicode="&#xd2;" horiz-adv-x="777" 
d="M460 744h-84l-133 146h128zM389 710q-53 0 -113 -15.5t-111 -56t-84.5 -111t-33.5 -179.5q0 -110 33.5 -180t84.5 -109.5t111 -54.5t113 -15t113 15t110.5 54.5t84 109.5t33.5 180q0 109 -33.5 179.5t-84 111t-110.5 56t-113 15.5zM389 98q-42 0 -78 15t-62.5 45.5
t-41 77.5t-14.5 112q0 64 14.5 111t41 78.5t62.5 47t78 15.5t78 -15.5t62 -46.5t40.5 -78.5t14.5 -110.5q0 -65 -14.5 -112.5t-40.5 -78t-62 -45.5t-78 -15z" />
    <glyph glyph-name="Ugrave" unicode="&#xd9;" horiz-adv-x="723" 
d="M456 744h-84l-133 146h128zM362 -11q-66 0 -119 20.5t-90 56.5t-57 84.5t-20 104.5v444h140v-460q0 -28 6 -53.5t22.5 -44.5t44.5 -30t73 -11t73 12t44 32t22 46t6 54v455h140v-444q0 -56 -19.5 -104.5t-56.5 -84.5t-89.5 -56.5t-119.5 -20.5z" />
    <glyph glyph-name="emdash" unicode="&#x2014;" horiz-adv-x="1000" 
d="M0 315h1000v-92h-1000v92z" />
    <glyph glyph-name="endash" unicode="&#x2013;" horiz-adv-x="500" 
d="M0 315h500v-92h-500v92z" />
    <glyph glyph-name="acute" unicode="&#xb4;" horiz-adv-x="347" 
d="M186 723h154l-160 -174h-107z" />
    <glyph glyph-name="thorn" unicode="&#xfe;" horiz-adv-x="607" 
d="M360 -11q-39 0 -68 12t-49 27q-23 17 -40 39v-275h-134v953h131l-1 -298q15 22 38 40q20 15 50 27.5t73 12.5q59 0 100 -21.5t66.5 -57.5t37 -84.5t11.5 -102.5t-11.5 -103.5t-37 -87t-66.5 -59.5t-100 -22zM318 422q24 0 45 -9.5t36.5 -29.5t25 -50.5t9.5 -71.5
t-9.5 -72.5t-25 -52.5t-36.5 -32t-45 -11q-48 0 -81.5 43t-33.5 125q0 83 33.5 122t81.5 39zM360 -11q-39 0 -68 12t-49 27q-23 17 -40 39v-275h-134v953h131l-1 -298q15 22 38 40q20 15 50 27.5t73 12.5q59 0 100 -21.5t66.5 -57.5t37 -84.5t11.5 -102.5t-11.5 -103.5
t-37 -87t-66.5 -59.5t-100 -22zM318 422q24 0 45 -9.5t36.5 -29.5t25 -50.5t9.5 -71.5t-9.5 -72.5t-25 -52.5t-36.5 -32t-45 -11q-48 0 -81.5 43t-33.5 125q0 83 33.5 122t81.5 39z" />
    <glyph glyph-name="Thorn" unicode="&#xde;" horiz-adv-x="568" 
d="M273 571q55 0 103.5 -11t85 -36.5t57.5 -67t21 -103.5q0 -60 -21.5 -101.5t-56.5 -67t-81 -36.5t-94 -11h-74v-137h-130v700h131v-129h59zM272 248q27 0 51.5 5.5t42.5 18t29 33t11 49.5q0 30 -11 50.5t-29 32.5t-42.5 17.5t-51.5 5.5h-58v-212h58z" />
    <glyph glyph-name="Ntilde" unicode="&#xd1;" horiz-adv-x="722" 
d="M538 848q-21 -46 -44 -63.5t-49 -17.5q-19 0 -38.5 6.5t-39.5 14.5q-19 8 -36.5 14.5t-35.5 6.5t-35.5 -11t-36.5 -40l-42 59q22 47 47.5 63.5t51.5 16.5q22 0 42.5 -7t41.5 -16q18 -7 35 -13t33 -6t32 13t30 45zM648 0h-184l-257 525v-525h-133v699h184l257 -524v524
h133v-699z" />
    <glyph glyph-name="daggerdbl" unicode="&#x2021;" horiz-adv-x="573" 
d="M59 555h155v143h128v-143h155v-98h-155v-212h155v-98h-155v-147h-128v147h-155v98h155v212h-155v98z" />
    <glyph glyph-name="copyright" unicode="&#xa9;" horiz-adv-x="834" 
d="M229 358q1 46 16 85t42 66.5t64.5 43t82.5 15.5q26 0 52 -5t56 -14l-6 -70q-30 9 -54 13t-44 4q-59 0 -94.5 -34t-35.5 -104q0 -75 39 -115.5t97 -40.5q36 0 92 23l6 -74q-62 -20 -102 -20q-46 0 -84.5 16t-66.5 46t-44 72t-16 93zM418 725q77 0 145.5 -29.5t120 -80.5
t81.5 -120t30 -148q0 -76 -30 -144t-81.5 -119t-120 -81t-145.5 -30q-78 0 -147 30t-120.5 81t-81.5 119t-30 144q0 79 30 148t81.5 120t120.5 80.5t147 29.5zM418 58q60 0 113 22.5t93 61.5t63.5 92t23.5 113q0 61 -23.5 115.5t-63.5 95t-93 64t-113 23.5t-113.5 -23.5
t-93.5 -64t-63.5 -95t-23.5 -115.5q0 -60 23.5 -113t63.5 -92t93.5 -61.5t113.5 -22.5z" />
    <glyph glyph-name="numbersign" unicode="#" horiz-adv-x="642" 
d="M553 204h-99l-31 -206h-94l31 206h-110l-32 -206h-95l32 206h-97v80h108l19 128h-95v80h108l30 206h95l-30 -206h110l30 206h94l-30 -206h87v-80h-100l-18 -128h87v-80zM280 412l-18 -128h109l19 128h-110z" />
    <glyph glyph-name="trademark" unicode="&#x2122;" horiz-adv-x="891" 
d="M40 699v-71h113v-354h73v354h113v71h-299zM485 700l128 -304l126 304h83v-424h-71v273q-28 -68 -56.5 -137t-55.5 -136h-55l-112 272v-272h-71v424h84z" />
    <glyph glyph-name="AE" unicode="&#xc6;" horiz-adv-x="925" 
d="M852 111v-111h-413v165h-181l-101 -165h-158l422 699h433l-25 -111h-249v-171h248v-111h-248v-195h272zM439 473l-13 -20.5t-30.5 -50t-36.5 -60.5t-31 -50h111v181z" />
    <glyph glyph-name="percent" unicode="%" horiz-adv-x="952" 
d="M262 684q24 0 52.5 -8t52.5 -29.5t40.5 -58.5t16.5 -95t-16.5 -95.5t-40.5 -59t-52.5 -29.5t-52.5 -8q-23 0 -51.5 8t-53 29.5t-41 59t-16.5 95.5t16.5 95t41 58.5t53 29.5t51.5 8zM262 396q26 0 43.5 21t17.5 76q0 53 -17.5 73t-43.5 20t-43.5 -20t-17.5 -73
q0 -55 17.5 -76t43.5 -21zM680 404q24 0 52.5 -8t52.5 -29.5t40.5 -58.5t16.5 -95t-16.5 -95.5t-40.5 -59t-52.5 -29.5t-52.5 -8q-23 0 -51 8t-52.5 29.5t-41 59t-16.5 95.5t16.5 95t41 58.5t52.5 29.5t51 8zM680 116q26 0 43.5 21t17.5 76q0 53 -17.5 73t-43.5 20
t-43.5 -20t-17.5 -73q0 -55 17.5 -76t43.5 -21zM642 720h82l-432 -742h-82z" />
    <glyph glyph-name="ordfeminine" unicode="&#xaa;" horiz-adv-x="342" 
d="M188 733q23 0 46.5 -7t42 -20.5t30.5 -34.5t12 -48v-243h-67l-14 21q-15 -12 -36 -20t-50 -8q-57 0 -93 28t-36 88q0 34 14 57t36 36.5t48 19t50 5.5h57v3q0 17 -6.5 31.5t-33.5 14.5q-26 0 -54 -9t-68 -29v81q27 14 60 24t62 10zM156 452q29 0 48 13.5t24 35.5v34h-18
q-10 0 -26.5 -1.5t-32 -6t-26.5 -13.5t-11 -25q0 -20 14 -28.5t28 -8.5z" />
    <glyph glyph-name="ordmasculine" unicode="&#xba;" horiz-adv-x="374" 
d="M186 711q24 0 52 -7t52 -26t40.5 -51.5t16.5 -83.5t-16.5 -83.5t-40.5 -51.5t-52 -26t-52 -7t-52 7t-52 26t-40 51.5t-16 83.5t16 83.5t40 51.5t52 26t52 7zM186 449q31 0 52.5 22.5t21.5 71.5q0 48 -21.5 72.5t-52.5 24.5t-52.5 -24.5t-21.5 -72.5q0 -49 21.5 -71.5
t52.5 -22.5z" />
    <glyph glyph-name="perthousand" unicode="&#x2030;" horiz-adv-x="1097" 
d="M932 372q24 0 52 -8t52.5 -29.5t41 -58.5t16.5 -95t-16.5 -95.5t-41 -59t-52.5 -29.5t-52 -8q-23 0 -51.5 8t-53 29.5t-41 59t-16.5 95.5t16.5 95t41 58.5t53 29.5t51.5 8zM932 84q26 0 43.5 21t17.5 76q0 53 -17.5 73t-43.5 20t-43.5 -20t-17.5 -73q0 -55 17.5 -76
t43.5 -21zM572 372q24 0 52 -8t52 -29.5t40.5 -58.5t16.5 -95t-16.5 -95.5t-40.5 -59t-52 -29.5t-52 -8t-52 8t-52.5 29.5t-41 59t-16.5 95.5t16.5 95t41 58.5t52.5 29.5t52 8zM572 84q26 0 43 21t17 76q0 53 -17 73t-43 20t-44 -20t-18 -73q0 -55 18 -76t44 -21zM165 684
q24 0 52 -8t52.5 -29.5t41 -58.5t16.5 -95t-16.5 -95.5t-41 -59t-52.5 -29.5t-52 -8t-52 8t-52.5 29.5t-41 59t-16.5 95.5t16.5 95t41 58.5t52.5 29.5t52 8zM165 396q26 0 43 21t17 76q0 53 -17 73t-43 20t-44 -20t-18 -73q0 -55 18 -76t44 -21zM551 720h82l-432 -742h-82z
" />
    <glyph glyph-name="Ccedilla" unicode="&#xc7;" horiz-adv-x="588" 
d="M566 565q-40 15 -83.5 24t-85 7.5t-78.5 -14.5t-65 -42t-44.5 -76t-16.5 -115q0 -69 16.5 -116t44.5 -76.5t65 -42.5t78.5 -13.5t85 9.5t83.5 27v-110q-20 -9 -45 -16q-21 -7 -50 -13t-61 -8l-17 -27q6 1 11.5 1.5t11.5 0.5q32 0 58 -19t34 -48q6 -27 -6 -52
q-13 -27 -47 -45q-35 -19 -76 -19q-34 0 -60.5 9.5t-42.5 16.5l-4 2l-9 5l23 49l10 -5q48 -25 82 -25q28 0 41 13.5t13 29.5t-12 29t-35 13q-19 0 -44 -11l-3 -2l-20 26l34 58q-50 3 -104 21.5t-98.5 59t-73.5 108.5t-29 170q0 72 15 127t41 95t59.5 66.5t70.5 42.5t75 22.5
t72 6.5q38 0 71.5 -5.5t59.5 -12.5q30 -8 55 -17v-109v0z" />
    <glyph glyph-name="cedilla" unicode="&#xb8;" horiz-adv-x="328" 
d="M235 -24q58 -8 80 -38.5t14.5 -64t-40 -60t-81.5 -26.5q-35 0 -66.5 11.5t-51.5 26.5l27 57l12 -10q23 -20 43 -22t34 -2q23 0 35 11.5t13 25t-9 25t-31 11.5q-9 0 -20.5 -3.5t-27.5 -9.5l-23 30l55 81h66z" />
    <glyph glyph-name="cent" unicode="&#xa2;" horiz-adv-x="460" 
d="M440 409q-8 2 -19 4q-9 2 -21.5 4t-26.5 4l-100 -328q8 -2 15.5 -3t15.5 -1q23 0 47 3t44 8q23 5 45 12v-93q-16 -9 -37 -15q-18 -6 -43 -10.5t-56 -4.5q-28 0 -61 6l-25 -83l-63 -1l31 101q-30 12 -57 32t-47.5 50t-33 70.5t-12.5 93.5q0 81 27 133t67.5 82t87.5 42
t87 12h20.5t19.5 -2l26 84h59l-29 -94l16.5 -5.5t12.5 -4.5q6 -3 10 -4v-92zM314 426h-9q-27 0 -50.5 -12t-40.5 -33.5t-27 -52.5t-10 -70q0 -45 12 -78.5t32 -54.5z" />
    <glyph glyph-name="ccedilla" unicode="&#xe7;" horiz-adv-x="460" 
d="M478 397q-39 16 -84.5 21.5t-84.5 -8t-65 -50.5t-26 -104q0 -71 26 -107t65 -48t84.5 -5t84.5 24v-103q-12 -7 -28 -12q-14 -5 -33 -9.5t-44 -6.5l-19 -29q6 1 11.5 1.5t11.5 0.5q32 0 58 -19t34 -48q6 -27 -6 -52q-13 -27 -47 -45q-35 -19 -76 -19q-34 0 -60.5 9.5
t-42.5 16.5l-4 2l-9 5l23 49l10 -5q48 -25 82 -25q28 0 41 13.5t13 29.5t-12 29t-35 13q-19 0 -44 -11l-3 -2l-20 26l37 60q-39 3 -81 16t-77 43t-57.5 80t-22.5 128q0 85 27 138t67.5 82t87.5 39t87 10q31 0 55 -4t41 -9q19 -6 35 -13v-102v0z" />
    <glyph glyph-name="breve" unicode="&#x2d8;" horiz-adv-x="276" 
d="M300 722q0 -34 -12.5 -62t-34.5 -47.5t-51.5 -30.5t-63.5 -11t-63.5 11t-51.5 30.5t-34.5 47.5t-12.5 62l60 -1q0 -16 8.5 -30t22.5 -24t33 -16t39 -6q19 0 37 6t31.5 16t21.5 24t8 31h63z" />
    <glyph glyph-name="oe" unicode="&#x153;" horiz-adv-x="931" 
d="M939 216h-354q1 -12 8.5 -33.5t24 -42.5t43.5 -36.5t68 -15.5q38 0 70 7.5t55 17.5q26 11 48 26v-110q0 -1 -12.5 -7t-34.5 -13.5t-52 -13.5t-64 -6q-79 0 -132 22t-86 58q-22 -23 -48 -38.5t-53 -24.5t-54 -13t-51 -4q-40 0 -87 12t-87.5 42.5t-67.5 82.5t-27 133
t27 133t67.5 82t87.5 41.5t87 11.5q24 0 50.5 -3.5t53 -12.5t52 -24t47.5 -37q29 35 72.5 56t106.5 21q68 0 114 -24t74.5 -62.5t41 -86.5t12.5 -96v-42zM315 90q56 0 93.5 44t37.5 125t-37.5 124.5t-93.5 43.5q-54 0 -91 -43.5t-37 -124.5q0 -40 10 -71.5t27 -53t40.5 -33
t50.5 -11.5zM812 308q0 17 -4.5 38t-17 39t-35 30t-58.5 12t-58 -12t-34 -30t-16 -39t-4 -38h227z" />
    <glyph glyph-name="DC2" horiz-adv-x="0" 
 />
    <glyph glyph-name="Lslash" unicode="&#x141;" horiz-adv-x="568" 
d="M560 111v-111h-420v231l-59 -34v105l59 34v363h140v-288q45 26 94.5 56t90.5 53v-104l-185 -109v-196h280z" />
    <glyph glyph-name="lslash" unicode="&#x142;" horiz-adv-x="299" 
d="M271 408l-52 -43v-365h-139v261q-16 -14 -30.5 -25.5t-24.5 -19.5v111l55 44v328h139v-227q16 12 29.5 24t22.5 19v-107z" />
    <glyph glyph-name="Eth" unicode="&#xd0;" horiz-adv-x="661" 
 />
    <glyph glyph-name="eth" unicode="&#xf0;" horiz-adv-x="833" 
 />
    <glyph glyph-name="dotaccent" unicode="&#x2d9;" horiz-adv-x="316" 
d="M224 699v-131h-132v131h132z" />
    <glyph glyph-name="ring" unicode="&#x2da;" horiz-adv-x="278" 
d="M33 659q0 22 8.5 41.5t23 34t34 23t41.5 8.5t41.5 -8.5t33.5 -23t22.5 -34t8.5 -41.5q0 -45 -30.5 -75.5t-75.5 -30.5q-22 0 -41.5 8.5t-34 22.5t-23 33.5t-8.5 41.5zM87 659q0 -22 15 -37t38 -15q22 0 37 15t15 37q0 23 -15 38t-37 15q-23 0 -38 -15t-15 -38z" />
    <glyph glyph-name="multiply" unicode="&#xd7;" horiz-adv-x="634" 
d="M67 429l84 86l167 -167l164 167l85 -86l-165 -164l165 -168l-85 -85l-164 168l-167 -168l-84 85l167 168z" />
    <glyph glyph-name="mu" unicode="&#xb5;" 
d="M542 515v-515h-102l-27 71l-10 -12.5t-30 -28t-49.5 -28.5t-69.5 -13q-14 0 -26.5 1t-24.5 3v-171h-134v396v297h134v-279q0 -74 20 -108.5t69 -34.5q59 0 87.5 48.5t28.5 128.5v245h134z" />
    <glyph glyph-name="oslash" unicode="&#xf8;" horiz-adv-x="612" 
d="M503 454q32 -32 52.5 -79.5t20.5 -116.5q0 -81 -27.5 -133t-68.5 -82t-88 -42t-87 -12q-35 0 -76 9t-79 32l-53 -64l-41 33l53 63q-32 31 -52.5 79t-20.5 117q0 81 27 133t67.5 82t87.5 42t87 12q35 0 77 -9.5t80 -32.5l55 66l40 -33zM177 258q0 -27 5 -50t13 -43
l192 230q-36 31 -82 31q-54 0 -91 -43.5t-37 -124.5zM305 89q56 0 93.5 44t37.5 125q0 55 -18 93l-192 -230q34 -32 79 -32z" />
    <glyph glyph-name="Otilde" unicode="&#xd5;" horiz-adv-x="771" 
d="M551 851q-21 -46 -44 -63.5t-49 -17.5q-19 0 -38.5 6.5t-39.5 14.5q-19 8 -36.5 14.5t-35.5 6.5t-35.5 -11.5t-36.5 -40.5l-42 53q22 47 47.5 63.5t51.5 16.5q22 0 42.5 -7t41.5 -16q18 -7 35 -13t33 -6t32 13t30 45zM386 709q35 0 74.5 -6.5t77 -22.5t72 -42.5
t60.5 -66.5t41.5 -95t15.5 -128q0 -110 -33.5 -180t-84 -109.5t-110.5 -54.5t-113 -15t-113 15t-111 54.5t-84.5 109.5t-33.5 180q0 109 33.5 179t84.5 110.5t111 56t113 15.5zM386 98q42 0 78 15t62 45.5t40.5 78t14.5 112.5q0 63 -14.5 110t-40.5 78t-62 46.5t-78 15.5
t-78 -15.5t-62.5 -46.5t-41 -78t-14.5 -111q0 -65 14.5 -112t41 -77.5t62.5 -45.5t78 -15z" />
    <glyph glyph-name="yen" unicode="&#xa5;" horiz-adv-x="656" 
d="M645 682l-183 -297h54v-85h-106l-18 -30v-21h124v-85h-124v-164h-136v164h-116v85h116v21l-17 30h-99v85h48l-177 297h144l173 -286l172 286h145v0z" />
    <glyph glyph-name="Oslash" unicode="&#xd8;" horiz-adv-x="777" 
d="M633 620q43 -42 70 -107.5t27 -164.5q0 -110 -33.5 -180t-84 -109.5t-110.5 -54.5t-113 -15q-48 0 -100.5 11.5t-100.5 41.5l-58 -75l-39 37l55 71q-44 42 -71.5 107.5t-27.5 165.5q0 109 33.5 179.5t84.5 111t111 56t113 15.5q48 0 101.5 -12.5t101.5 -44.5l56 72
l38 -36zM193 348q0 -102 37 -164l285 369q-52 47 -126 47q-42 0 -78 -15.5t-62.5 -47t-41 -78.5t-14.5 -111zM389 98q42 0 78 15t62 45.5t40.5 78t14.5 112.5q0 51 -9.5 91t-26.5 70l-283 -368q50 -44 124 -44z" />
    <glyph glyph-name="ogonek" unicode="&#x2db;" horiz-adv-x="325" 
d="M73 -114q3 21 16 43.5t31.5 43t40 37.5t39.5 28h54q-21 -17 -37 -42t-25 -51t-10 -48t7.5 -32t28 -4t52.5 36q2 1 12.5 -8t23.5 -14q-8 -31 -29 -53t-48.5 -34t-57 -13t-53 10.5t-37 36t-8.5 64.5z" />
    <glyph glyph-name="paragraph" unicode="&#xb6;" horiz-adv-x="612" 
d="M527 710l-1 -808l-105 -1v693h-103l-6 -693h-105v423h-19q-46 0 -80.5 16.5t-58 44.5t-35.5 63t-12 73q0 37 11.5 70t34.5 58.5t58.5 41.5t82.5 19h338z" />
    <glyph glyph-name="onehalf" unicode="&#xbd;" horiz-adv-x="796" 
d="M516 720h82l-432 -742h-82zM763 81v-80h-305v40q0 69 50 118q18 19 42.5 34t47.5 27q36 21 58.5 38.5t22.5 41.5q0 25 -17 40q-19 17 -55 17q-35 0 -60 -21q-7 -6 -11.5 -12t-6.5 -9l1 3q-1 -2 -2.5 -4t-3.5 -4l-5 -5l-66 35q1 1 4.5 7.5t9 15t12.5 17.5t16 16
q49 41 112 41q67 0 109 -39v1q43 -38 43 -99q0 -55 -44 -97q-17 -15 -38 -28t-42 -24l-7 -4h1q-18 -11 -35 -21t-30 -24q-12 -10 -16 -21h215zM185 699v-425h-81v313l-54 -48l-40 65l109 95h66z" />
    <glyph glyph-name="onequarter" unicode="&#xbc;" horiz-adv-x="720" 
d="M528 720h82l-432 -742h-82zM195 699v-425h-81v313l-54 -48l-40 65l109 95h66zM694 168v-69h-55v-99h-83v99h-184v75l173 263h94v-269h55zM556 168v154l-98 -154h98z" />
    <glyph glyph-name="onesuperior" unicode="&#xb9;" horiz-adv-x="303" 
d="M187 699v-425h-81v313l-54 -48l-40 65l109 95h66z" />
    <glyph glyph-name="threequarters" unicode="&#xbe;" horiz-adv-x="739" 
d="M564 720h82l-432 -742h-82zM306 570q-2 -24 -11 -44.5t-25 -38.5q18 -17 26.5 -39.5t9.5 -48.5q0 -43 -22.5 -74.5t-57 -48t-76 -16.5t-77.5 18q-14 6 -28 18.5t-31 27.5l61 57q13 -14 32 -26.5t44 -12.5q13 0 26.5 3.5t24 10.5t17 18t6.5 26q0 16 -13 31.5t-45 15.5h-45
l-5 82h50q19 0 37.5 9.5t20.5 33.5q-2 30 -23.5 43t-50.5 13q-25 0 -44 -13t-32 -26l-61 56q30 40 78 55t95 5.5t81.5 -42t37.5 -86.5v-7zM726 168v-69h-55v-99h-83v99h-184v75l173 263h94v-269h55zM588 168v154l-98 -154h98z" />
    <glyph glyph-name="threesuperior" unicode="&#xb3;" horiz-adv-x="329" 
d="M302 570q-2 -24 -11 -44.5t-25 -38.5q18 -17 26.5 -39.5t9.5 -48.5q0 -43 -22.5 -74.5t-57 -48t-76 -16.5t-77.5 18q-14 6 -28 18.5t-31 27.5l61 57q13 -14 32 -26.5t44 -12.5q13 0 26.5 3.5t24 10.5t17 18t6.5 26q0 16 -13 31.5t-45 15.5h-45l-5 82h50q19 0 37.5 9.5
t20.5 33.5q-2 30 -23.5 43t-50.5 13q-25 0 -44 -13t-32 -26l-61 56q30 40 78 55t95 5.5t81.5 -42t37.5 -86.5v-7v0z" />
    <glyph glyph-name="twosuperior" unicode="&#xb2;" horiz-adv-x="369" 
d="M340 354v-80h-305v40q0 69 50 118q18 19 42.5 34t47.5 27q36 21 58.5 38.5t22.5 41.5q0 25 -17 40q-19 17 -55 17q-35 0 -60 -21q-7 -6 -11.5 -12t-6.5 -9l1 3q-1 -2 -2.5 -4t-3.5 -4l-5 -5l-66 35q1 1 4.5 7.5t9 15t12.5 17.5t16 16q49 41 112 41q67 0 109 -39v1
q43 -38 43 -99q0 -55 -44 -97q-17 -15 -38 -28t-42 -24l-7 -4h1q-18 -11 -35 -21t-30 -24q-12 -10 -16 -21h215z" />
    <glyph glyph-name="LF" unicode="&#xa;" horiz-adv-x="0" 
 />
    <glyph glyph-name="fraction" unicode="&#x2044;" horiz-adv-x="167" 
d="M251 720h82l-417 -742h-82z" />
    <glyph glyph-name="germandbls" unicode="&#xdf;" horiz-adv-x="833" 
 />
    <glyph glyph-name="fi" unicode="&#xfb01;" horiz-adv-x="676" 
d="M306 649q-20 0 -30.5 -6.5t-15.5 -16t-6 -21.5t-1 -23v-67h116v-98h-116v-417h-135v417h-99v98h99v92q0 52 19.5 83t49 47t63.5 21t63 4t48.5 -4.5l19.5 -3.5l-14 -111q-8 1 -18 3q-8 1 -19.5 2t-23.5 1zM462 0v515h135v-515h-135zM604 677q0 -32 -22 -54t-53 -22
q-32 0 -54 22t-22 54q0 31 22 52.5t54 21.5q31 0 53 -21.5t22 -52.5z" />
    <glyph glyph-name="fl" unicode="&#xfb02;" horiz-adv-x="769" 
d="M306 649q-20 0 -30.5 -6.5t-15.5 -16t-6 -21.5t-1 -23v-67h116v-98h-116v-417h-135v417h-99v98h99v92q0 52 19.5 83t49 47t63.5 21t63 4t48.5 -4.5l19.5 -3.5l-14 -111q-8 1 -18 3q-8 1 -19.5 2t-23.5 1zM612 144q1 -17 9 -27t19.5 -14.5t26 -5t30.5 1.5v-103
q-14 -3 -24.5 -4.5t-18.5 -2.5q-9 -1 -15 0q-38 0 -68 3t-51 19.5t-32 50t-11 95.5v593h135v-606z" />
    <glyph glyph-name="integral" unicode="&#x222b;" horiz-adv-x="833" 
 />
    <glyph glyph-name="Acircumflex" unicode="&#xc2;" horiz-adv-x="707" 
d="M405 889l105 -146h-89l-68 86l-70 -86h-89l110 146h101zM486 165h-265l-60 -165h-152l257 699h175l257 -699h-152zM440 291l-9 25t-22.5 62t-28.5 78t-26 71l-44 -118q-8 -22 -16 -43.5t-14 -38t-9.5 -26.5l-3.5 -10h173z" />
    <glyph glyph-name="Ecircumflex" unicode="&#xca;" horiz-adv-x="554" 
d="M337 889l105 -146h-89l-68 86l-70 -86h-89l110 146h101zM221 111h272v-111h-412v699h412l-23 -111h-249v-171h249v-111h-249v-195z" />
    <glyph glyph-name="hungarumlaut" unicode="&#x2dd;" horiz-adv-x="833" 
 />
    <glyph glyph-name="Icircumflex" unicode="&#xce;" horiz-adv-x="278" 
d="M192 889l105 -146h-89l-68 86l-70 -86h-89l110 146h101zM214 699v-699h-139v699h139z" />
    <glyph glyph-name="uni00A0" unicode="&#xa0;" horiz-adv-x="0" 
 />
    <glyph glyph-name="approxequal" unicode="&#x2248;" horiz-adv-x="833" 
 />
    </font>
</defs>
</svg>
