<?xml version="1.0" standalone="no"?>
<!DOCTYPE svg PUBLIC "-//W3C//DTD SVG 1.1//EN" "http://www.w3.org/Graphics/SVG/1.1/DTD/svg11.dtd" >
<svg>
<metadata>
Created by FontForge 20120731 at Sat Feb 10 22:40:47 2018
 By www-data
</metadata>
<defs>
<font id="Aan55" horiz-adv-x="611" >
  <font-face 
    font-family="Agane`"
    font-weight="400"
    font-stretch="normal"
    units-per-em="1000"
    panose-1="0 0 0 0 0 0 0 0 0 0"
    ascent="750"
    descent="-250"
    x-height="510"
    cap-height="699"
    bbox="-169 -250 1072 936"
    underline-thickness="50"
    underline-position="-50"
    unicode-range="U+000A-FB02"
  />
<missing-glyph horiz-adv-x="350" 
 />
    <glyph glyph-name=".notdef" horiz-adv-x="350" 
 />
    <glyph glyph-name="NULL.001" horiz-adv-x="0" 
 />
    <glyph glyph-name="NULL.001" horiz-adv-x="0" 
 />
    <glyph glyph-name="nonmarkingreturn" unicode="&#xd;" horiz-adv-x="350" 
 />
    <glyph glyph-name="space" unicode=" " horiz-adv-x="278" 
 />
    <glyph glyph-name="F" unicode="F" horiz-adv-x="500" 
d="M183 0h-100v699h371l-15 -89h-256v-204l259 1v-89l-259 -1v-317zM183 0h-100v699h371l-15 -89h-256v-204l259 1v-89l-259 -1v-317z" />
    <glyph glyph-name="a" unicode="a" horiz-adv-x="558" 
d="M281 522q55 -3 98 -23q18 -9 36 -22t32 -32t22.5 -44.5t8.5 -59.5v-341h-73l-22 66h-1q-8 -12 -22 -25.5t-33.5 -25t-45 -19.5t-57.5 -8q-41 0 -75.5 9t-59.5 28.5t-38.5 49.5t-13.5 72q0 48 23.5 80t58.5 51.5t77 28t78 8.5h50t50 -2h9v2v9v25q0 31 -11 50.5t-29.5 29.5
t-42 13.5t-47.5 3.5q-27 0 -54 -8t-49 -18q-26 -11 -49 -26v80q23 13 51 24q24 9 57 16.5t72 7.5zM374 243q-15 0 -30 1t-30 1q-19 0 -49 -2.5t-58.5 -12.5t-49 -29.5t-20.5 -53.5q0 -20 9 -35.5t22.5 -26t30.5 -16t33 -5.5q70 0 106 38.5t36 95.5v45z" />
    <glyph glyph-name="b" unicode="b" 
d="M348 522q51 0 91.5 -21.5t68.5 -58.5t42.5 -85.5t14.5 -102.5t-14.5 -102.5t-42.5 -84.5t-68.5 -57.5t-91.5 -21.5q-42 0 -71.5 9.5t-49.5 23t-32.5 28t-20.5 24.5v-1l-16 -72h-78v750h94v-306q31 41 77.5 59.5t96.5 18.5zM327 64q28 0 53 11.5t44 35t30 59.5t11 84
t-11 84t-30 60t-44 36t-53 12q-30 0 -57.5 -12t-48.5 -36t-34 -60t-13 -84t13 -84t34 -59.5t48.5 -35t57.5 -11.5z" />
    <glyph glyph-name="c" unicode="c" horiz-adv-x="469" 
d="M300 522q32 0 55 -3.5t38 -7.5q18 -5 30 -11v-71q-44 16 -93 18.5t-90 -16.5t-67.5 -61.5t-26.5 -114.5q0 -74 26.5 -116t67.5 -59.5t90 -14.5t93 20v-72q-12 -8 -30 -13q-15 -5 -38 -8.5t-55 -3.5q-38 0 -82 11.5t-82.5 41.5t-64 82t-25.5 132q0 81 25.5 133t64 81.5
t82.5 41t82 11.5z" />
    <glyph glyph-name="d" unicode="d" 
d="M263 522q50 0 96.5 -18.5t77.5 -59.5v306h94v-750h-78l-16 72v1q-14 -25 -38 -43q-20 -16 -53.5 -29t-82.5 -13q-51 0 -91.5 21.5t-68.5 57.5t-42.5 84.5t-14.5 102.5t14.5 102.5t42.5 85.5t68.5 58.5t91.5 21.5zM284 64q30 0 57.5 11.5t48.5 35t34 59.5t13 84t-13 84
t-34 60t-48.5 36t-57.5 12q-28 0 -53 -12t-44 -36t-30 -60t-11 -84t11 -84t30 -59.5t44 -35t53 -11.5z" />
    <glyph glyph-name="e" unicode="e" horiz-adv-x="557" 
d="M321 -12q-25 0 -55.5 3.5t-61 14.5t-59 30t-50.5 50t-35.5 75t-13.5 105q0 48 15.5 94t45 82t72.5 58t99 22q67 0 112 -23.5t72 -61t38 -83t11 -88.5v-32h-365q0 -32 11.5 -62.5t33.5 -54.5t52 -38.5t68 -14.5q32 0 60.5 7.5t50.5 16.5q26 11 48 25l1 -86l-11.5 -6.5
t-31.5 -13.5t-47.5 -13t-59.5 -6zM411 304q0 25 -7.5 50.5t-23.5 46t-41 33t-61 12.5q-31 0 -55.5 -12.5t-41.5 -33t-26 -46t-9 -50.5h265z" />
    <glyph glyph-name="f" unicode="f" horiz-adv-x="392" 
d="M373 680q-76 14 -106 -14.5t-30 -100.5v-55h135l-14 -76h-121v-434h-94v434h-122v76h122v55q0 39 6.5 68.5t17 50.5t24.5 35t28 23q33 20 77 20q14 0 28.5 -1t26.5 -3q14 -2 27 -3l-5 -75v0z" />
    <glyph glyph-name="g" unicode="g" horiz-adv-x="601" 
d="M531 510v-481q0 -54 -13.5 -100t-45 -79.5t-84 -52.5t-130.5 -19q-32 0 -63 5.5t-56 13.5q-29 9 -55 20l14 86q24 -11 50 -20q23 -8 51.5 -13.5t58.5 -5.5q52 0 86.5 14.5t55 38.5t29 55.5t8.5 65.5v39q-16 -22 -40 -39q-20 -14 -50.5 -26t-72.5 -12q-44 0 -85 16.5
t-73 49.5t-51 81.5t-19 113.5q0 64 19 112.5t51 81.5t73 50t85 17q40 0 68.5 -8.5t48 -21.5t32 -28.5t21.5 -29.5l13 76h74zM291 76q33 0 60 14.5t46 39.5t29.5 59t10.5 72t-10.5 71.5t-29.5 59t-46 40t-60 14.5q-32 0 -59 -14.5t-46 -40t-29.5 -59t-10.5 -71.5t10.5 -72
t29.5 -59t46 -39.5t59 -14.5z" />
    <glyph glyph-name="h" unicode="h" horiz-adv-x="612" 
d="M340 522q100 0 146 -59t46 -168v-295h-95v264q0 90 -23 134t-85 48q-40 0 -69.5 -15.5t-48.5 -43t-28 -66.5t-9 -85v-236h-94v750h94v-321q10 23 27.5 40.5t40 29t48 17.5t50.5 6z" />
    <glyph glyph-name="i" unicode="i" horiz-adv-x="283" 
d="M190 0h-94v510h94v-510zM203 679q0 -26 -18 -44t-43 -18q-26 0 -44 18t-18 44q0 25 18 43t44 18q25 0 43 -18t18 -43z" />
    <glyph glyph-name="j" unicode="j" horiz-adv-x="277" 
d="M135 616q-26 0 -43.5 18.5t-17.5 43.5q0 26 17.5 43.5t43.5 17.5q25 0 43.5 -17.5t18.5 -43.5q0 -25 -18.5 -43.5t-43.5 -18.5zM182 -74q0 -73 -36.5 -110.5t-102.5 -37.5q-29 0 -59 8v78q9 -2 17.5 -3.5t17.5 -1.5q69 0 69 82v569h94v-584z" />
    <glyph glyph-name="k" unicode="k" horiz-adv-x="527" 
d="M322 284l186 -284h-116l-141 235h-77v-235h-94v750h94v-415h77l142 175h108z" />
    <glyph glyph-name="l" unicode="l" horiz-adv-x="308" 
d="M258 0q-16 -6 -36 -9t-37 -3q-51 0 -78 30t-27 87v635h94v-633q0 -21 7.5 -31.5t25.5 -10.5q10 0 26.5 1.5t24.5 3.5v-70z" />
    <glyph glyph-name="m" unicode="m" horiz-adv-x="892" 
d="M632 522q37 0 70 -8.5t57.5 -33.5t38.5 -70.5t14 -118.5v-291h-95v301q0 24 -3 49.5t-12.5 47t-27.5 35t-47 13.5q-37 0 -62.5 -16.5t-41.5 -43.5t-23 -62t-7 -71v-253h-95v301q0 24 -3 49.5t-13 47t-27.5 35t-46.5 13.5q-37 0 -62.5 -16.5t-41.5 -43.5t-23 -62t-7 -71
v-253h-94v510h78l15 -75l8 14t26.5 30t49 29.5t75.5 13.5q39 0 67 -15.5t45.5 -34.5t25 -34.5l7.5 -15.5q10 24 27.5 43t38.5 31.5t44.5 19t44.5 6.5z" />
    <glyph glyph-name="o" unicode="o" 
d="M304 522q39 0 84.5 -11.5t84.5 -41.5t65.5 -82t26.5 -133t-26.5 -132.5t-65.5 -81t-84.5 -41t-84.5 -11.5q-38 0 -83 11.5t-84 41t-65 81t-26 132.5t26 133t65 82t84 41.5t83 11.5zM304 64q33 0 62.5 11.5t51 35.5t34.5 59.5t13 83.5t-13 84t-34.5 60t-51 36t-62.5 12
q-32 0 -60.5 -12t-50 -36t-34 -60t-12.5 -84t12.5 -83.5t34 -59.5t50 -35.5t60.5 -11.5z" />
    <glyph glyph-name="p" unicode="p" 
d="M348 -11q-50 0 -96.5 18.5t-77.5 59.5v-278h-94v722h78l16 -72v-1q14 24 38 42q20 16 53.5 29.5t82.5 13.5q51 0 91.5 -21.5t68.5 -57.5t42.5 -84.5t14.5 -102.5t-14.5 -102.5t-42.5 -85.5t-68.5 -58.5t-91.5 -21.5zM327 447q-30 0 -57.5 -11.5t-48.5 -35t-34 -59.5
t-13 -84t13 -84t34 -60t48.5 -36t57.5 -12q28 0 53 12t44 36t30 60t11 84t-11 84t-30 59.5t-44 35t-53 11.5z" />
    <glyph glyph-name="q" unicode="q" 
d="M263 -11q-51 0 -91.5 21.5t-68.5 58.5t-42.5 85.5t-14.5 102.5t14.5 102.5t42.5 84.5t68.5 57.5t91.5 21.5q49 0 82.5 -13.5t53.5 -29.5q24 -18 38 -42v1l16 72h78v-722h-94v278q-31 -41 -77.5 -59.5t-96.5 -18.5zM284 447q-28 0 -53 -11.5t-44 -35t-30 -59.5t-11 -84
t11 -84t30 -60t44 -36t53 -12q30 0 57.5 12t48.5 36t34 60t13 84t-13 84t-34 59.5t-48.5 35t-57.5 11.5z" />
    <glyph glyph-name="r" unicode="r" horiz-adv-x="389" 
d="M365 431q-7 2 -15 4q-7 2 -15.5 3.5t-16.5 1.5q-43 0 -71 -19.5t-44 -49.5t-22.5 -67t-6.5 -72v-232h-94v510h80l11 -79q14 25 31 44.5t40 31.5t53 14.5t70 -7.5v-83z" />
    <glyph glyph-name="s" unicode="s" horiz-adv-x="444" 
d="M347 400q-29 22 -60.5 34t-63.5 12q-36 0 -57.5 -14.5t-21.5 -49.5q0 -28 18.5 -44.5t47 -29t61 -24t60.5 -29t46 -44.5t18 -71q0 -39 -15 -68t-39 -47.5t-55.5 -27.5t-64.5 -9q-50 0 -98 20t-82 58l30 69q32 -32 72.5 -51.5t79.5 -19.5q38 0 62.5 15.5t25.5 51.5
q0 32 -18 49.5t-45.5 28.5t-60 20.5t-60.5 26.5t-46.5 45t-18.5 76q0 39 13.5 66.5t36.5 45t53 25.5t63 8q41 0 79.5 -13.5t70.5 -37.5z" />
    <glyph glyph-name="t" unicode="t" horiz-adv-x="395" 
d="M221 435v-289q0 -81 69 -81q29 0 59 15v-73q-41 -19 -87 -19q-66 0 -102.5 37.5t-36.5 110.5v299h-91v77h91v123l98 23v-146h135v-77h-135z" />
    <glyph glyph-name="u" unicode="u" horiz-adv-x="612" 
d="M272 -12q-100 0 -146 59t-46 168v295h95v-264q0 -90 23 -134t85 -48q40 0 69.5 15.5t48.5 43t28 66t9 85.5v236h94v-510h-79l-15 81q-10 -23 -28 -40.5t-40.5 -29t-47.5 -17.5t-50 -6z" />
    <glyph glyph-name="v" unicode="v" horiz-adv-x="509" 
d="M493 510l-183 -510h-112l-182 510h95l144 -416l142 416h96z" />
    <glyph glyph-name="w" unicode="w" horiz-adv-x="836" 
d="M820 510l-164 -510h-109l-129 426l-133 -426h-109l-160 510h101l114 -423q14 48 31 102t35 109.5t35 109.5t31 102h112l128 -423l119 423h98z" />
    <glyph glyph-name="y" unicode="y" horiz-adv-x="506" 
d="M490 510l-191 -527q-22 -58 -57 -103q-15 -19 -35 -37.5t-45 -32.5t-55 -23t-66 -9v78q53 0 84.5 20t48.5 45q19 28 27 65l-194 524h108l136 -421l131 421h108z" />
    <glyph glyph-name="z" unicode="z" horiz-adv-x="508" 
d="M450 510v-84l-295 -349h307v-77h-416v84v0l295 350h-281v76h390z" />
    <glyph glyph-name="n" unicode="n" horiz-adv-x="612" 
d="M341 522q100 0 146 -59t46 -168v-295h-95v264q0 90 -23 134t-85 48q-40 0 -69.5 -15.5t-48.5 -43t-28 -66.5t-9 -85v-236h-94v510h79l15 -81q10 23 27.5 40.5t40 29t48 17.5t50.5 6z" />
    <glyph glyph-name="period" unicode="." horiz-adv-x="278" 
d="M83 112h112v-112h-112v112z" />
    <glyph glyph-name="X" unicode="X" horiz-adv-x="667" 
d="M267 365l-236 334h121l185 -269l179 269h120l-227 -334q0 -1 10.5 -17t28 -42t40 -58.5t46.5 -66.5q55 -80 125 -181h-122l-200 296l-207 -296h-122z" />
    <glyph glyph-name="x" unicode="x" horiz-adv-x="497" 
d="M16 0l171 266l-158 244h108l111 -182l111 182h108l-158 -244l172 -266h-116l-117 199l-117 -199h-115v0z" />
    <glyph glyph-name="N" unicode="N" horiz-adv-x="722" 
d="M634 0h-126l-320 574v-574h-100v699h138l308 -560v560h100v-699z" />
    <glyph glyph-name="A" unicode="A" horiz-adv-x="723" 
d="M615 0l-74 177h-358l-74 -177h-97l299 699h106l294 -699h-96zM214 261h294l-147 343z" />
    <glyph glyph-name="comma" unicode="," horiz-adv-x="280" 
d="M20 -127l62 238h115l-87 -238h-90z" />
    <glyph glyph-name="aacute" unicode="&#xe1;" horiz-adv-x="553" 
d="M304 724h105l-132 -144h-67zM281 522q55 -3 98 -23q18 -9 36 -22t32 -32t22.5 -44.5t8.5 -59.5v-341h-73l-22 66h-1q-8 -12 -22 -25.5t-33.5 -25t-45 -19.5t-57.5 -8q-41 0 -75.5 9t-59.5 28.5t-38.5 49.5t-13.5 72q0 48 23.5 80t58.5 51.5t77 28t78 8.5h50t50 -2h9v2v9
v25q0 31 -11 50.5t-29.5 29.5t-42 13.5t-47.5 3.5q-27 0 -54 -8t-49 -18q-26 -11 -49 -26v80q23 13 51 24q24 9 57 16.5t72 7.5zM374 243q-15 0 -30 1t-30 1q-19 0 -49 -2.5t-58.5 -12.5t-49 -29.5t-20.5 -53.5q0 -20 9 -35.5t22.5 -26t30.5 -16t33 -5.5q70 0 106 38.5
t36 95.5v45z" />
    <glyph glyph-name="agrave" unicode="&#xe0;" horiz-adv-x="553" 
d="M346 579h-67l-132 144h104zM281 522q-39 0 -72 -7.5t-57 -16.5q-28 -11 -51 -24v-80q23 15 49 26q22 10 49 18t54 8q24 0 47.5 -3.5t42 -13.5t29.5 -29.5t11 -50.5v-25v-9v-2h-9q-28 2 -50 2h-50q-36 0 -78 -8.5t-77 -28t-58.5 -51.5t-23.5 -80q0 -42 13.5 -72
t38.5 -49.5t59.5 -28.5t75.5 -9q32 0 57.5 8t45 19.5t33.5 25t22 25.5h1l22 -66h73v341q0 34 -8.5 59.5t-22.5 44.5t-32 32t-36 22q-43 20 -98 23zM374 198q0 -57 -36 -95.5t-106 -38.5q-16 0 -33 5.5t-30.5 16t-22.5 26t-9 35.5q0 34 20.5 53.5t49 29.5t58.5 12.5t49 2.5
q15 0 30 -1t30 -1v-45z" />
    <glyph glyph-name="egrave" unicode="&#xe8;" horiz-adv-x="557" 
d="M347 579h-67l-132 144h104zM321 -12q-25 0 -55.5 3.5t-61 14.5t-59 30t-50.5 50t-35.5 75t-13.5 105q0 48 15.5 94t45 82t72.5 58t99 22q67 0 112 -23.5t72 -61t38 -83t11 -88.5v-32h-365q0 -32 11.5 -62.5t33.5 -54.5t52 -38.5t68 -14.5q32 0 60.5 7.5t50.5 16.5
q26 11 48 25l1 -86l-11.5 -6.5t-31.5 -13.5t-47.5 -13t-59.5 -6zM411 304q0 25 -7.5 50.5t-23.5 46t-41 33t-61 12.5q-31 0 -55.5 -12.5t-41.5 -33t-26 -46t-9 -50.5h265z" />
    <glyph glyph-name="eacute" unicode="&#xe9;" horiz-adv-x="557" 
d="M304 724h105l-132 -144h-67zM321 -12q-25 0 -55.5 3.5t-61 14.5t-59 30t-50.5 50t-35.5 75t-13.5 105q0 48 15.5 94t45 82t72.5 58t99 22q67 0 112 -23.5t72 -61t38 -83t11 -88.5v-32h-365q0 -32 11.5 -62.5t33.5 -54.5t52 -38.5t68 -14.5q32 0 60.5 7.5t50.5 16.5
q26 11 48 25l1 -86l-11.5 -6.5t-31.5 -13.5t-47.5 -13t-59.5 -6zM411 304q0 25 -7.5 50.5t-23.5 46t-41 33t-61 12.5q-31 0 -55.5 -12.5t-41.5 -33t-26 -46t-9 -50.5h265z" />
    <glyph glyph-name="igrave" unicode="&#xec;" horiz-adv-x="279" 
d="M206 579h-67l-132 144h104zM181 0h-94v510h94v-510z" />
    <glyph glyph-name="iacute" unicode="&#xed;" horiz-adv-x="281" 
d="M167 724h107l-134 -144h-67zM181 0h-94v510h94v-510z" />
    <glyph glyph-name="oacute" unicode="&#xf3;" 
d="M336 724h105l-132 -144h-67zM304 522q39 0 84.5 -11.5t84.5 -41.5t65.5 -82t26.5 -133t-26.5 -132.5t-65.5 -81t-84.5 -41t-84.5 -11.5q-38 0 -83 11.5t-84 41t-65 81t-26 132.5t26 133t65 82t84 41.5t83 11.5zM304 64q33 0 62.5 11.5t51 35.5t34.5 59.5t13 83.5t-13 84
t-34.5 60t-51 36t-62.5 12q-32 0 -60.5 -12t-50 -36t-34 -60t-12.5 -84t12.5 -83.5t34 -59.5t50 -35.5t60.5 -11.5z" />
    <glyph glyph-name="ograve" unicode="&#xf2;" 
d="M366 579h-67l-132 144h104zM304 522q-38 0 -83 -11.5t-84 -41.5t-65 -82t-26 -133t26 -132.5t65 -81t84 -41t83 -11.5q39 0 84.5 11.5t84.5 41t65.5 81t26.5 132.5t-26.5 133t-65.5 82t-84.5 41.5t-84.5 11.5zM304 64q-32 0 -60.5 11.5t-50 35.5t-34 59.5t-12.5 83.5
t12.5 84t34 60t50 36t60.5 12q33 0 62.5 -12t51 -36t34.5 -60t13 -84t-13 -83.5t-34.5 -59.5t-51 -35.5t-62.5 -11.5z" />
    <glyph glyph-name="uacute" unicode="&#xfa;" horiz-adv-x="612" 
d="M335 724h107l-134 -144h-67zM272 -12q-100 0 -146 59t-46 168v295h95v-269q0 -91 23 -134t81 -43q40 0 69.5 15t49.5 42.5t30 66t10 85.5v237h94v-510h-79l-15 81q-24 -41 -70 -67t-96 -26z" />
    <glyph glyph-name="ugrave" unicode="&#xf9;" horiz-adv-x="612" 
d="M345 579h-67l-132 144h104zM272 -12q50 0 96 26t70 67l15 -81h79v510h-94v-237q0 -47 -10 -85.5t-30 -66t-49.5 -42.5t-69.5 -15q-58 0 -81 43t-23 134v269h-95v-295q0 -109 46 -168t146 -59z" />
    <glyph glyph-name="quotesingle" unicode="'" horiz-adv-x="272" 
d="M95 699h82v-238h-82v238z" />
    <glyph glyph-name="yacute" unicode="&#xfd;" horiz-adv-x="497" 
d="M256 581h-70l94 144h108zM382 510l-131 -421l-136 421h-108l194 -524q-8 -37 -27 -65q-17 -25 -48.5 -45t-84.5 -20v-78q36 0 66 9t55 23t45 32.5t35 37.5q35 45 57 103l191 527h-108z" />
    <glyph glyph-name="exclam" unicode="!" horiz-adv-x="389" 
d="M235 194h-77l-15 505h107zM250 54q0 -23 -15.5 -38.5t-37.5 -15.5q-23 0 -38.5 15.5t-15.5 38.5q0 22 15.5 37.5t38.5 15.5q22 0 37.5 -15.5t15.5 -37.5z" />
    <glyph glyph-name="question" unicode="?" horiz-adv-x="437" 
d="M395 575q2 -14 3.5 -26.5t0.5 -25.5q-1 -38 -16 -68.5t-36 -58t-45.5 -54t-45.5 -56.5q-13 -18 -17.5 -35t-4.5 -38v-18h-89v21q0 24 3.5 42.5t11 35.5t20 34t30.5 38q14 16 29.5 33t28 36t21 40.5t8.5 45.5q0 19 -5.5 36.5t-17.5 31t-31 21.5t-47 8q-20 0 -42.5 -3.5
t-44 -9t-39 -11t-26.5 -8.5v96q13 4 31 9t39 9.5t43.5 7.5t43.5 3q30 0 61.5 -8t58.5 -24.5t47 -42t27 -61.5zM192 107q22 0 37.5 -15.5t15.5 -37.5q0 -23 -15.5 -38.5t-37.5 -15.5q-23 0 -38.5 15.5t-15.5 38.5q0 22 15.5 37.5t38.5 15.5z" />
    <glyph glyph-name="zero" unicode="0" horiz-adv-x="561" 
d="M278 711q52 0 95.5 -15.5t75 -56t49.5 -110.5t18 -179t-18 -179.5t-49.5 -111t-75 -56t-95.5 -15.5t-96 15.5t-75.5 56t-49.5 111t-18 179.5t18 179t49.5 110.5t75.5 56t96 15.5zM278 72q66 0 98.5 68t32.5 210q0 141 -32.5 209t-98.5 68q-60 0 -95 -68t-35 -209
q0 -142 34.5 -210t95.5 -68z" />
    <glyph glyph-name="one" unicode="1" horiz-adv-x="584" 
d="M367 699v-699h-100v566l-109 -95l-49 79l171 149h87zM140 88h354v-88h-354v88z" />
    <glyph glyph-name="two" unicode="2" horiz-adv-x="562" 
d="M498 88v-88h-459v45q0 66 25.5 114t63 84.5t82 65.5t82 57t63 59t25.5 72q0 56 -34 89t-91 33q-21 0 -42 -7.5t-40.5 -19.5t-35.5 -28t-25 -32l-74 46q15 29 37.5 53.5t51 42t61.5 27.5t67 10q46 0 87 -12t72.5 -38t50 -66.5t18.5 -97.5q0 -49 -24.5 -88t-61.5 -71.5
t-80.5 -60.5t-80.5 -57t-61.5 -61t-24.5 -71h348z" />
    <glyph glyph-name="three" unicode="3" horiz-adv-x="560" 
d="M88 122q20 -14 58.5 -29.5t87.5 -15.5q46 0 76.5 11t48.5 28.5t25.5 39t7.5 43.5q0 36 -15.5 60t-40.5 38t-57.5 19.5t-66.5 5.5h-63l17 88h46q26 0 53 7t49.5 21t37 36.5t14.5 53.5q0 42 -27.5 68t-93.5 26q-21 0 -43 -4.5t-42.5 -11.5t-38 -15.5t-28.5 -17.5l-25 84
q13 10 35 20t48 17.5t55 12t57 4.5q52 0 91 -14t65.5 -37.5t39.5 -54t13 -62.5q0 -54 -32 -101.5t-98 -70.5v-2q33 -6 61.5 -20t49.5 -36t33 -51t12 -66q0 -42 -17.5 -80t-51 -66.5t-82.5 -45t-112 -16.5q-59 0 -103 16t-70 33z" />
    <glyph glyph-name="four" unicode="4" horiz-adv-x="557" 
d="M533 243v-85h-88v-158h-100v158h-326v84l285 457h141v-456h88zM345 243v374l-229 -375z" />
    <glyph glyph-name="five" unicode="5" horiz-adv-x="573" 
d="M464 383q59 -61 59 -161q0 -49 -16.5 -91.5t-48.5 -74.5q-33 -34 -76 -50q-45 -18 -99 -18q-35 0 -65.5 8t-57 20.5t-47 27.5t-33.5 30l66 64q26 -28 60 -44.5t77 -16.5q72 0 113 42q39 39 39 103q0 63 -34 100q-39 37 -108 37q-24 0 -54.5 -5.5t-53.5 -22.5
q-10 -8 -14.5 -16t-5.5 -8l-84 19l23 373h381v-88h-292l-15 -187q6 2 12 5t13 5q22 7 42.5 10.5t47.5 3.5q54 0 97.5 -16.5t73.5 -48.5z" />
    <glyph glyph-name="six" unicode="6" horiz-adv-x="558" 
d="M271 -33q-85 4 -141 62q-49 52 -67 147q-12 73 -8 162q11 226 127 306q36 25 76.5 35t78.5 10t72 -7.5t57 -16.5l-28 -78q-20 8 -46.5 11t-57.5 3q-50 0 -85 -24.5t-58 -61.5t-33.5 -80.5t-10.5 -81.5q18 18 42 32q20 12 48.5 22.5t64.5 10.5q51 0 90.5 -17.5t66 -47
t40 -68.5t13.5 -82q0 -49 -10.5 -84t-27 -59.5t-35.5 -39.5t-37 -25q-35 -20 -64 -24t-37 -4q-15 -2 -30 0zM158 195q2 -66 34.5 -103t91.5 -37q25 0 48 9.5t40 27.5t26.5 44.5t8.5 59.5v-1q0 65 -36 99.5t-87 34.5q-59 0 -93 -34.5t-33 -99.5z" />
    <glyph glyph-name="seven" unicode="7" horiz-adv-x="551" 
d="M486 699v-86l-261 -613h-100l257 611h-333v88h437z" />
    <glyph glyph-name="eight" unicode="8" horiz-adv-x="558" 
d="M378 373l22.5 -10.5t49.5 -32t49.5 -54.5t22.5 -78q0 -41 -10 -71.5t-26.5 -53t-37.5 -37.5t-43 -24q-52 -22 -117 -24q-71 1 -126 23q-24 9 -46 24t-39 37.5t-27 53.5t-9 72q1 44 24.5 76t51 52.5t50 30l22.5 9.5l-20 8t-45 28.5t-45.5 55.5t-20.5 88q0 33 10 57.5
t26 42.5t36.5 30t42.5 19q51 17 116 16q58 -3 105 -21q19 -8 38 -20t34 -29t24 -40.5t9 -54.5q0 -44 -18.5 -76.5t-41 -54t-41.5 -32t-20 -10.5zM158 530q0 -36 36.5 -62.5t107.5 -60.5q31 24 49 41t27.5 31.5t12.5 29t3 32.5q0 25 -11.5 40.5t-29 24.5t-38 12.5t-39.5 3.5
q-17 0 -37.5 -5t-38.5 -16t-30 -28.5t-12 -42.5zM288 77q35 0 63 13q23 11 43 35.5t20 72.5q0 32 -23.5 56.5t-52.5 41.5q-33 20 -75 35q-32 -16 -58 -37q-22 -18 -40 -44.5t-18 -60.5q0 -23 6 -40t16 -29t22.5 -19.5t25.5 -12.5q31 -11 71 -11z" />
    <glyph glyph-name="nine" unicode="9" horiz-adv-x="558" 
d="M293 710q85 -4 141 -62q49 -52 67 -147q12 -73 8 -162q-11 -226 -127 -306q-36 -25 -76.5 -35t-78.5 -10t-72 7.5t-57 16.5l28 78q20 -8 46.5 -11t57.5 -3q49 0 84.5 24.5t58.5 61.5t33.5 80.5t10.5 81.5q-18 -19 -42 -33q-20 -12 -49 -22t-64 -10q-51 0 -90.5 17.5
t-66 47t-40 68.5t-13.5 82q0 49 10.5 84t27 59.5t35.5 39.5t37 25q35 20 64 24t37 4q15 1 30 0zM406 482q-2 66 -34.5 103t-91.5 37q-26 0 -48.5 -9.5t-39.5 -27.5t-26.5 -44.5t-8.5 -59.5v1q0 -65 36 -99.5t87 -34.5q59 0 93 34.5t33 99.5z" />
    <glyph glyph-name="quotedbl" unicode="&#x22;" horiz-adv-x="549" 
d="M159 699h83v-240h-83v240zM304 701h86v-240h-86v240z" />
    <glyph glyph-name="B" unicode="B" 
d="M373 356q0 -1 12 -3t30 -8.5t39 -17t39 -28t30 -43t12 -59.5q0 -67 -25.5 -106t-66 -59.5t-91.5 -26t-102 -5.5h-167v699h182q51 0 97 -8.5t80.5 -31t54.5 -60.5t20 -97q0 -31 -10.5 -53.5t-26.5 -39t-34.5 -27t-34.5 -16.5t-27 -8zM183 400h106q24 0 47 6.5t41 20.5
t29 35.5t11 51.5q0 31 -11 50.5t-29.5 31t-43 16t-51.5 4.5h-99v-216zM285 82q28 0 54 5.5t46 18.5t32 35t12 56t-12 57.5t-33 37.5t-48.5 20t-58.5 6h-94v-236h102z" />
    <glyph glyph-name="C" unicode="C" horiz-adv-x="593" 
d="M385 711q38 0 72 -5t60 -10q30 -7 56 -15v-85q-45 12 -93 19.5t-94 5t-87.5 -17.5t-72.5 -46.5t-49.5 -82t-18.5 -125.5t18.5 -126t49.5 -82.5t72.5 -46t87.5 -16.5t94 5t93 20v-82q-26 -10 -56 -17q-26 -6 -60 -11t-72 -5q-34 0 -72 6.5t-75 22t-70.5 42t-59.5 66.5
t-41 95.5t-15 128.5q0 109 33 179.5t82.5 111t108 56t109.5 15.5z" />
    <glyph glyph-name="D" unicode="D" horiz-adv-x="722" 
d="M83 0v699h206q77 0 144.5 -23.5t118 -68t80 -108t29.5 -144.5q0 -75 -23.5 -140t-67 -112.5t-105 -75t-138.5 -27.5h-244zM183 87h144q46 0 87.5 21t73 57t49.5 85t18 105q0 57 -18 104t-49.5 80.5t-73 52.5t-87.5 19h-144v-524z" />
    <glyph glyph-name="E" unicode="E" horiz-adv-x="557" 
d="M194 317v-229h292v-88h-392v699h391l-15 -89h-276v-204h265v-89h-265v0z" />
    <glyph glyph-name="equal" unicode="=" horiz-adv-x="600" 
d="M47 402h506v-88h-506v88zM47 192h506v-88h-506v88z" />
    <glyph glyph-name="G" unicode="G" horiz-adv-x="722" 
d="M387 382h246l-1 -360q-48 -13 -110 -23.5t-126.5 -10t-126 17t-109.5 57t-77.5 110t-29.5 175.5q0 105 29.5 175t77.5 112t109 59t124 17q66 0 127 -14t109 -35v-98q-38 20 -87.5 35.5t-101.5 20.5t-102 -4t-89.5 -39.5t-64 -86t-24.5 -142.5q0 -73 17.5 -124.5t48 -84
t72 -47.5t89.5 -15q38 0 65 1t45 3q21 2 36 4v215h-146v82z" />
    <glyph glyph-name="H" unicode="H" horiz-adv-x="722" 
d="M628 699v-699h-101v318h-333v-318h-100v699h100v-293h333v293h101z" />
    <glyph glyph-name="I" unicode="I" horiz-adv-x="278" 
d="M189 699v-699h-100v699h100z" />
    <glyph glyph-name="J" unicode="J" horiz-adv-x="325" 
d="M255 699v-520q0 -42 -10.5 -77.5t-30.5 -60.5t-50 -39t-70 -14q-6 0 -16.5 0.5t-21.5 1t-20.5 1t-14.5 1.5v94q9 -1 20 -2q9 -1 19 -2t21 0q39 2 56.5 29t17.5 68l-1 520h101z" />
    <glyph glyph-name="K" unicode="K" horiz-adv-x="640" 
d="M370 368l254 -368h-116l-224 322h-90v-322h-100v699h100v-289h90l214 289h119l-247 -331v0z" />
    <glyph glyph-name="L" unicode="L" horiz-adv-x="500" 
d="M480 0h-392v699h100v-611h292v-88z" />
    <glyph glyph-name="M" unicode="M" horiz-adv-x="944" 
d="M252 699l219 -581l219 581h161h-161h161v-699h-100v602q-17 -45 -35 -94q-16 -43 -35.5 -96.5t-40.5 -110.5q-49 -133 -111 -301h-116l-222 602v-602h-101v699h162z" />
    <glyph glyph-name="O" unicode="O" horiz-adv-x="778" 
d="M390 711q52 0 111 -15.5t108.5 -55.5t82.5 -110t33 -179q0 -73 -15 -128.5t-41 -96t-59.5 -67t-71 -42.5t-75.5 -22.5t-73 -6.5t-73 6.5t-75.5 22t-71.5 42t-60 67t-41.5 95.5t-15.5 129q0 109 33 179t83.5 110.5t109.5 56t111 15.5zM390 77q48 0 90 15t73 48t48.5 85
t17.5 126q0 72 -17.5 123.5t-48.5 84.5t-73 48t-90 15t-90 -15t-73 -48t-49 -84.5t-18 -124.5q0 -74 18 -126t49 -84.5t73 -47.5t90 -15z" />
    <glyph glyph-name="P" unicode="P" horiz-adv-x="556" 
d="M266 699q54 0 101.5 -10.5t83 -35t56.5 -64.5t21 -100q0 -58 -21 -98t-55.5 -65t-79 -36t-91.5 -11h-98v-279h-100v699h183zM273 368q28 0 55 6t48 20t33.5 37t12.5 58q0 36 -12.5 59.5t-34 37t-50.5 19t-61 5.5h-81v-242h90z" />
    <glyph glyph-name="R" unicode="R" 
d="M581 0h-108l-103 244l-4.5 10t-14 22t-24.5 22.5t-36 10.5h-108v-309h-100v699h183q42 0 88 -3t84.5 -21.5t64 -58.5t25.5 -113q0 -51 -23 -81t-50 -46q-33 -18 -73 -26q23 -5 46 -16.5t39 -44.5zM272 398q28 0 54.5 1.5t47 11.5t33 31.5t12.5 60.5q0 40 -12.5 62t-34 32
t-50.5 11.5t-61 1.5h-78v-212h89z" />
    <glyph glyph-name="Q" unicode="Q" horiz-adv-x="778" 
d="M725 350q0 -74 -15 -130t-41 -96.5t-60 -67t-72 -41.5l173 -145h-129l-142 119h-7t-13.5 -0.5t-15.5 -0.5h-13q-34 0 -72 6.5t-75.5 22.5t-71.5 42.5t-60.5 66.5t-42 95.5t-15.5 128.5t15.5 128t42 95t60.5 66.5t71.5 42.5t75.5 22.5t72 6.5q51 0 110 -15.5t109 -56
t83 -110.5t33 -179zM160 350q0 -74 18 -126t49.5 -85t73.5 -48t89 -15q48 0 89.5 15.5t72 48.5t48.5 85t18 126q0 72 -18 123.5t-48.5 84t-72 48t-89.5 15.5q-47 0 -89 -15.5t-73.5 -48.5t-49.5 -84.5t-18 -123.5z" />
    <glyph glyph-name="S" unicode="S" horiz-adv-x="552" 
d="M470 646l-36 -85q-38 27 -84 44t-91 17q-54 0 -87.5 -18t-33.5 -67q0 -37 26.5 -61t65.5 -43.5t85.5 -38.5t85.5 -45t65.5 -63.5t26.5 -94.5q0 -53 -20 -91.5t-53 -63t-76 -36.5t-89 -12q-69 0 -135 25.5t-112 74.5l37 81q42 -43 99.5 -67.5t114.5 -24.5t95 25.5t38 78.5
q0 40 -26 67t-65.5 47.5t-85 39.5t-85 43.5t-66.5 59t-28 86.5t18 87.5t51.5 57.5t74 32t85.5 10q58 0 111.5 -17.5t93.5 -47.5z" />
    <glyph glyph-name="T" unicode="T" horiz-adv-x="556" 
d="M545 699v-89h-217v-610h-100v610h-217v89h534z" />
    <glyph glyph-name="U" unicode="U" horiz-adv-x="722" 
d="M91 250v450h100v-452q0 -33 10 -64t31 -55t53.5 -38.5t77.5 -14.5t77 14.5t52.5 38.5t30 55t9.5 64v452h100v-450q0 -65 -23.5 -114.5t-62 -82t-88 -49t-100.5 -16.5t-100 16.5t-86.5 49t-60 82t-20.5 114.5z" />
    <glyph glyph-name="V" unicode="V" horiz-adv-x="667" 
d="M554 699h107l-265 -699h-127l-263 699h106l221 -609l221 609v0z" />
    <glyph glyph-name="W" unicode="W" horiz-adv-x="1002" 
d="M893 699h107l-214 -699h-132l-153 610l-152 -610h-136l-211 699h106l173 -599l146 599h149l151 -599l166 599v0z" />
    <glyph glyph-name="Y" unicode="Y" horiz-adv-x="667" 
d="M534 699h122l-271 -411v-288h-100v288l-274 411h121l202 -314l200 314v0z" />
    <glyph glyph-name="Z" unicode="Z" horiz-adv-x="563" 
d="M509 699v-91l-356 -520h369v-88h-490v90l362 520h-353v89h468v0z" />
    <glyph glyph-name="braceleft" unicode="{" horiz-adv-x="322" 
d="M303 695q-11 0 -27.5 -1.5t-32 -7.5t-27 -18.5t-11.5 -33.5v-202q0 -33 -9.5 -54t-23 -33.5t-28.5 -19t-25 -12.5q10 -6 25 -14.5t28.5 -22t23 -33.5t9.5 -50v-200q0 -21 7.5 -33.5t21 -19t31 -8.5t38.5 -2v-64h-38q-19 0 -44.5 2.5t-50.5 22.5h1q-25 17 -38.5 47
t-13.5 71v191q0 11 -2 22q-3 20 -17 37q-15 14 -63 14v70q26 0 40.5 4t22.5 12q7 8 11 18t6 19q2 11 2 21v199q0 42 13.5 71.5t36.5 46.5q22 17 59 20t75 3v-62z" />
    <glyph glyph-name="braceright" unicode="}" horiz-adv-x="322" 
d="M19 -73q10 0 27 1.5t32.5 7.5t27 18.5t11.5 33.5v202q0 33 9.5 54t23 33.5t28 19t25.5 12.5q-11 6 -25.5 14t-28 21.5t-23 34t-9.5 50.5v200q0 21 -7.5 33.5t-21 19t-31 8.5t-38.5 2v64h38q19 0 44.5 -2.5t50.5 -22.5h-1q25 -17 38.5 -47t13.5 -71v-191q0 -11 2 -22
q2 -9 5.5 -19t11.5 -18q15 -14 63 -14v-70q-26 0 -40.5 -4t-22.5 -12t-11.5 -18t-5.5 -19q-2 -11 -2 -21v-199q0 -42 -13.5 -71.5t-36.5 -46.5q-22 -17 -59 -20t-75 -3v62z" />
    <glyph glyph-name="bracketleft" unicode="[" horiz-adv-x="300" 
d="M256 676h-96v-733h96v-77h-183v887h183v-77z" />
    <glyph glyph-name="bracketright" unicode="]" horiz-adv-x="299" 
d="M44 -57h97v733h-97v77h182v-887h-182v77z" />
    <glyph glyph-name="semicolon" unicode=";" horiz-adv-x="240" 
d="M47 410v108h110v-108h-110zM-22 -127l62 238h115l-87 -238h-90z" />
    <glyph glyph-name="colon" unicode=":" horiz-adv-x="275" 
d="M83 0v106h109v-106h-109zM83 403v107h109v-107h-109z" />
    <glyph glyph-name="hyphen" unicode="-" horiz-adv-x="333" 
d="M38 307h257v-76h-257v76z" />
    <glyph glyph-name="plus" unicode="+" horiz-adv-x="610" 
d="M563 213h-217v-213h-88v213h-211v83h211v214h89v-214h216v-83z" />
    <glyph glyph-name="parenleft" unicode="(" horiz-adv-x="360" 
d="M241 -139q-89 101 -132 213.5t-43 229.5q-1 118 41.5 233t125.5 218h105q-89 -96 -131.5 -212t-40.5 -237q2 -120 46.5 -235t133.5 -211h-103z" />
    <glyph glyph-name="parenright" unicode=")" horiz-adv-x="360" 
d="M119 754q89 -101 132 -213.5t43 -229.5q1 -118 -41.5 -233t-125.5 -218h-105q89 96 131.5 212t40.5 237q-2 120 -46.5 235t-133.5 211h103z" />
    <glyph glyph-name="slash" unicode="/" horiz-adv-x="278" 
d="M215 710h88l-240 -722h-88z" />
    <glyph glyph-name="backslash" unicode="\" horiz-adv-x="278" 
d="M-25 710h88l240 -722h-88z" />
    <glyph glyph-name="ampersand" unicode="&#x26;" horiz-adv-x="719" 
d="M568 117q32 -33 57 -59q10 -11 20.5 -21.5t18 -19t12.5 -13l5 -4.5h-107l-60 63q-23 -21 -55 -38q-27 -14 -67 -25.5t-93 -11.5q-67 3 -119 26q-22 10 -43.5 24.5t-38 36.5t-26.5 51.5t-10 68.5q0 41 18.5 74t44.5 58t53.5 41.5t45.5 24.5q-9 10 -22 26.5t-25 36.5
t-20 42t-8 45q0 44 16.5 76t43 53t60 31.5t68.5 10.5q34 0 67 -11t58.5 -32t41.5 -51t17 -67q0 -21 -6.5 -39.5t-18 -35.5t-26 -32t-29.5 -27q-36 -29 -82 -52l154 -186q15 18 28 44q11 23 21 58t14 86h81q-1 -41 -11 -84q-8 -37 -26.5 -81.5t-51.5 -86.5zM338 635
q-21 0 -41 -6t-35.5 -18t-24.5 -28.5t-7 -37.5q0 -14 10 -34.5t23 -38.5q15 -22 34 -44q9 4 32.5 14.5t47.5 27t42 37.5t17 45q-2 21 -10.5 37t-22 26t-30.5 15t-35 5zM292 76q42 0 73 8t51 18q24 11 39 26l-168 205q-68 -28 -98.5 -68t-30.5 -79q0 -22 9.5 -42t27 -35
t42 -24t55.5 -9z" />
    <glyph glyph-name="registered" unicode="&#xae;" horiz-adv-x="800" 
d="M263 555h147q74 0 112.5 -27.5t38.5 -92.5q0 -53 -28 -79t-79 -31l110 -179h-78l-106 176h-41v-176h-76v409zM339 380h62q17 0 32 2t26.5 8t18.5 18t7 33q0 18 -7.5 29t-19.5 17t-26.5 8t-29.5 2h-63v-117zM39 349q0 75 28.5 140.5t77.5 114.5t114.5 77.5t140.5 28.5
t140.5 -28.5t114.5 -77.5t77.5 -114.5t28.5 -140.5t-28.5 -140.5t-77.5 -114.5t-114.5 -77.5t-140.5 -28.5t-140.5 28.5t-114.5 77.5t-77.5 114.5t-28.5 140.5zM120 349q0 -63 22.5 -116.5t61 -92.5t89 -60.5t107.5 -21.5t107.5 21.5t89 60.5t61 92.5t22.5 116.5
t-22.5 116.5t-61 92.5t-89 60.5t-107.5 21.5t-107.5 -21.5t-89 -60.5t-61 -92.5t-22.5 -116.5z" />
    <glyph glyph-name="at" unicode="@" horiz-adv-x="830" 
d="M414 715q76 0 143 -28.5t117 -77.5t78.5 -115.5t28.5 -141.5q0 -31 -9 -71.5t-29 -77t-52.5 -62t-79.5 -25.5q-27 0 -45 7.5t-29 18.5t-16 24.5t-7 24.5q-22 -25 -49.5 -41t-62.5 -19q-73 -6 -116.5 23t-61 77t-11 106t33.5 110t72.5 88.5t106.5 41.5q43 5 81.5 -18
t59.5 -62l21 29l46 -11l-58 -301q6 -29 28.5 -34.5t46.5 11.5t43 57.5t19 104.5q0 62 -23.5 116.5t-64 95t-95 63.5t-115.5 23t-115 -23t-94 -63.5t-63 -95t-23 -116.5t23 -116t63 -94.5t94 -63.5t115 -23q12 0 28 0.5t32.5 2t31.5 3.5t26 6l-23 -66q-12 -4 -26 -7
q-13 -2 -30 -4t-40 -2q-76 0 -142.5 28.5t-116 77.5t-78.5 115.5t-29 141.5t29 141.5t78.5 115.5t116 77.5t142.5 28.5zM398 208q34 3 60.5 23.5t44 49.5t26 63t6.5 64q-4 41 -35.5 66.5t-71.5 24.5q-41 -1 -69 -20.5t-45.5 -48.5t-24 -63t-4.5 -63q4 -46 35 -73t78 -23z
" />
    <glyph glyph-name="bar" unicode="|" horiz-adv-x="218" 
d="M67 -250v1000h84v-1000h-84z" />
    <glyph glyph-name="underscore" unicode="_" horiz-adv-x="500" 
d="M500 -75v-50h-500v50h500z" />
    <glyph glyph-name="bullet" unicode="&#x2022;" horiz-adv-x="505" 
d="M128 477q50 50 123 50q38 0 68.5 -12.5t56.5 -37.5q52 -52 53 -126q-1 -72 -53 -124q-26 -26 -56.5 -39.5t-68.5 -13.5t-68 13.5t-55 39.5q-52 52 -52 124q0 74 52 126z" />
    <glyph glyph-name="quotedblleft" unicode="&#x201c;" horiz-adv-x="562" 
d="M189 700h87l-69 -244h-111zM375 700h91l-69 -244h-112z" />
    <glyph glyph-name="less" unicode="&#x3c;" horiz-adv-x="605" 
d="M554 426l-394 -173l394 -173v-88l-508 223v76l508 223v-88z" />
    <glyph glyph-name="greater" unicode="&#x3e;" horiz-adv-x="600" 
d="M46 80l394 173l-394 173v88l508 -223v-76l-508 -223v88z" />
    <glyph glyph-name="caron" unicode="&#x2c7;" horiz-adv-x="278" 
d="M185 583h-91l-100 144h80l66 -98l65 98h79z" />
    <glyph glyph-name="quotedblright" unicode="&#x201d;" horiz-adv-x="562" 
d="M373 456h-87l69 244h111zM187 456h-91l69 244h112z" />
    <glyph glyph-name="divide" unicode="&#xf7;" horiz-adv-x="600" 
d="M47 297h506v-88h-506v88zM224 460q0 32 22.5 54.5t54.5 22.5q15 0 28.5 -6.5t24 -17t17 -24.5t6.5 -29q0 -14 -6 -28t-16.5 -24.5t-24 -17t-28.5 -6.5q-16 0 -30.5 6t-25 16.5t-16.5 24.5t-6 29zM224 46q0 32 22.5 54t54.5 22q30 0 53 -22.5t23 -53.5q0 -14 -6 -28
t-16.5 -25t-24 -17.5t-28.5 -6.5q-16 0 -30.5 6.5t-25 17t-16.5 24.5t-6 29z" />
    <glyph glyph-name="ellipsis" unicode="&#x2026;" horiz-adv-x="999" 
d="M111 0v115h114v-115h-114zM443 0v115h112v-115h-112zM776 0v115h112v-115h-112z" />
    <glyph glyph-name="logicalnot" unicode="&#xac;" horiz-adv-x="601" 
d="M554 402v-294h-86v208h-421v86h507z" />
    <glyph glyph-name="guillemotleft" unicode="&#xab;" horiz-adv-x="563" 
d="M51 269l143 202h88l-130 -202l130 -202h-88zM253 269l143 202h88l-130 -202l130 -202h-88z" />
    <glyph glyph-name="guillemotright" unicode="&#xbb;" horiz-adv-x="556" 
d="M505 269l-143 -202h-88l130 202l-130 202h88zM303 269l-143 -202h-88l130 202l-130 202h88z" />
    <glyph glyph-name="circumflex" unicode="&#x2c6;" horiz-adv-x="281" 
d="M93 710h91l100 -144h-80l-66 98l-65 -98h-79z" />
    <glyph glyph-name="questiondown" unicode="&#xbf;" horiz-adv-x="474" 
d="M65 -63q-2 14 -3.5 26.5t-0.5 25.5q1 38 16 68.5t36 58t45.5 54t45.5 56.5q13 18 17.5 35t4.5 38v18h89v-21q0 -24 -3.5 -42.5t-11 -35.5t-20 -34t-30.5 -38q-14 -16 -29.5 -33t-28 -36t-21 -40.5t-8.5 -45.5q0 -19 5.5 -36.5t17.5 -31t31 -21.5t47 -8q20 0 42.5 3.5
t44 9t39 11t26.5 8.5v-96q-13 -4 -31 -9t-39 -9.5t-43.5 -7.5t-43.5 -3q-30 0 -61.5 8t-58.5 24.5t-47 42t-27 61.5zM268 405q-22 0 -37.5 15.5t-15.5 37.5q0 23 15.5 38.5t37.5 15.5q23 0 38.5 -15.5t15.5 -38.5q0 -22 -15.5 -37.5t-38.5 -15.5z" />
    <glyph glyph-name="exclamdown" unicode="&#xa1;" horiz-adv-x="387" 
d="M155 330l-15 -505h107l-15 505h-77zM247 471q0 -23 -15.5 -38.5t-37.5 -15.5q-23 0 -38.5 15.5t-15.5 38.5q0 22 15.5 37.5t38.5 15.5q22 0 37.5 -15.5t15.5 -37.5z" />
    <glyph glyph-name="OE" unicode="&#x152;" horiz-adv-x="946" 
d="M878 87v-87h-392v1q-26 -7 -52 -10t-49 -3q-51 0 -109.5 17t-108 58t-82 111t-32.5 176q0 68 15 121t40.5 93.5t59.5 68t70.5 45t74.5 25.5t72 8q23 0 49 -2.5t52 -9.5h392l-16 -89h-276v-204h265v-89h-265v-230h292zM385 76q27 0 52.5 3t48.5 14v508q1 0 -4.5 3t-17.5 7
t-31.5 7.5t-47.5 3.5q-48 0 -89 -18.5t-71.5 -53.5t-48 -85.5t-17.5 -114.5q0 -66 17.5 -117t48 -86t71.5 -53t89 -18z" />
    <glyph glyph-name="acircumflex" unicode="&#xe2;" horiz-adv-x="553" 
d="M221 725h91l100 -144h-80l-66 98l-65 -98h-79zM281 522q55 -3 98 -23q18 -9 36 -22t32 -32t22.5 -44.5t8.5 -59.5v-341h-73l-22 66h-1q-8 -12 -22 -25.5t-33.5 -25t-45 -19.5t-57.5 -8q-41 0 -75.5 9t-59.5 28.5t-38.5 49.5t-13.5 72q0 48 23.5 80t58.5 51.5t77 28
t78 8.5h50t50 -2h9v2v9v25q0 31 -11 50.5t-29.5 29.5t-42 13.5t-47.5 3.5q-27 0 -54 -8t-49 -18q-26 -11 -49 -26v80q23 13 51 24q24 9 57 16.5t72 7.5zM374 243q-15 0 -30 1t-30 1q-19 0 -49 -2.5t-58.5 -12.5t-49 -29.5t-20.5 -53.5q0 -20 9 -35.5t22.5 -26t30.5 -16
t33 -5.5q70 0 106 38.5t36 95.5v45z" />
    <glyph glyph-name="adieresis" unicode="&#xe4;" horiz-adv-x="553" 
d="M132 688h88v-99h-88v99zM317 688h88v-99h-88v99zM281 522q-39 0 -72 -7.5t-57 -16.5q-28 -11 -51 -24v-80q23 15 49 26q22 10 49 18t54 8q24 0 47.5 -3.5t42 -13.5t29.5 -29.5t11 -50.5v-25v-9v-2h-9q-28 2 -50 2h-50q-36 0 -78 -8.5t-77 -28t-58.5 -51.5t-23.5 -80
q0 -42 13.5 -72t38.5 -49.5t59.5 -28.5t75.5 -9q32 0 57.5 8t45 19.5t33.5 25t22 25.5h1l22 -66h73v341q0 34 -8.5 59.5t-22.5 44.5t-32 32t-36 22q-43 20 -98 23zM374 198q0 -57 -36 -95.5t-106 -38.5q-16 0 -33 5.5t-30.5 16t-22.5 26t-9 35.5q0 34 20.5 53.5t49 29.5
t58.5 12.5t49 2.5q15 0 30 -1t30 -1v-45z" />
    <glyph glyph-name="atilde" unicode="&#xe3;" horiz-adv-x="553" 
d="M427 658q-19 -43 -41.5 -56t-46.5 -10.5t-49 14t-50 18t-48.5 1t-44.5 -36.5l-31 43q21 43 45.5 55.5t50.5 9t51.5 -15.5t49.5 -18.5t45 0.5t37 41zM281 522q55 -3 98 -23q18 -9 36 -22t32 -32t22.5 -44.5t8.5 -59.5v-341h-73l-22 66h-1q-8 -12 -22 -25.5t-33.5 -25
t-45 -19.5t-57.5 -8q-41 0 -75.5 9t-59.5 28.5t-38.5 49.5t-13.5 72q0 48 23.5 80t58.5 51.5t77 28t78 8.5h50t50 -2h9v2v9v25q0 31 -11 50.5t-29.5 29.5t-42 13.5t-47.5 3.5q-27 0 -54 -8t-49 -18q-26 -11 -49 -26v80q23 13 51 24q24 9 57 16.5t72 7.5zM374 243
q-15 0 -30 1t-30 1q-19 0 -49 -2.5t-58.5 -12.5t-49 -29.5t-20.5 -53.5q0 -20 9 -35.5t22.5 -26t30.5 -16t33 -5.5q70 0 106 38.5t36 95.5v45z" />
    <glyph glyph-name="aring" unicode="&#xe5;" horiz-adv-x="553" 
d="M370 793q31 -32 32 -79q-2 -49 -32 -78q-35 -33 -80 -33q-47 0 -80 33q-31 28 -31 78q0 48 31 79q30 29 80 32q48 -3 80 -32zM337 670q18 16 18 44t-18 46t-47 18q-27 0 -45 -18q-19 -18 -19 -46t19 -44q18 -19 45 -19q29 0 47 19zM281 522q55 -3 98 -23q18 -9 36 -22
t32 -32t22.5 -44.5t8.5 -59.5v-341h-73l-22 66h-1q-8 -12 -22 -25.5t-33.5 -25t-45 -19.5t-57.5 -8q-41 0 -75.5 9t-59.5 28.5t-38.5 49.5t-13.5 72q0 48 23.5 80t58.5 51.5t77 28t78 8.5h50t50 -2h9v2v9v25q0 31 -11 50.5t-29.5 29.5t-42 13.5t-47.5 3.5q-27 0 -54 -8
t-49 -18q-26 -11 -49 -26v80q23 13 51 24q24 9 57 16.5t72 7.5zM374 243q-15 0 -30 1t-30 1q-19 0 -49 -2.5t-58.5 -12.5t-49 -29.5t-20.5 -53.5q0 -20 9 -35.5t22.5 -26t30.5 -16t33 -5.5q70 0 106 38.5t36 95.5v45z" />
    <glyph glyph-name="ecircumflex" unicode="&#xea;" horiz-adv-x="557" 
d="M232 725h91l100 -144h-80l-66 98l-65 -98h-79zM321 -12q-25 0 -55.5 3.5t-61 14.5t-59 30t-50.5 50t-35.5 75t-13.5 105q0 48 15.5 94t45 82t72.5 58t99 22q67 0 112 -23.5t72 -61t38 -83t11 -88.5v-32h-365q0 -32 11.5 -62.5t33.5 -54.5t52 -38.5t68 -14.5
q32 0 60.5 7.5t50.5 16.5q26 11 48 25l1 -86l-11.5 -6.5t-31.5 -13.5t-47.5 -13t-59.5 -6zM411 304q0 25 -7.5 50.5t-23.5 46t-41 33t-61 12.5q-31 0 -55.5 -12.5t-41.5 -33t-26 -46t-9 -50.5h265z" />
    <glyph glyph-name="edieresis" unicode="&#xeb;" horiz-adv-x="557" 
d="M144 687h88v-99h-88v99zM329 687h88v-99h-88v99zM321 -12q-25 0 -55.5 3.5t-61 14.5t-59 30t-50.5 50t-35.5 75t-13.5 105q0 48 15.5 94t45 82t72.5 58t99 22q67 0 112 -23.5t72 -61t38 -83t11 -88.5v-32h-365q0 -32 11.5 -62.5t33.5 -54.5t52 -38.5t68 -14.5
q32 0 60.5 7.5t50.5 16.5q26 11 48 25l1 -86l-11.5 -6.5t-31.5 -13.5t-47.5 -13t-59.5 -6zM411 304q0 25 -7.5 50.5t-23.5 46t-41 33t-61 12.5q-31 0 -55.5 -12.5t-41.5 -33t-26 -46t-9 -50.5h265z" />
    <glyph glyph-name="icircumflex" unicode="&#xee;" horiz-adv-x="278" 
d="M93 725h91l100 -144h-80l-66 98l-65 -98h-79zM185 0h-94v510h94v-510z" />
    <glyph glyph-name="idieresis" unicode="&#xef;" horiz-adv-x="293" 
d="M10 687h88v-99h-88v99v0zM195 687h88v-99h-88v99v0zM191 0h-94v510h94v-510z" />
    <glyph glyph-name="ntilde" unicode="&#xf1;" horiz-adv-x="612" 
d="M141 587q6 20 14.5 38.5t20.5 33t28 23t37 8.5q20 0 42 -6t40 -13q13 -4 23 -7t19 -3q15 0 24 4t14 10t7.5 13t5.5 14h58q-5 -20 -15 -38.5t-24.5 -33.5t-31.5 -24t-35 -9q-17 0 -33 5t-31.5 11t-31.5 11.5t-32 7.5q-13 0 -21 -5t-13 -12t-8 -15t-6 -13h-51zM341 522
q-25 0 -50.5 -6t-48 -17.5t-40 -29t-27.5 -40.5l-15 81h-79v-510h94v236q0 46 9 85t28 66.5t48.5 43t69.5 15.5q62 -4 85 -48t23 -134v-264h95v295q0 109 -46 168t-146 59z" />
    <glyph glyph-name="ocircumflex" unicode="&#xf4;" 
d="M260 725h91l100 -144h-80l-66 98l-65 -98h-79zM304 522q39 0 84.5 -11.5t84.5 -41.5t65.5 -82t26.5 -133t-26.5 -132.5t-65.5 -81t-84.5 -41t-84.5 -11.5q-38 0 -83 11.5t-84 41t-65 81t-26 132.5t26 133t65 82t84 41.5t83 11.5zM304 64q33 0 62.5 11.5t51 35.5
t34.5 59.5t13 83.5t-13 84t-34.5 60t-51 36t-62.5 12q-32 0 -60.5 -12t-50 -36t-34 -60t-12.5 -84t12.5 -83.5t34 -59.5t50 -35.5t60.5 -11.5z" />
    <glyph glyph-name="odieresis" unicode="&#xf6;" 
d="M168 687h88v-99h-88v99zM353 687h88v-99h-88v99zM304 522q-38 0 -83 -11.5t-84 -41.5t-65 -82t-26 -133t26 -132.5t65 -81t84 -41t83 -11.5q39 0 84.5 11.5t84.5 41t65.5 81t26.5 132.5t-26.5 133t-65.5 82t-84.5 41.5t-84.5 11.5zM304 64q-32 0 -60.5 11.5t-50 35.5
t-34 59.5t-12.5 83.5t12.5 84t34 60t50 36t60.5 12q33 0 62.5 -12t51 -36t34.5 -60t13 -84t-13 -83.5t-34.5 -59.5t-51 -35.5t-62.5 -11.5z" />
    <glyph glyph-name="otilde" unicode="&#xf5;" 
d="M136 587q6 20 14.5 38.5t20.5 33t28 23t37 8.5q20 0 42 -6t40 -13q13 -4 23 -7t19 -3q15 0 24 4t14 10t7.5 13t5.5 14h58q-5 -20 -15 -38.5t-24.5 -33.5t-31.5 -24t-35 -9q-17 0 -33 5t-31.5 11t-31.5 11.5t-32 7.5q-13 0 -21 -5t-13 -12t-8 -15t-6 -13h-51zM304 522
q-38 0 -83 -11.5t-84 -41.5t-65 -82t-26 -133t26 -132.5t65 -81t84 -41t83 -11.5q39 0 84.5 11.5t84.5 41t65.5 81t26.5 132.5t-26.5 133t-65.5 82t-84.5 41.5t-84.5 11.5zM304 64q-32 0 -60.5 11.5t-50 35.5t-34 59.5t-12.5 83.5t12.5 84t34 60t50 36t60.5 12
q33 0 62.5 -12t51 -36t34.5 -60t13 -84t-13 -83.5t-34.5 -59.5t-51 -35.5t-62.5 -11.5z" />
    <glyph glyph-name="ucircumflex" unicode="&#xfb;" horiz-adv-x="612" 
d="M257 725h91l100 -144h-80l-66 98l-65 -98h-79zM272 -12q-100 0 -146 59t-46 168v295h95v-269q0 -91 23 -134t81 -43q40 0 69.5 15t49.5 42.5t30 66t10 85.5v237h94v-510h-79l-15 81q-24 -41 -70 -67t-96 -26z" />
    <glyph glyph-name="udieresis" unicode="&#xfc;" horiz-adv-x="612" 
d="M166 688h88v-99h-88v99zM351 688h88v-99h-88v99zM272 -12q50 0 96 26t70 67l15 -81h79v510h-94v-237q0 -47 -10 -85.5t-30 -66t-49.5 -42.5t-69.5 -15q-58 0 -81 43t-23 134v269h-95v-295q0 -109 46 -168t146 -59z" />
    <glyph glyph-name="asciitilde" unicode="~" 
d="M542 271q-22 -49 -46.5 -71.5t-51 -28t-54.5 2t-56.5 18.5t-57 21.5t-56 11.5t-54 -12t-50.5 -49l-47 66q24 49 51.5 71t56 27t58 -3t59 -20t57.5 -22.5t53.5 -10.5t48.5 14.5t41 53.5z" />
    <glyph glyph-name="asciicircum" unicode="^" horiz-adv-x="604" 
d="M335 699l209 -398h-92l-154 307l-146 -307h-92l201 398h74z" />
    <glyph glyph-name="grave" unicode="`" horiz-adv-x="282" 
d="M7 724h108l94 -144h-70z" />
    <glyph glyph-name="periodcentered" unicode="&#xb7;" horiz-adv-x="278" 
d="M80 337q0 25 17 42t42 17t42 -17t17 -42t-17 -42t-42 -17t-42 17t-17 42z" />
    <glyph glyph-name="quotesinglbase" unicode="&#x201a;" horiz-adv-x="286" 
d="M141 -133h-89l70 245h112z" />
    <glyph glyph-name="dieresis" unicode="&#xa8;" horiz-adv-x="293" 
d="M10 687h88v-99h-88v99zM195 687h88v-99h-88v99z" />
    <glyph glyph-name="quoteleft" unicode="&#x2018;" horiz-adv-x="286" 
d="M145 701h89l-70 -245h-112z" />
    <glyph glyph-name="quoteright" unicode="&#x2019;" horiz-adv-x="286" 
d="M141 456h-89l70 245h112z" />
    <glyph glyph-name="quotedblbase" unicode="&#x201e;" horiz-adv-x="552" 
d="M373 -130h-87l69 244h111zM187 -130h-91l69 244h112z" />
    <glyph glyph-name="degree" unicode="&#xb0;" horiz-adv-x="411" 
d="M205 705q31 0 58.5 -11.5t47.5 -31t31.5 -45.5t11.5 -56t-11.5 -56.5t-31.5 -46t-47.5 -31t-58.5 -11.5t-58 11.5t-47 31t-31.5 46t-11.5 56.5t11.5 56t31.5 45.5t47 31t58 11.5zM206 480q34 0 58 24t24 57q0 16 -6.5 30.5t-17.5 25t-26 17t-32 6.5t-31.5 -6.5t-26 -17
t-18 -25t-6.5 -30.5q0 -33 24.5 -57t57.5 -24z" />
    <glyph glyph-name="dollar" unicode="$" horiz-adv-x="531" 
d="M232 -88v854h58v-854h-58zM236 -12q-41 0 -85.5 10t-89.5 28l28 82q14 -8 35 -14q18 -5 45.5 -9t65.5 -4q24 0 45.5 9t38 24.5t26 36t9.5 42.5q0 24 -12.5 44t-31.5 37t-42.5 31.5t-45.5 26.5q-27 16 -52.5 35t-45.5 42t-32 53t-12 69q0 53 22.5 87.5t54 55t64.5 28.5
t55 8q30 0 55.5 -6.5t45.5 -14.5q22 -10 41 -21l-26 -78q-54 24 -84.5 26.5t-31.5 2.5q-53 0 -79 -24t-26 -64q0 -24 12 -43t30.5 -35t40 -28.5t41.5 -23.5q27 -14 52.5 -34.5t46 -47t33 -58t13.5 -68.5q0 -52 -18 -90.5t-47.5 -64t-66 -38t-72.5 -12.5z" />
    <glyph glyph-name="asterisk" unicode="*" horiz-adv-x="558" 
d="M327 699l-9 -147q40 16 71 27q26 10 48 18t22 9l27 -81l-139 -49q11 -14 25.5 -33.5t28.5 -37.5q16 -21 33 -43l-68 -62l-87 131q-16 -26 -31 -51q-13 -21 -26 -43t-22 -37l-75 61l88 115l-141 49l27 81l140 -53l-7 146h95z" />
    <glyph glyph-name="notequal" unicode="&#x2260;" horiz-adv-x="833" 
 />
    <glyph glyph-name="tilde" unicode="&#x2dc;" horiz-adv-x="271" 
d="M-31 587q6 20 14.5 38.5t20.5 33t28 23t37 8.5q20 0 42 -6t40 -13q13 -4 23 -7t19 -3q15 0 24 4t14 10t7.5 13t5.5 14h58q-5 -20 -15 -38.5t-24.5 -33.5t-31.5 -24t-35 -9q-17 0 -33 5t-31.5 11t-31.5 11.5t-32 7.5q-13 0 -21 -5t-13 -12t-8 -15t-6 -13h-51z" />
    <glyph glyph-name="radical" unicode="&#x221a;" horiz-adv-x="833" 
 />
    <glyph glyph-name="Euro" unicode="&#x20ac;" horiz-adv-x="681" 
d="M475 628q-39 0 -74.5 -11t-65 -33.5t-51 -57t-32.5 -82.5h323l-14 -52h-317q-1 -11 -1.5 -21.5t-0.5 -21.5t0.5 -22t1.5 -21h302l-14 -52h-280q11 -48 32.5 -82.5t51 -57t65 -33t74.5 -10.5q35 0 66.5 4.5t55.5 9.5q28 6 53 15v-79q-23 -10 -50 -17q-23 -6 -55 -11.5
t-70 -4.5q-45 0 -96 12t-97 41.5t-82 81t-50 131.5h-97l12 52h79q-1 10 -1.5 21t-0.5 22t0.5 21.5t1.5 21.5h-91l12 52h85q14 79 50 131t82 82t97 42t96 12q38 0 70 -5t55 -10q27 -7 50 -15v-79q-25 7 -53 13q-24 5 -55.5 9t-66.5 4z" />
    <glyph glyph-name="sterling" unicode="&#xa3;" horiz-adv-x="599" 
d="M405 686q-40 0 -66 -11.5t-41 -34.5t-22 -58t-9 -81v-48h169v-83h-169v-287h263v-83h-470v83h106v287h-106v83h106v38q0 85 22.5 139t57 85t77 42.5t82.5 11.5q35 0 61.5 -5t46.5 -10q22 -6 40 -14l-13 -74q-14 6 -33 10q-17 4 -42 7t-60 3z" />
    <glyph glyph-name="section" unicode="&#xa7;" horiz-adv-x="535" 
d="M462 299q0 -35 -20.5 -67.5t-48.5 -57.5q35 -29 50 -59.5t14 -60.5q0 -39 -19 -70.5t-50.5 -53t-73 -33.5t-87.5 -12q-29 0 -52.5 4t-40.5 9q-20 6 -36 14l18 74q19 -7 49 -12.5t63 -5.5q25 0 49.5 3.5t44 13t31.5 26t12 41.5t-10.5 40t-27.5 24.5t-37.5 16.5t-40.5 16
q-28 11 -57 25.5t-53 34t-39.5 46t-15.5 61.5t17 67t47 54q-24 23 -37.5 56.5t-13.5 68.5q0 36 14.5 64t38.5 46.5t56 28t67 9.5q42 0 73 -5t51 -11q24 -7 40 -15l-10 -72q-16 6 -36 11q-18 5 -43.5 8.5t-58.5 3.5q-35 0 -58 -8t-34.5 -21.5t-13 -31t6.5 -36.5
q11 -23 40.5 -39.5t64.5 -31.5q24 -12 53 -26t54.5 -33.5t42.5 -45t17 -58.5zM178 285q9 -16 24 -26.5t33.5 -17.5t37.5 -12.5t35 -10.5q23 8 43 29.5t21 50.5q0 18 -22 34.5t-49 29.5t-49 21l-22 8q-19 -5 -33.5 -15t-22 -23.5t-7.5 -30.5t11 -36v-1z" />
    <glyph glyph-name="Adieresis" unicode="&#xc4;" horiz-adv-x="723" 
d="M227 855h88v-99h-88v99v0zM412 855h88v-99h-88v99v0zM615 0h96l-294 699h-106l-299 -699h97l74 177h358zM214 261l147 343l147 -343h-294z" />
    <glyph glyph-name="brokenbar" unicode="&#xa6;" horiz-adv-x="216" 
d="M149 312h-82v364h82v-364zM67 -167v364h82v-364h-82z" />
    <glyph glyph-name="minus" unicode="&#x2212;" horiz-adv-x="600" 
d="M47 297h506v-88h-506v88z" />
    <glyph glyph-name="Odieresis" unicode="&#xd6;" horiz-adv-x="778" 
d="M252 855h88v-99h-88v99zM437 855h88v-99h-88v99zM390 711q-52 0 -111 -15.5t-109.5 -56t-83.5 -110.5t-33 -179q0 -110 33 -180.5t83.5 -111t109.5 -56t111 -15.5q35 0 73 6.5t75.5 22.5t71 42.5t59.5 67t41 96t15 128.5t-15 128t-41 95t-59.5 66.5t-71 42.5t-75.5 22.5
t-73 6.5zM390 76q-48 0 -90 15t-73 48t-49 85t-18 126q0 73 18 124.5t49 84.5t73 48t90 15t90 -15t73 -48t48.5 -84.5t17.5 -123.5q0 -74 -17.5 -126.5t-48.5 -85.5t-73 -48t-90 -15z" />
    <glyph glyph-name="Udieresis" unicode="&#xdc;" horiz-adv-x="722" 
d="M227 855h88v-99h-88v99zM412 855h88v-99h-88v99zM91 250v449h100v-451q0 -33 10 -64t31 -55t53.5 -38.5t77.5 -14.5t77 14.5t52.5 38.5t30 55t9.5 64v451h100v-449q0 -65 -23.5 -114.5t-62 -82t-88 -49t-100.5 -16.5t-100 16.5t-86.5 49t-60 82t-20.5 114.5z" />
    <glyph glyph-name="Edieresis" unicode="&#xcb;" horiz-adv-x="557" 
d="M158 854h88v-99h-88v99v0zM343 854h88v-99h-88v99v0zM194 317h265v89h-265v204h276l15 89h-391v-699h392v88h-292v229z" />
    <glyph glyph-name="Idieresis" unicode="&#xcf;" horiz-adv-x="293" 
d="M10 855h88v-99h-88v99v0zM195 855h88v-99h-88v99v0zM97 699v-699h100v699h-100z" />
    <glyph glyph-name="ae" unicode="&#xe6;" horiz-adv-x="886" 
d="M477 224v-4q2 -14 9 -39t26 -49t52 -42t87 -18q32 0 60 5.5t49 12.5q25 8 46 19v-88l-12.5 -5.5t-33.5 -11.5t-49 -11t-60 -5q-79 0 -131 22.5t-84 59.5q-14 -14 -34 -28.5t-45.5 -26.5t-57 -19.5t-69.5 -7.5q-40 0 -74 9.5t-58.5 29t-38.5 50t-14 72.5q0 49 20.5 79
t52 46.5t70 22.5t74.5 6h115v26q0 18 -3 37t-12 34.5t-26.5 25.5t-46.5 10q-46 0 -85 -8t-88 -31v80q35 17 81 30t92 13q44 0 86 -16.5t70 -48.5q27 29 67.5 47t95.5 18q65 0 109.5 -22.5t72 -59.5t39.5 -84t12 -95v-35h-364zM608 436q-32 0 -55.5 -9t-39.5 -24.5
t-24.5 -36.5t-11.5 -44v-4v-10h264q0 25 -7.5 48.5t-23.5 41t-41 28t-61 10.5zM377 224h-53h-49.5t-60 -6.5t-50.5 -22t-20 -46.5q0 -21 9 -35.5t23 -23.5t30.5 -13.5t31.5 -4.5q60 0 95 27t44 73v-1v53z" />
    <glyph glyph-name="scaron" unicode="&#x161;" horiz-adv-x="417" 
d="M265 582h-91l-100 144h80l66 -98l65 98h79zM145 381q0 -18 8 -30t21 -20.5t30 -15t35 -12.5q26 -9 52.5 -19.5t48 -28t35 -44.5t13.5 -69q0 -67 -43 -108q-17 -16 -36 -25.5t-36 -14t-31 -5.5t-21 -1q-43 -1 -77 13t-58 31q-28 19 -49 44l68 50l19 -18q3 -3 11.5 -9
t21 -13t28.5 -12t34 -5q30 0 53.5 18.5t23.5 51.5q0 19 -8 32t-20.5 21.5t-29 14.5t-34.5 11q-25 8 -58.5 23.5t-52.5 35.5q-19 21 -29 45t-10 53q0 41 17.5 70t46.5 47.5t65.5 25.5t74 4t72.5 -17t61 -37l-49 -63l-25 12q-12 6 -25 11q-11 4 -25.5 7.5t-29.5 4.5
q-7 0 -22.5 -1.5t-31 -7.5t-27 -18t-11.5 -32z" />
    <glyph glyph-name="Scaron" unicode="&#x160;" horiz-adv-x="553" 
d="M341 749h-91l-100 144h80l66 -98l65 98h79zM167 526q0 -42 25 -65t63 -38t81.5 -28.5t81.5 -36.5t63 -61.5t25 -104.5q0 -90 -55 -144q-22 -21 -47 -33t-48.5 -18t-42 -7.5t-27.5 -1.5q-58 -1 -102.5 16t-74.5 37q-36 24 -62 54l75 56l16 -16q1 -1 12.5 -10.5t30.5 -20
t45 -19.5t57 -9q23 0 45 7.5t39 21.5t27.5 35t10.5 47q0 36 -14.5 57.5t-38.5 35t-55 23t-63 20t-63 25.5t-55 41q-51 56 -51 129q0 53 23 91t61 61.5t85.5 33.5t96.5 6.5t95 -20t80 -44.5l-54 -70l-21 12q-17 9 -37 16q-17 6 -39.5 11.5t-47.5 6.5q-11 1 -34 -1.5
t-46.5 -12.5t-41.5 -29.5t-18 -52.5z" />
    <glyph glyph-name="plusminus" unicode="&#xb1;" horiz-adv-x="615" 
d="M61 89h507v-89h-507v89zM47 359h213v149h93v-149h212v-89h-212v-147h-94v147h-212v89z" />
    <glyph glyph-name="Aring" unicode="&#xc5;" horiz-adv-x="723" 
d="M359 936q43 0 72.5 -29.5t29.5 -73.5q0 -43 -29.5 -72.5t-72.5 -29.5q-44 0 -73.5 29.5t-29.5 72.5q0 44 29.5 73.5t73.5 29.5zM360 770q26 0 44 18t18 44q0 27 -18 45.5t-44 18.5q-27 0 -45.5 -18.5t-18.5 -45.5q0 -26 18.5 -44t45.5 -18zM541 177h-358l-74 -177h-97
l299 699h106l294 -699h-96zM508 261l-147 343l-147 -343h294z" />
    <glyph glyph-name="Atilde" unicode="&#xc3;" horiz-adv-x="723" 
d="M507 825q-19 -43 -41.5 -56t-46.5 -10.5t-49 14t-50 18t-48.5 1t-44.5 -36.5l-31 43q21 43 45.5 55.5t50.5 9t51.5 -15.5t49.5 -18.5t45 0.5t37 41zM541 177h-358l-74 -177h-97l299 699h106l294 -699h-96zM508 261l-147 343l-147 -343h294z" />
    <glyph glyph-name="Yacute" unicode="&#xdd;" horiz-adv-x="667" 
d="M361 894h105l-132 -144h-67zM656 699l-271 -411v-288h-100v288l-274 411h121l202 -314l200 314h122z" />
    <glyph glyph-name="Agrave" unicode="&#xc0;" horiz-adv-x="723" 
d="M405 750h-67l-132 144h104zM615 0h96l-294 699h-106l-299 -699h97l74 177h358zM214 261l147 343l147 -343h-294z" />
    <glyph glyph-name="Aacute" unicode="&#xc1;" horiz-adv-x="723" 
d="M383 894h105l-132 -144h-67zM541 177h-358l-74 -177h-97l299 699h106l294 -699h-96zM508 261l-147 343l-147 -343h294z" />
    <glyph glyph-name="Egrave" unicode="&#xc8;" horiz-adv-x="557" 
d="M343 750h-67l-132 144h104zM194 317h265v89h-265v204h276l15 89h-391v-699h392v88h-292v229z" />
    <glyph glyph-name="Eacute" unicode="&#xc9;" horiz-adv-x="557" 
d="M300 894h105l-132 -144h-67zM194 88h292v-88h-392v699h391l-15 -89h-276v-204h265v-89h-265v-229z" />
    <glyph glyph-name="Ydieresis" unicode="&#x178;" horiz-adv-x="667" 
d="M198 855h88v-99h-88v99v0zM383 855h88v-99h-88v99v0zM534 699l-200 -314l-202 314h-121l274 -411v-288h100v288l271 411h-122z" />
    <glyph glyph-name="ydieresis" unicode="&#xff;" horiz-adv-x="497" 
d="M103 687h88v-99h-88v99zM288 687h88v-99h-88v99zM382 510l-131 -421l-136 421h-108l194 -524q-8 -37 -27 -65q-17 -25 -48.5 -45t-84.5 -20v-78q36 0 66 9t55 23t45 32.5t35 37.5q35 45 57 103l191 527h-108z" />
    <glyph glyph-name="Igrave" unicode="&#xcc;" horiz-adv-x="279" 
d="M206 750h-67l-132 144h104zM89 699v-699h100v699h-100z" />
    <glyph glyph-name="zcaron" unicode="&#x17e;" horiz-adv-x="502" 
d="M294 582h-91l-100 144h80l66 -98l65 98h79zM447 510v-84l-295 -349h307l-16 -77h-400v84v0l295 350h-281v76h390z" />
    <glyph glyph-name="Zcaron" unicode="&#x17d;" horiz-adv-x="563" 
d="M325 749h-91l-100 144h80l66 -98l65 98h79zM509 608l-356 -520h369v-88h-490v90l362 520h-353v89h468v-91z" />
    <glyph glyph-name="Iacute" unicode="&#xcd;" horiz-adv-x="279" 
d="M167 894h105l-132 -144h-67zM189 699v-699h-100v699h100z" />
    <glyph glyph-name="Oacute" unicode="&#xd3;" horiz-adv-x="778" 
d="M424 894h105l-132 -144h-67zM390 711q35 0 73 -6.5t75.5 -22.5t71 -42.5t59.5 -66.5t41 -95t15 -128t-15 -128.5t-41 -96t-59.5 -67t-71 -42.5t-75.5 -22.5t-73 -6.5q-52 0 -111 15.5t-109.5 56t-83.5 111t-33 180.5q0 109 33 179t83.5 110.5t109.5 56t111 15.5zM390 76
q48 0 90 15t73 48t48.5 85.5t17.5 126.5q0 72 -17.5 123.5t-48.5 84.5t-73 48t-90 15t-90 -15t-73 -48t-49 -84.5t-18 -124.5q0 -74 18 -126t49 -85t73 -48t90 -15z" />
    <glyph glyph-name="Uacute" unicode="&#xda;" horiz-adv-x="722" 
d="M396 894h105l-132 -144h-67zM91 250v449h100v-451q0 -33 10 -64t31 -55t53.5 -38.5t77.5 -14.5t77 14.5t52.5 38.5t30 55t9.5 64v451h100v-449q0 -65 -23.5 -114.5t-62 -82t-88 -49t-100.5 -16.5t-100 16.5t-86.5 49t-60 82t-20.5 114.5z" />
    <glyph glyph-name="Ograve" unicode="&#xd2;" horiz-adv-x="778" 
d="M457 750h-67l-132 144h104zM390 711q-52 0 -111 -15.5t-109.5 -56t-83.5 -110.5t-33 -179q0 -110 33 -180.5t83.5 -111t109.5 -56t111 -15.5q35 0 73 6.5t75.5 22.5t71 42.5t59.5 67t41 96t15 128.5t-15 128t-41 95t-59.5 66.5t-71 42.5t-75.5 22.5t-73 6.5zM390 76
q-48 0 -90 15t-73 48t-49 85t-18 126q0 73 18 124.5t49 84.5t73 48t90 15t90 -15t73 -48t48.5 -84.5t17.5 -123.5q0 -74 -17.5 -126.5t-48.5 -85.5t-73 -48t-90 -15z" />
    <glyph glyph-name="Ugrave" unicode="&#xd9;" horiz-adv-x="722" 
d="M423 750h-67l-132 144h104zM91 250v449h100v-451q0 -33 10 -64t31 -55t53.5 -38.5t77.5 -14.5t77 14.5t52.5 38.5t30 55t9.5 64v451h100v-449q0 -65 -23.5 -114.5t-62 -82t-88 -49t-100.5 -16.5t-100 16.5t-86.5 49t-60 82t-20.5 114.5z" />
    <glyph glyph-name="emdash" unicode="&#x2014;" horiz-adv-x="1001" 
d="M0 307h1001v-73h-1001v73z" />
    <glyph glyph-name="endash" unicode="&#x2013;" horiz-adv-x="501" 
d="M0 305h501v-71h-501v71z" />
    <glyph glyph-name="acute" unicode="&#xb4;" horiz-adv-x="279" 
d="M167 724h105l-132 -144h-67z" />
    <glyph glyph-name="thorn" unicode="&#xfe;" horiz-adv-x="605" 
d="M343 -12q-50 0 -98 19t-76 59v-276h-94v909h94v-261v-1q18 24 44 42q22 16 54.5 29.5t75.5 13.5q51 0 91.5 -21.5t68.5 -57.5t42.5 -84.5t14.5 -102.5t-14.5 -102.5t-42.5 -85.5t-68.5 -58.5t-91.5 -21.5zM322 446q-30 0 -57.5 -11.5t-48.5 -35t-34 -59.5t-13 -84t13 -84
t34 -60t48.5 -36t57.5 -12q28 0 53 12t44 36t30 60t11 84t-11 84t-30 59.5t-44 35t-53 11.5z" />
    <glyph glyph-name="Thorn" unicode="&#xde;" horiz-adv-x="556" 
d="M228 572q54 0 101.5 -10.5t83 -35t56.5 -64.5t21 -100q0 -58 -21 -98t-55.5 -65t-79 -36t-91.5 -11h-98v-152h-100v699h100v-127h83zM235 241q28 0 55 6t48 20t33.5 37t12.5 58q0 36 -12.5 59.5t-34 37t-50.5 19t-61 5.5h-81v-242h90z" />
    <glyph glyph-name="Ntilde" unicode="&#xd1;" horiz-adv-x="722" 
d="M538 834q-19 -43 -41.5 -56t-46.5 -10.5t-49 14t-50 18t-48.5 1t-44.5 -36.5l-31 43q21 43 45.5 55.5t50.5 9t51.5 -15.5t49.5 -18.5t45 0.5t37 41zM634 0h-126l-320 574v-574h-100v699h138l308 -560v560h100v-699z" />
    <glyph glyph-name="daggerdbl" unicode="&#x2021;" horiz-adv-x="558" 
d="M312 435v-182h175v-77h-175v-176h-75v178h-175v75h175v182h-175v75h175v189h75v-189h175v-75h-175z" />
    <glyph glyph-name="copyright" unicode="&#xa9;" horiz-adv-x="800" 
d="M582 285q-12 -75 -60.5 -115.5t-112.5 -40.5q-47 0 -85 17t-64.5 46.5t-41 69.5t-14.5 87t13.5 87t39.5 69t63.5 45.5t85.5 16.5q33 0 63 -10t53.5 -29t39 -47t20.5 -64l-73 3q-8 37 -35.5 57t-66.5 20q-32 0 -56 -11t-40.5 -30.5t-25 -46.5t-8.5 -58q0 -33 9 -60.5
t26.5 -48t42 -32t54.5 -11.5q41 0 68 21t32 62zM39 349q0 75 28.5 140.5t77.5 114.5t114.5 77.5t140.5 28.5t140.5 -28.5t114.5 -77.5t77.5 -114.5t28.5 -140.5t-28.5 -140.5t-77.5 -114.5t-114.5 -77.5t-140.5 -28.5t-140.5 28.5t-114.5 77.5t-77.5 114.5t-28.5 140.5z
M120 349q0 -63 22.5 -116.5t61 -92.5t89 -60.5t107.5 -21.5t107.5 21.5t89 60.5t61 92.5t22.5 116.5t-22.5 116.5t-61 92.5t-89 60.5t-107.5 21.5t-107.5 -21.5t-89 -60.5t-61 -92.5t-22.5 -116.5z" />
    <glyph glyph-name="numbersign" unicode="#" horiz-adv-x="612" 
d="M137 210h-109v81h121q5 32 10 57.5t10 59.5h-114v81h126q8 51 16.5 105.5t16.5 104.5h95l-33 -210h111q8 51 17 105.5t17 104.5h96l-34 -210h101v-81h-113q-5 -32 -9.5 -57.5t-9.5 -59.5h102v-81h-114q-8 -51 -17 -105.5t-17 -104.5h-96l34 210h-111q-8 -51 -17 -105.5
t-17 -104.5h-96zM376 408h-113q-4 -32 -8.5 -57.5t-9.5 -59.5h112z" />
    <glyph glyph-name="trademark" unicode="&#x2122;" horiz-adv-x="891" 
d="M40 699v-71h113v-354h73v354h113v71h-299zM485 700l128 -304l126 304h83v-424h-71v273q-28 -68 -56.5 -137t-55.5 -136h-55l-112 272v-272h-71v424h84z" />
    <glyph glyph-name="AE" unicode="&#xc6;" horiz-adv-x="890" 
d="M815 88v-88h-357h-34v206h-184l-123 -206h-102l418 699h82h300l-15 -89h-276v-204h277v-89h-277v-229h291zM424 522q-34 -57 -65 -113.5t-69 -118.5h133z" />
    <glyph glyph-name="percent" unicode="%" horiz-adv-x="954" 
d="M251 683q22 0 48.5 -8t49 -28t38 -55.5t15.5 -90.5q0 -56 -15.5 -91.5t-38 -55.5t-49 -28t-48.5 -8t-48 8t-49 28t-38.5 55.5t-15.5 91.5q0 55 15.5 90.5t38.5 55.5t49 28t48 8zM251 379q36 0 60 26.5t24 95.5q0 67 -24 93t-60 26q-18 0 -33.5 -6t-27 -20t-18 -36.5
t-6.5 -56.5q0 -35 6.5 -58t18 -37.5t27 -20.5t33.5 -6zM693 387q22 0 48.5 -8t49 -28t38 -55.5t15.5 -90.5q0 -56 -15.5 -91.5t-38 -55.5t-49 -28t-48.5 -8t-48 8t-49 28t-38.5 55.5t-15.5 91.5q0 55 15.5 90.5t38.5 55.5t49 28t48 8zM693 83q36 0 60 26.5t24 95.5
q0 67 -24 93t-60 26q-18 0 -33.5 -6t-27 -20t-18 -36.5t-6.5 -56.5q0 -35 6.5 -58t18 -37.5t27 -20.5t33.5 -6zM653 720h72l-433 -742h-72z" />
    <glyph glyph-name="ordfeminine" unicode="&#xaa;" horiz-adv-x="343" 
d="M157 442q37 0 60.5 17.5t28.5 45.5v44h-32q-11 0 -30 -1t-37.5 -6t-32 -16t-13.5 -32q0 -25 19 -38.5t37 -13.5zM178 734q39 -2 71 -15q26 -11 48.5 -35t22.5 -68v-215l-70 -1l-7 31l-7 -7.5t-19.5 -16.5t-31 -16t-40.5 -7q-55 0 -88.5 25t-33.5 87q0 32 15 53t37 33
t47 17t44 5h80v3q0 23 -10.5 37t-23.5 22q-15 9 -34 12q-26 0 -47.5 -5.5t-37.5 -11.5q-18 -8 -34 -17v59q18 8 38 15q17 6 38.5 11t42.5 5z" />
    <glyph glyph-name="ordmasculine" unicode="&#xba;" horiz-adv-x="363" 
d="M181 711q23 0 50 -7t50.5 -25t39 -49.5t15.5 -80.5q0 -50 -15.5 -81.5t-39 -49.5t-50.5 -25t-50 -7t-50.5 7t-50.5 25t-38.5 49.5t-15.5 81.5q0 49 15.5 80.5t38.5 49.5t50.5 25t50.5 7zM181 442q36 0 61 25.5t25 81.5q0 54 -25 81.5t-61 27.5t-61 -27.5t-25 -81.5
q0 -56 25 -81.5t61 -25.5z" />
    <glyph glyph-name="perthousand" unicode="&#x2030;" horiz-adv-x="1075" 
d="M154 683q22 0 48.5 -8t49 -28t38 -55.5t15.5 -90.5q0 -56 -15.5 -91.5t-38 -55.5t-49 -28t-48.5 -8t-48 8t-49 28t-38.5 55.5t-15.5 91.5q0 55 15.5 90.5t38.5 55.5t49 28t48 8zM154 379q36 0 60 26.5t24 95.5q0 67 -24 93t-60 26q-18 0 -33.5 -6t-27 -20t-18 -36.5
t-6.5 -56.5q0 -35 6.5 -58t18 -37.5t27 -20.5t33.5 -6zM572 353q22 0 48.5 -8t49 -28t38 -55.5t15.5 -90.5q0 -56 -15.5 -91.5t-38 -55.5t-49 -28t-48.5 -8t-48 8t-49 28t-38.5 55.5t-15.5 91.5q0 55 15.5 90.5t38.5 55.5t49 28t48 8zM572 49q36 0 60 26.5t24 95.5
q0 67 -24 93t-60 26q-18 0 -33.5 -6t-27 -20t-18 -36.5t-6.5 -56.5q0 -35 6.5 -58t18 -37.5t27 -20.5t33.5 -6zM921 353q22 0 48.5 -8t49 -28t38 -55.5t15.5 -90.5q0 -56 -15.5 -91.5t-38 -55.5t-49 -28t-48.5 -8t-48 8t-49 28t-38.5 55.5t-15.5 91.5q0 55 15.5 90.5
t38.5 55.5t49 28t48 8zM921 49q36 0 60 26.5t24 95.5q0 67 -24 93t-60 26q-18 0 -33.5 -6t-27 -20t-18 -36.5t-6.5 -56.5q0 -35 6.5 -58t18 -37.5t27 -20.5t33.5 -6zM554 720h72l-433 -742h-72z" />
    <glyph glyph-name="Ccedilla" unicode="&#xc7;" horiz-adv-x="591" 
d="M571 595q-45 12 -93 19.5t-94 5t-87.5 -17.5t-72.5 -46.5t-49.5 -82t-18.5 -125.5t18.5 -126t49.5 -82.5t72.5 -46t87.5 -16.5t94 5t93 20v-82q-23 -8 -50 -15q-23 -6 -54.5 -11t-66.5 -6l-28 -36q24 9 47 6t40.5 -14t28 -28.5t10.5 -37.5t-12.5 -39.5t-40.5 -34.5
t-55.5 -17.5t-51.5 2t-42.5 12t-28.5 12.5l-5 3l19 40l5 -3q47 -24 77.5 -24.5t47 11t18.5 30.5t-8.5 33.5t-33 19t-55.5 -11.5l-15 20l40 57q-50 3 -104.5 21.5t-99.5 59.5t-74 108.5t-29 170.5q0 109 33 179.5t82.5 111t108 56t109.5 15.5q38 0 72 -5t60 -10q30 -7 56 -15
v-85v0z" />
    <glyph glyph-name="cedilla" unicode="&#xb8;" horiz-adv-x="299" 
d="M211 -52q24 10 47 6.5t40.5 -14.5t28 -28.5t10.5 -37.5t-12.5 -39.5t-40.5 -34.5t-55.5 -17.5t-51.5 2t-42.5 12t-28.5 12.5l-5 3l19 40l5 -3q47 -24 77.5 -24.5t47 11t18.5 30.5t-8.5 33.5t-33 19t-55.5 -11.5l-15 20l50 73h43l-38 -52v0z" />
    <glyph glyph-name="cent" unicode="&#xa2;" horiz-adv-x="443" 
d="M415 427q-10 3 -22 7q-11 3 -25.5 5.5t-31.5 4.5l-106 -367q31 -13 62 -13q25 0 47.5 3t39.5 7q19 4 36 11v-72q-12 -8 -30 -13q-15 -5 -38 -8.5t-55 -3.5q-41 0 -84 12l-34 -120h-56l40 141q-24 13 -46 33.5t-38.5 49t-26 65.5t-9.5 85q0 81 25.5 132.5t64 81.5t82.5 41
t82 11h10l32 113h56l-34 -117q28 -6 44 -12l15 -6v-71zM138 254q0 -48 12.5 -84t33.5 -59l96 335q-29 -2 -54.5 -15.5t-45 -38t-31 -59t-11.5 -79.5z" />
    <glyph glyph-name="ccedilla" unicode="&#xe7;" horiz-adv-x="441" 
d="M415 429q-44 16 -93 18.5t-90 -16.5t-67.5 -61.5t-26.5 -114.5q0 -74 26.5 -116t67.5 -59.5t90 -14.5t93 20v-72q-12 -8 -30 -13q-15 -5 -38 -8.5t-55 -3.5h-1l-27 -35q37 14 68.5 1t46.5 -39t7.5 -57.5t-49.5 -54.5q-28 -15 -56 -17.5t-52 2t-43 12t-29 12.5l-5 3l19 40
l5 -3q47 -24 78.5 -24.5t47.5 11.5t18.5 31t-8.5 33t-33.5 18.5t-56.5 -11.5l-15 20l42 62q-36 5 -73.5 21t-68 46.5t-50 78.5t-19.5 117q0 81 25.5 133t64 81.5t82.5 41t82 11.5q32 0 55 -3.5t38 -7.5q18 -5 30 -11v-71v0z" />
    <glyph glyph-name="breve" unicode="&#x2d8;" horiz-adv-x="284" 
d="M231 723h57q0 -28 -12 -52t-32 -42t-48 -28.5t-59 -10.5q-32 0 -59.5 10.5t-48 28.5t-32.5 42t-12 52h59v-1q0 -34 27.5 -57t66.5 -23q19 0 36 6t29.5 17t20 25.5t7.5 31.5v1v0z" />
    <glyph glyph-name="oe" unicode="&#x153;" horiz-adv-x="966" 
d="M885 27l-11.5 -6.5t-31.5 -13.5t-47.5 -13t-59.5 -6q-47 0 -81.5 7.5t-61 20.5t-45.5 31t-35 39q-20 -29 -46.5 -47.5t-55 -30t-57.5 -16t-54 -4.5q-38 0 -83 11.5t-84 41t-65 81t-26 132.5t26 133t65 82t84 41.5t83 11.5q24 0 52.5 -4t57 -14.5t55.5 -27.5t48 -43
q17 25 43 44q22 17 55.5 31t81.5 14q65 0 109.5 -22t72 -58t39.5 -82t12 -94v-32h-365q0 -32 11.5 -62.5t33.5 -54.5t52 -38.5t68 -14.5q32 0 60.5 7.5t50.5 16.5q26 11 48 25zM692 446q-32 0 -56.5 -12.5t-41.5 -33t-25.5 -46t-8.5 -50.5h265q0 25 -7.5 50.5t-23.5 46
t-41 33t-61 12.5zM299 64q33 0 62.5 11.5t51 35.5t34.5 59.5t13 83.5t-13 84t-34.5 60t-51 36t-62.5 12q-32 0 -60.5 -12t-50 -36t-34 -60t-12.5 -84t12.5 -83.5t34 -59.5t50 -35.5t60.5 -11.5z" />
    <glyph glyph-name="DC2" horiz-adv-x="0" 
 />
    <glyph glyph-name="Lslash" unicode="&#x141;" horiz-adv-x="517" 
d="M188 88h292v-88h-393v233l-63 -36v76l63 36v390h101v-333l203 115v-76l-203 -115v-202v0z" />
    <glyph glyph-name="lslash" unicode="&#x142;" horiz-adv-x="275" 
d="M247 530v-65l-60 -47v-418h-100v338l-62 -49v69l62 48v293h99h1v-215l60 46v0z" />
    <glyph glyph-name="Eth" unicode="&#xd0;" horiz-adv-x="661" 
 />
    <glyph glyph-name="eth" unicode="&#xf0;" horiz-adv-x="833" 
 />
    <glyph glyph-name="dotaccent" unicode="&#x2d9;" horiz-adv-x="284" 
d="M192 699v-99h-100v99h100z" />
    <glyph glyph-name="ring" unicode="&#x2da;" horiz-adv-x="283" 
d="M141 769q45 0 75 -30t30 -74t-30 -73.5t-75 -29.5q-21 0 -40 8t-33.5 22t-22.5 32.5t-8 40.5t8 41t22.5 33t33.5 22t40 8zM141 601q28 0 46.5 19t18.5 45q0 27 -18.5 45.5t-46.5 18.5q-27 0 -46 -18.5t-19 -45.5q0 -26 19 -45t46 -19z" />
    <glyph glyph-name="multiply" unicode="&#xd7;" horiz-adv-x="607" 
d="M67 434l61 62l176 -177l174 177l62 -62l-175 -174l175 -177l-62 -62l-174 177l-176 -177l-61 62l176 177z" />
    <glyph glyph-name="mu" unicode="&#xb5;" horiz-adv-x="612" 
d="M452 510v-510h-79l-15 81q-10 -23 -28 -40.5t-40.5 -29t-47.5 -17.5t-50 -6q-57 0 -97 21v-219h-95v425v295h95v-264q0 -90 23 -134t85 -48q40 0 69.5 15.5t48.5 43t28 66t9 85.5v236h94z" />
    <glyph glyph-name="oslash" unicode="&#xf8;" horiz-adv-x="733" 
d="M577 426q23 -30 36 -72.5t13 -99.5q0 -81 -26.5 -132.5t-65.5 -81t-84.5 -41t-84.5 -11.5t-85.5 12t-85.5 44l-110 -109l-38 38l110 110q-22 30 -35.5 72t-13.5 99q0 81 26 133t65 82t84 41.5t83 11.5q40 0 87 -12t87 -44l109 110l39 -39zM208 254q0 -57 19 -100l248 248
q-43 44 -110 44q-32 0 -60.5 -12t-50 -36t-34 -60t-12.5 -84zM526 254q0 60 -20 102l-248 -248q21 -22 48.5 -33t58.5 -11q33 0 62.5 11.5t51 35.5t34.5 59.5t13 83.5z" />
    <glyph glyph-name="Otilde" unicode="&#xd5;" horiz-adv-x="778" 
d="M548 825q-19 -43 -41.5 -56t-46.5 -10.5t-49 14t-50 18t-48.5 1t-44.5 -36.5l-31 43q21 43 45.5 55.5t50.5 9t51.5 -15.5t49.5 -18.5t45 0.5t37 41zM390 711q35 0 73 -6.5t75.5 -22.5t71 -42.5t59.5 -66.5t41 -95t15 -128t-15 -128.5t-41 -96t-59.5 -67t-71 -42.5
t-75.5 -22.5t-73 -6.5q-52 0 -111 15.5t-109.5 56t-83.5 111t-33 180.5q0 109 33 179t83.5 110.5t109.5 56t111 15.5zM390 76q48 0 90 15t73 48t48.5 85.5t17.5 126.5q0 72 -17.5 123.5t-48.5 84.5t-73 48t-90 15t-90 -15t-73 -48t-49 -84.5t-18 -124.5q0 -74 18 -126
t49 -85t73 -48t90 -15z" />
    <glyph glyph-name="yen" unicode="&#xa5;" horiz-adv-x="595" 
d="M348 220h132v-50h-132v-170h-100v170h-125v50h125v95h-125v50h95l-207 334h121l165 -285l165 285h122l-207 -334h103v-50h-132v-95z" />
    <glyph glyph-name="Oslash" unicode="&#xd8;" horiz-adv-x="835" 
d="M690 585q29 -41 46 -98.5t17 -135.5q0 -73 -15 -128.5t-41 -96t-59.5 -67t-71 -42.5t-75.5 -22.5t-73 -6.5q-28 0 -59 4.5t-61.5 14.5t-60.5 26.5t-56 41.5l-89 -90l-39 39l92 92q-29 42 -46.5 99.5t-17.5 135.5q0 109 33 179t83.5 110.5t109.5 56t111 15.5q28 0 59 -4
t62 -14t60.5 -26.5t55.5 -41.5l89 89l38 -38zM188 351q0 -50 8.5 -89.5t23.5 -70.5l365 365q-31 35 -73.5 51t-93.5 16q-48 0 -90 -15t-73 -48t-49 -84.5t-18 -124.5zM647 352q0 50 -8 89t-23 69l-365 -365q32 -35 74.5 -51.5t92.5 -16.5q48 0 90 15t73 48t48.5 85.5
t17.5 126.5z" />
    <glyph glyph-name="ogonek" unicode="&#x2db;" horiz-adv-x="287" 
d="M72 -142q2 19 14.5 40t30 40.5t37.5 35.5t37 26h16q-25 -40 -40.5 -74.5t-15.5 -60.5q0 -20 8.5 -34t23.5 -14q10 0 27.5 10.5t35.5 24.5q6 -5 11.5 -8t10.5 -5q-28 -42 -52.5 -56t-45.5 -14l-17 -1t-36.5 6t-34.5 26t-10 58z" />
    <glyph glyph-name="paragraph" unicode="&#xb6;" horiz-adv-x="614" 
d="M541 711l-7 -816h-93v733h-104l-7 -733h-93v428h-40q-44 0 -77 16t-55 42.5t-33.5 60.5t-11.5 70t11 70t33.5 61.5t56 46t78.5 21.5h342z" />
    <glyph glyph-name="onehalf" unicode="&#xbd;" horiz-adv-x="841" 
d="M550 709h71l-440 -731h-71zM205 698v-423h-77v315q-14 -12 -30 -25.5t-27 -24.5l-38 64l108 94h64zM808 57v-69h-301v35q-3 33 9 60t33 49.5t47 39.5t51 31q39 22 62 40t23 44q0 30 -24 46.5t-55 16.5q-22 0 -46.5 -12.5t-43.5 -39.5l-60 32q9 20 26 37t38 29t43.5 19
t42.5 7q30 0 57 -9.5t48 -27t33 -42.5t12 -56q0 -32 -13.5 -55t-34 -40t-46 -31t-49.5 -28.5t-44.5 -32.5t-30.5 -43h223z" />
    <glyph glyph-name="onequarter" unicode="&#xbc;" horiz-adv-x="779" 
d="M746 166v-72h-55v-94h-79v94h-202v56l183 285h98v-269h55zM612 166v168q-28 -43 -52.5 -83t-53.5 -85h106zM543 720h71l-443 -742h-70zM205 698v-423h-77v315q-14 -12 -30 -25.5t-27 -24.5l-38 64l108 94h64z" />
    <glyph glyph-name="onesuperior" unicode="&#xb9;" horiz-adv-x="341" 
d="M222 698v-423h-77v315q-14 -12 -30 -25.5t-27 -24.5l-38 64l108 94h64z" />
    <glyph glyph-name="threequarters" unicode="&#xbe;" horiz-adv-x="781" 
d="M748 166v-72h-56v-94h-78v94h-202v56l182 285h98v-269h56zM614 166v168q-28 -43 -53 -83t-54 -85h107zM606 720h70l-442 -742h-71zM319 584q0 -30 -20.5 -54.5t-49.5 -38.5q11 -5 24 -13t24 -20t18 -28.5t7 -38.5q0 -36 -11.5 -62t-31.5 -43.5t-48 -25.5t-62 -8
q-20 1 -44.5 5.5t-41.5 12.5q-13 6 -27.5 16t-28.5 24l53 51q12 -14 32.5 -26.5t49.5 -12.5q2 0 13.5 2.5t25 9t24.5 18t11 30.5q0 13 -3 26t-12 23.5t-24 17.5t-39 7l-66 -1l-4 73h70q11 0 24 4t24.5 10.5t19.5 16t8 21.5q0 27 -11 40.5t-25 19.5q-16 6 -35 6
q-29 0 -51 -12.5t-34 -25.5l-51 51q30 28 56 40q36 18 79 18q30 0 58.5 -7t50.5 -23t35 -41.5t13 -61.5z" />
    <glyph glyph-name="threesuperior" unicode="&#xb3;" horiz-adv-x="354" 
d="M28 630q17 11 47.5 21t67.5 10q32 0 55 -8t38 -21t22 -30t7 -35q0 -30 -20.5 -54t-56.5 -36v-2q42 -6 67.5 -32.5t25.5 -64.5q0 -23 -10.5 -44.5t-30.5 -37.5t-49.5 -25.5t-67.5 -9.5q-36 0 -66.5 8.5t-47.5 19.5l18 50q12 -8 38 -18.5t55 -10.5q23 0 40 6.5t28 17
t16.5 22.5t5.5 24q0 19 -9.5 32t-25 21.5t-35 12.5t-39.5 4h-27l11 46h17q14 0 30 3.5t30.5 11t24 19.5t9.5 30t-16 35t-50 17q-27 0 -50 -10.5t-35 -18.5z" />
    <glyph glyph-name="twosuperior" unicode="&#xb2;" horiz-adv-x="367" 
d="M336 344v-69h-301v35q-3 33 9 60t33 49.5t47 39.5t51 31q39 22 62 40t23 44q0 30 -24 46.5t-55 16.5q-22 0 -46.5 -12.5t-43.5 -39.5l-60 32q9 20 26 37t38 29t43.5 19t42.5 7q30 0 57 -9.5t48 -27t33 -42.5t12 -56q0 -33 -13.5 -55.5t-34 -39.5t-46 -31t-49.5 -28.5
t-44.5 -32.5t-30.5 -43h223z" />
    <glyph glyph-name="LF" unicode="&#xa;" horiz-adv-x="0" 
 />
    <glyph glyph-name="fraction" unicode="&#x2044;" horiz-adv-x="167" 
d="M264 720h72l-433 -742h-72z" />
    <glyph glyph-name="germandbls" unicode="&#xdf;" horiz-adv-x="833" 
 />
    <glyph glyph-name="fi" unicode="&#xfb01;" horiz-adv-x="668" 
d="M373 680q-74 19 -105 -12t-31 -103v-55h135v-76h-135v-434h-94v434h-122v76h122v55q0 39 6.5 68.5t17 50.5t24.5 35t28 23q33 20 77 20q14 0 28.5 -1t26.5 -3q14 -2 27 -3zM575 -9h-94v510h94v-510zM588 670q0 -26 -18 -44t-43 -18q-26 0 -44 18t-18 44q0 25 18 43t44 18
q25 0 43 -18t18 -43z" />
    <glyph glyph-name="fl" unicode="&#xfb02;" horiz-adv-x="709" 
d="M373 680q-74 19 -105 -12t-31 -103v-55h135v-76h-135v-434h-94v434h-122v76h122v55q0 39 6.5 68.5t17 50.5t24.5 35t28 23q33 20 77 20q14 0 28.5 -1t26.5 -3q14 -2 27 -3zM659 0q-16 -6 -36 -9t-37 -3q-51 0 -78 30t-27 87v635h94v-633q0 -21 7.5 -31.5t25.5 -10.5
q10 0 26.5 1.5t24.5 3.5v-70z" />
    <glyph glyph-name="integral" unicode="&#x222b;" horiz-adv-x="833" 
 />
    <glyph glyph-name="Acircumflex" unicode="&#xc2;" horiz-adv-x="723" 
d="M316 893h91l100 -144h-80l-66 98l-65 -98h-79zM541 177h-358l-74 -177h-97l299 699h106l294 -699h-96zM508 261l-147 343l-147 -343h294z" />
    <glyph glyph-name="Ecircumflex" unicode="&#xca;" horiz-adv-x="557" 
d="M235 893h91l100 -144h-80l-66 98l-65 -98h-79zM194 88h292v-88h-392v699h391l-15 -89h-276v-204h265v-89h-265v-229z" />
    <glyph glyph-name="Icircumflex" unicode="&#xce;" horiz-adv-x="278" 
d="M93 893h91l100 -144h-80l-66 98l-65 -98h-79zM189 699v-699h-100v699h100z" />
    <glyph glyph-name="dagger" unicode="&#x2020;" horiz-adv-x="539" 
d="M218 425h-178v85h178v188h102v-188h179v-85h-179v-425h-102v425z" />
    </font>
</defs>
</svg>
